<?xml version="1.0" encoding="utf-8"?>
<!-- Generator: Adobe Illustrator 23.0.1, SVG Export Plug-In . SVG Version: 6.00 Build 0)  -->
<svg version="1.1" id="Layer_1" xmlns="http://www.w3.org/2000/svg" xmlns:xlink="http://www.w3.org/1999/xlink" x="0px" y="0px" height="15px"  width="15px"
	 viewBox="0 0 15 15" style="enable-background:new 0 0 15 15;" xml:space="preserve">
<style type="text/css">
	.st0{fill:#8198E9;}
</style>
<path class="st0" d="M9.2,14.6L9.2,14.6l-0.3-0.1c-0.3-0.1-0.5-0.4-0.5-0.8v-3.3H6.7v3.3c0,0.4-0.4,0.8-0.8,0.8h-2
	c-1,0-1.8-0.8-1.8-1.8V9.3L1.7,9.1C1.4,9.1,1.2,8.9,1.1,8.7C0.7,8.4,0.6,8,0.6,7.6c0-0.4,0.2-0.8,0.5-1.1l5.3-5.3
	C6.8,1,7.1,0.8,7.5,0.8c0.4,0,0.8,0.2,1.1,0.5l5.3,5.3c0.6,0.6,0.6,1.6,0,2.3c-0.2,0.2-0.4,0.3-0.6,0.4L13,9.3v3.5
	c0,1-0.8,1.8-1.8,1.8H9.2z M8.1,8.9c1,0,1.8,0.8,1.8,1.8V13h1.6V8.5c0-0.3,0.2-0.6,0.5-0.7l0.7-0.3L7.5,2.3L2.4,7.5l0.7,0.3
	c0.3,0.1,0.5,0.4,0.5,0.7V13h1.5v-2.3c0-1,0.8-1.8,1.8-1.8H8.1z"/>
</svg>
