<svg id="Capa_1" data-name="Capa 1" xmlns="http://www.w3.org/2000/svg" viewBox="0 0 359.99 511.98" height="15px"  width="15px"><defs><style>.cls-1{fill:#8198e9;}</style></defs><title>idea(1)</title><path class="cls-1" d="M256,60a15,15,0,0,0,0,30,90.11,90.11,0,0,1,90,90,15,15,0,0,0,30,0A120.14,120.14,0,0,0,256,60Z" transform="translate(-76.01 -0.01)"/><path class="cls-1" d="M217.34,4C149.57,18.19,94.62,72.61,80.16,140.81,68,198.39,83,256.2,121.43,299.41,140.22,320.54,151,348.42,151,376v30a45.07,45.07,0,0,0,31.09,42.79C188,483.8,218.42,512,256,512s68-28.18,73.91-63.21A45.07,45.07,0,0,0,361,406V376c0-27.63,10.81-55.17,30.44-77.57A179.57,179.57,0,0,0,436,180C436,66.43,332.05-19.94,217.34,4ZM256,482c-19.28,0-36.19-13.27-42.43-31.1h84.86C292.19,468.72,275.28,482,256,482Zm75-76a15,15,0,0,1-15,15H196a15,15,0,0,1-15-15V391H331Zm37.88-127.34C348,302.51,335.09,331.29,331.82,361H180.18a148.23,148.23,0,0,0-36.33-81.52c-32-36-44.56-84.29-34.35-132.44,11.92-56.21,57.72-101.88,114-113.63C319.5,13.33,406,85.44,406,180A149.62,149.62,0,0,1,368.88,278.65Z" transform="translate(-76.01 -0.01)"/></svg>