<?xml version="1.0" encoding="utf-8"?>
<!-- Generator: Adobe Illustrator 23.0.1, SVG Export Plug-In . SVG Version: 6.00 Build 0)  -->
<svg version="1.1" id="Layer_1" xmlns="http://www.w3.org/2000/svg" xmlns:xlink="http://www.w3.org/1999/xlink" x="0px" y="0px" height="15px"  width="15px"
	 viewBox="0 0 15 15" style="enable-background:new 0 0 15 15;" xml:space="preserve">
<style type="text/css">
	.st0{fill:#8198E9;}
</style>
<g>
	<path class="st0" d="M7.1,14.5c-1,0-1.8-0.7-1.9-1.7H2.6c-0.5,0-0.9-0.4-0.9-0.9v-1.7c0-0.5,0.4-0.9,0.9-0.9C2.8,9.5,3,9.4,3,9.2
		V6.3c0-1.7,1-3.2,2.5-3.8c0-0.1,0-0.2,0-0.3c0-0.9,0.8-1.7,1.7-1.7c0.9,0,1.7,0.8,1.7,1.7c0,0.1,0,0.2,0,0.3
		c0.5,0.2,0.9,0.5,1.3,0.9c0.8,0.8,1.2,1.8,1.2,2.9v2.9c0,0.2,0.2,0.4,0.4,0.4c0.5,0,0.9,0.4,0.9,0.9V12c0,0.5-0.4,0.9-0.9,0.9H9
		C8.9,13.8,8.1,14.5,7.1,14.5z M10.8,11.2v-0.1c-0.7-0.3-1.2-1.1-1.2-1.9V6.3c0-0.7-0.3-1.3-0.7-1.7C8.4,4.1,7.8,3.8,7.1,3.8l0-0.4
		l0,0.4c-1.3,0-2.4,1.1-2.4,2.5v2.9c0,0.8-0.5,1.6-1.2,1.9v0.1H10.8z"/>
	<path class="st0" d="M11.7,10c-0.5,0-0.8-0.4-0.8-0.8V6.3c0-1-0.4-1.9-1.1-2.6c-0.4-0.4-1-0.7-1.5-0.9c0.1-0.2,0.1-0.4,0.1-0.6
		c0-0.7-0.6-1.2-1.2-1.2S5.9,1.4,5.9,2.1C5.9,2.3,6,2.5,6,2.7C4.5,3.2,3.4,4.6,3.4,6.3v2.9c0,0.5-0.4,0.8-0.8,0.8
		c-0.2,0-0.4,0.2-0.4,0.4V12c0,0.2,0.2,0.4,0.4,0.4h3.1c0,0.1,0,0.1,0,0.2c0,0.8,0.6,1.4,1.4,1.4s1.4-0.6,1.4-1.4c0-0.1,0-0.1,0-0.2
		h3.1c0.2,0,0.4-0.2,0.4-0.4v-1.7C12.1,10.2,11.9,10,11.7,10z M7.1,1.7c0.2,0,0.4,0.2,0.4,0.4S7.4,2.5,7.1,2.5S6.7,2.4,6.7,2.1
		S6.9,1.7,7.1,1.7z M7.8,12.7c0,0.3-0.3,0.6-0.6,0.6S6.5,13,6.5,12.7c0-0.1,0-0.1,0-0.2h1.2C7.7,12.5,7.8,12.6,7.8,12.7z M11.3,11.6
		H8H6.3H3v-0.9c0.7-0.2,1.2-0.8,1.2-1.6V6.3c0-1.6,1.3-2.9,2.9-2.9c0,0,0,0,0,0c0.8,0,1.5,0.3,2,0.8c0.5,0.5,0.9,1.3,0.9,2v2.9
		c0,0.8,0.5,1.4,1.2,1.6L11.3,11.6z"/>
	<path class="st0" d="M6.3,6.3"/>
	<path class="st0" d="M7.1,5.5"/>
	<path class="st0" d="M7.1,3.8"/>
	<path class="st0" d="M4.6,6.3"/>
	<path class="st0" d="M5.5,6.7c-0.2,0-0.4-0.2-0.4-0.4c0-1.1,0.9-2.1,2.1-2.1c0.2,0,0.4,0.2,0.4,0.4S7.4,5,7.1,5
		C6.5,5,5.9,5.6,5.9,6.3C5.9,6.5,5.7,6.7,5.5,6.7z"/>
</g>
</svg>
