<?xml version="1.0" encoding="utf-8"?>
<!-- Generator: Adobe Illustrator 23.0.1, SVG Export Plug-In . SVG Version: 6.00 Build 0)  -->
<svg version="1.1" id="Capa_1" xmlns="http://www.w3.org/2000/svg" xmlns:xlink="http://www.w3.org/1999/xlink" x="0px" y="0px" height="15px"  width="15px"
	 viewBox="0 0 15 15" style="enable-background:new 0 0 15 15;" xml:space="preserve">
<style type="text/css">
	.st0{fill:#8198E9;}
</style>
<g>
	<g>
		<path class="st0" d="M10.7,14.8c-0.3,0-0.7-0.1-1-0.2l-2.2-1l-2.3,0.9c-0.2,0.1-0.5,0.2-0.8,0.2c-0.9,0-1.7-0.5-2-1.3l0-0.1v-0.1
			c-0.1-0.2-0.1-0.4-0.1-0.5v-0.4l0.3-2.6L0.7,8C0.3,7.4,0.1,6.9,0.1,6.3c0-0.6,0.3-1.2,0.8-1.6c0.2-0.2,0.6-0.3,0.9-0.4l0.1,0
			l0.2,0l2.3-0.5l1.3-2.1C6.1,1,6.7,0.6,7.5,0.6c0.4,0,0.8,0.1,1.1,0.3c0.3,0.1,0.6,0.3,0.7,0.5l0.1,0.1l1.3,2.2l2.4,0.6
			c0.6,0.1,1.1,0.5,1.4,1C14.9,5.9,15,6.5,14.8,7c-0.1,0.3-0.2,0.7-0.6,1l-1.6,1.8l0.3,2.5C13,13.6,12.1,14.6,10.7,14.8L10.7,14.8
			L10.7,14.8z M4.4,12.3l2.7-1.2h0c0.1,0,0.2-0.1,0.3-0.1c0.1,0,0.3,0,0.5,0.2l2.4,1l-0.2-2.8c0-0.3,0.1-0.6,0.2-0.8l0-0.1l1.8-2.1
			L9.7,6c-0.4,0-0.7-0.4-0.8-0.6L7.5,3L6.1,5.4C6,5.6,5.7,5.9,5.3,6L2.7,6.5l1.8,2c0.3,0.3,0.4,0.7,0.3,1.1L4.4,12.3z"/>
		<path class="st0" d="M10.7,14.3c-0.3,0-0.6-0.1-0.8-0.2l-2.3-1l-2.5,1c-0.2,0.1-0.5,0.2-0.6,0.2c-0.6,0-1.3-0.4-1.6-1v-0.1
			c-0.1-0.1-0.1-0.3-0.1-0.4c0-0.1,0-0.3,0-0.4L3,9.7l-2-2C0.7,7.3,0.5,6.8,0.5,6.3c0-0.5,0.3-0.9,0.6-1.2c0.2-0.2,0.5-0.3,0.7-0.4
			H2h0.1l2.5-0.6L6,1.9c0.4-0.6,0.9-0.8,1.5-0.8c0.3,0,0.6,0.1,0.9,0.3c0.3,0,0.5,0.3,0.6,0.5l1.4,2.3L13,4.8
			C14,4.9,14.6,6,14.3,6.9c-0.1,0.3-0.2,0.6-0.5,0.8l-1.8,1.9l0.3,2.7C12.5,13.4,11.8,14.2,10.7,14.3C10.8,14.3,10.7,14.3,10.7,14.3
			z M4.1,12.7c0,0.1,0.1,0.1,0.3,0.1h0.1l2.8-1.2c0.1,0,0.2-0.1,0.3-0.1s0.2,0,0.3,0.1l2.8,1.2h0.1c0.2,0,0.3-0.2,0.3-0.3l-0.2-3.1
			c0-0.2,0.1-0.4,0.2-0.6l1.9-2.2l0.5,0.1L13,6.6c0-0.1,0-0.2,0-0.2c0-0.1-0.1-0.1-0.2-0.2l-3-0.7c-0.2,0-0.4-0.2-0.5-0.4L7.8,2.6
			C7.7,2.4,7.6,2.4,7.5,2.4s-0.1,0-0.2,0c0,0.1,0,0.1-0.1,0.1L5.7,5.1C5.6,5.3,5.5,5.5,5.3,5.5L2.2,6.2C2.1,6.2,2,6.4,2,6.5
			c0,0,0,0.1,0.1,0.1l1.9,2.2C4.2,9,4.3,9.3,4.2,9.5l-0.3,3l-0.5,0.2L4,12.5L4.1,12.7z"/>
		<path class="st0" d="M4,14.8c-0.7,0-1.4-0.5-1.7-1.2l0-0.1v-0.1c-0.1-0.1-0.1-0.2-0.1-0.4l0-0.4l0.2-2.9L0.5,7.7
			C-0.1,6.8,0,5.7,0.7,5c0.3-0.3,0.5-0.4,0.8-0.5l2.9-0.6l1.5-2.5c0.3-0.5,0.9-0.9,1.6-0.9c0.3,0,0.7,0.1,1,0.3
			c0.2,0.1,0.5,0.4,0.7,0.7l1.5,2.4l2.8,0.6c0.5,0.1,0.9,0.4,1.2,0.9c0.3,0.4,0.4,1,0.3,1.5c-0.1,0.4-0.3,0.6-0.6,0.9l-1.8,2.1
			l0.3,2.9c0.1,1.1-0.6,2-1.7,2.1c0,0,0,0,0,0c-0.4,0-0.7-0.1-1-0.2l-2.5-1.1l-2.7,1.1C4.6,14.8,4.3,14.8,4,14.8z M10.6,13.2l0.2,0
			c0.1,0,0.1,0,0.3,0c0.3,0,0.3-0.3,0.3-0.4L11,9.7c0-0.2,0-0.4,0.2-0.6l1.9-2.3c0-0.1,0.1-0.1,0.1-0.1l0,0c0-0.1,0-0.2,0-0.3
			c0-0.1-0.1-0.1-0.1-0.1l-0.1,0L13,6.1L9.8,5.4L9.4,5L7.7,2.2C7.7,2.1,7.6,2.1,7.5,2.1c0,0-0.1,0-0.1,0L7.2,2.3L5.6,4.9
			C5.6,5.1,5.4,5.3,5,5.3L1.9,6c-0.1,0-0.2,0.1-0.2,0.3c0,0.1,0,0.1,0.1,0.1l2.1,2.6C4,9.3,4,9.5,4,9.7l-0.3,3.2l0,0.3
			c0.1,0.1,0.2,0.1,0.2,0.1c0,0,0.1,0,0.1,0l0.1,0h0.1l3-1.2h0.5L10.6,13.2z"/>
		<path class="st0" d="M13.3,4.9l-3-0.6L8.8,1.7l0,0C8.6,1.4,8.4,1.2,8.2,1.1C7.6,0.8,6.7,1,6.3,1.6L4.7,4.3L1.7,4.9l0,0l0,0
			C1.4,5,1.2,5.1,1,5.3c-0.6,0.6-0.6,1.4-0.2,2l2,2.3l-0.2,3.1c0,0,0,0,0,0.1s0,0.2,0,0.3s0.1,0.2,0.1,0.4l0,0
			c0.3,0.7,1.1,1.1,1.9,0.7L7.5,13l2.7,1.1c0.3,0.1,0.6,0.2,0.8,0.2c0.8-0.1,1.4-0.7,1.3-1.6l0,0L12,9.7L14,7.4
			c0.3-0.2,0.4-0.4,0.5-0.6C14.6,6,14.1,5.1,13.3,4.9z M13.7,6.8c0,0.1-0.1,0.1-0.1,0.2l0,0l-2,2.4c-0.1,0.1-0.1,0.2-0.1,0.3
			l0.3,3.2l0,0c0,0.5-0.3,0.8-0.7,0.8l0,0c-0.2,0-0.3,0-0.5-0.1c0,0,0,0-0.1,0l-2.9-1.2c-0.1,0-0.2,0-0.3,0l-3,1.2c0,0,0,0-0.1,0
			c-0.4,0.2-0.8,0-1-0.4l0,0c0-0.1,0-0.1,0-0.2c0-0.1,0-0.1,0-0.2c0,0,0,0,0-0.1l0.3-3.1c0-0.1,0-0.2-0.1-0.3l-2-2.5
			C1.3,6.8,1.3,6.7,1.2,6.5C1.1,6.1,1.4,5.7,1.7,5.6l0,0l3.1-0.7c0.2,0,0.3,0,0.3-0.1L6.8,2C6.9,1.9,7,1.8,7.1,1.7
			C7.5,1.5,8,1.6,8.1,2l0,0l1.7,2.8l0,0C9.9,4.9,9.9,4.9,10,4.9l3.1,0.7c0.1,0,0.1,0,0.2,0.1C13.7,5.9,13.9,6.4,13.7,6.8z"/>
	</g>
</g>
</svg>
