<?xml version="1.0" encoding="utf-8"?>
<!-- Generator: Adobe Illustrator 23.0.1, SVG Export Plug-In . SVG Version: 6.00 Build 0)  -->
<svg version="1.1" id="Capa_1" xmlns="http://www.w3.org/2000/svg" xmlns:xlink="http://www.w3.org/1999/xlink" x="0px" y="0px" height="15px"  width="15px"
	 viewBox="0 0 15 15" style="enable-background:new 0 0 15 15;" xml:space="preserve">
<style type="text/css">
	.st0{fill:#8198E9;}
</style>
<path class="st0" d="M13.6,14.7c-0.3,0-0.6-0.1-0.8-0.4l-3-3.1c-0.9,0.6-2,0.9-3.1,0.9c-3.3,0-5.9-2.7-5.9-5.9
	c0-3.3,2.7-5.9,5.9-5.9s5.9,2.7,5.9,5.9c0,1.3-0.4,2.5-1.1,3.5l3,3.1c0.2,0.2,0.3,0.5,0.3,0.8c0,0.3-0.1,0.6-0.4,0.8
	C14.2,14.6,13.9,14.7,13.6,14.7z M6.7,2.6c-2,0-3.6,1.6-3.6,3.6c0,2,1.6,3.6,3.6,3.6c2,0,3.6-1.6,3.6-3.6C10.3,4.2,8.7,2.6,6.7,2.6z
	"/>
</svg>
