<?xml version="1.0" encoding="utf-8"?>
<!-- Generator: Adobe Illustrator 23.0.1, SVG Export Plug-In . SVG Version: 6.00 Build 0)  -->
<svg version="1.1" id="ch-im-lf" xmlns="http://www.w3.org/2000/svg" xmlns:xlink="http://www.w3.org/1999/xlink" x="0px" y="0px" width="100px" height="100px"
	 viewBox="0 0 512 512" style="enable-background:new 0 0 512 512;" xml:space="preserve">
<style type="text/css">
	.st0{opacity:0.1;fill:#2626BC;enable-background:new    ;}
	.st1{fill:#FFFFFF;}
	.st2{fill:#8198E9;}
	.st3{fill:#6583FE;}
</style>
<path class="st0" d="M454.1,430.5l-81.8-81.8V72.6c0-5.2-4.2-9.4-9.4-9.4H107c-5.2,0-9.4,4.2-9.4,9.4v273.6c0,0,0,0,0,0
	c-23.3,0-42.3,18.9-42.3,42.3s18.9,42.3,42.3,42.3h0v47.7c0,5.2,4.2,9.4,9.4,9.4h255.9c5.2,0,9.4-4.2,9.4-9.4v-69.7l51.8,51.8
	c3.5,3.5,9,3.5,12.5,0l17.5-17.5C457.5,439.5,457.5,433.9,454.1,430.5L454.1,430.5z"/>
<path class="st1" d="M372.3,45.6v405.8c0,5.2-4.2,9.4-9.4,9.4H107c-5.2,0-9.4-4.2-9.4-9.4V45.6c0-5.2,4.2-9.4,9.4-9.4h255.9
	C368.1,36.2,372.3,40.4,372.3,45.6L372.3,45.6z"/>
<path class="st1" d="M372.3,45.6v303.9H97.6V45.6c0-5.2,4.2-9.4,9.4-9.4h255.9C368.1,36.2,372.3,40.4,372.3,45.6L372.3,45.6z"/>
<g>
	<g>
		<g>
			<g>
				<path class="st2" d="M184.9,85l35.4-45.8l-7.9-6.1L172.3,85H184.9z"/>
			</g>
			<g>
				<path class="st2" d="M341.6,67.1H228.4c-2.6,0-4.7-2.1-4.7-4.7s2.1-4.7,4.7-4.7h113.3c2.6,0,4.7,2.1,4.7,4.7
					C346.3,65,344.2,67.1,341.6,67.1z"/>
			</g>
		</g>
	</g>
</g>
<g>
	<path class="st1" d="M292.6,290.3l18.3-18.3l55.6,55.6l-18.3,18.3L292.6,290.3z"/>
	<g>
		<path class="st3" d="M310.3,289.7c-41.7,41.7-109.6,41.7-151.3,0s-41.7-109.6,0-151.3s109.6-41.7,151.3,0S352,248,310.3,289.7z"/>
	</g>
	<g>
		<ellipse class="st1" cx="234.6" cy="214.1" rx="80.5" ry="80.5"/>
		<path class="st1" d="M284.5,150.8l-113,113c-4.5-5.7-8.1-11.8-10.8-18.2L266.3,140C272.7,142.8,278.8,146.3,284.5,150.8
			L284.5,150.8z"/>
		<path class="st1" d="M314.4,203.4L224,293.8c-16.2-2.1-32-9.3-44.7-21.3l113.8-113.8C305.1,171.4,312.3,187.1,314.4,203.4
			L314.4,203.4z"/>
		<path class="st1" d="M454.1,416l-17.5,17.5c-3.5,3.5-9,3.5-12.5,0l-82.9-82.9c-3.5-3.5-3.5-9,0-12.5l17.5-17.5
			c3.5-3.5,9-3.5,12.5,0l82.9,82.9C457.5,406.9,457.5,412.5,454.1,416z"/>
	</g>
	<g>
		<path class="st3" d="M410.2,419.6l13.8,13.8c3.5,3.5,9,3.5,12.5,0l17.5-17.5c3.5-3.5,3.5-9,0-12.5l-13.8-13.8L410.2,419.6z"/>
		<path class="st3" d="M353.2,362.7l30-30l19.8,19.8l-30,30L353.2,362.7z"/>
	</g>
</g>
<g>
	<path class="st2" d="M228.5,243.3c-2.8,0-5-2.2-5-5v-6c0-3.9,1-7.7,2.9-11.1c2.9-5.2,7.9-9,13.6-10.5c8.7-2.3,14.8-10.2,14.8-19.3
		c0-5.4-2.1-10.5-6-14.3c-3.9-3.8-9-5.8-14.5-5.6c-10.4,0.3-19.1,9-19.4,19.5c0,2.2,0.3,4.3,0.9,6.4c0.8,2.6-0.7,5.4-3.3,6.3
		c-2.6,0.8-5.4-0.7-6.3-3.3c-1-3.1-1.4-6.3-1.3-9.6c0.4-16,13.1-28.8,29.1-29.2c8.2-0.2,15.9,2.8,21.7,8.5
		c5.8,5.7,9.1,13.3,9.1,21.5c0,13.6-9.2,25.5-22.3,28.9c-3.1,0.8-5.9,2.9-7.5,5.8c-1.1,1.9-1.6,4-1.6,6.1v6
		C233.5,241.1,231.3,243.3,228.5,243.3L228.5,243.3z"/>
	<path class="st2" d="M228.5,262.5c-2.8,0-5-2.2-5-5v-0.1c0-2.8,2.2-5,5-5s5,2.2,5,5v0.1C233.5,260.3,231.3,262.5,228.5,262.5z"/>
</g>
<g>
	<g>
		<g>
			<g>
				<path class="st2" d="M312.2,417.5H157.7c-2.8,0-5,2.2-5,5s2.2,5,5,5h154.5c2.8,0,5-2.2,5-5S315,417.5,312.2,417.5z"/>
			</g>
			<g>
				<path class="st2" d="M194.1,398h-36.4c-2.8,0-5,2.2-5,5s2.2,5,5,5h36.4c2.8,0,5-2.2,5-5S196.9,398,194.1,398z"/>
			</g>
			<g>
				<path class="st2" d="M218.2,398h75.7c2.8,0,5,2.2,5,5s-2.2,5-5,5H218c-2.9,0-5.3-2.5-5-5.5C213.2,399.9,215.6,398,218.2,398
					L218.2,398z"/>
			</g>
		</g>
	</g>
	<g>
		<circle class="st2" cx="175.7" cy="378.5" r="5"/>
		<circle class="st2" cx="159.4" cy="378.5" r="5"/>
	</g>
</g>
<g>
	<g>
		<g>
			<path class="st2" d="M97.6,276.7c2.8,0,5-2.2,5-5V45.6c0-2.4,2-4.4,4.4-4.4h186.7c2.8,0,5-2.2,5-5s-2.2-5-5-5H107
				c-7.9,0-14.4,6.5-14.4,14.4v226.1C92.6,274.5,94.8,276.7,97.6,276.7z"/>
			<path class="st2" d="M457.6,399.9l-80.3-80.3v-274c0-7.9-6.5-14.4-14.4-14.4h-38.6c-2.8,0-5,2.2-5,5s2.2,5,5,5h38.6
				c2.4,0,4.4,2,4.4,4.4v267.6c-0.8-0.1-1.6-0.2-2.4-0.2c-1.7,0-3.4,0.3-5,0.9l-34.4-34.4c31.6-43.7,27.7-105.3-11.7-144.7
				c-43.7-43.7-114.7-43.7-158.4,0c-21.1,21.1-32.8,49.2-32.8,79.2s11.6,58.1,32.8,79.2c21.8,21.8,50.5,32.8,79.2,32.8
				c23,0,46-7,65.5-21.1l34.4,34.4c-0.6,1.6-0.9,3.3-0.9,5c0,3.7,1.4,7.2,4.1,9.8l29.7,29.7v67.6c0,2.4-2,4.4-4.4,4.4H107
				c-2.4,0-4.4-2-4.4-4.4v-43c23.7-2.5,42.3-22.6,42.3-47s-18.5-44.5-42.3-47v-12.1c0-2.8-2.2-5-5-5s-5,2.2-5,5v12.1
				c-23.7,2.5-42.3,22.6-42.3,47s18.5,44.5,42.3,47v43c0,7.9,6.5,14.4,14.4,14.4h255.9c7.9,0,14.4-6.5,14.4-14.4v-57.6l43.2,43.2
				c2.6,2.6,6.1,4.1,9.8,4.1c3.7,0,7.2-1.4,9.8-4.1l17.5-17.5C463,414.1,463,405.3,457.6,399.9L457.6,399.9z M60.3,361.4
				c0-20.5,16.7-37.3,37.3-37.3c20.5,0,37.3,16.7,37.3,37.3s-16.7,37.3-37.3,37.3C77.1,398.7,60.3,382,60.3,361.4z M162.5,286.2
				c-19.2-19.2-29.8-44.8-29.8-72.1s10.6-52.9,29.8-72.1c19.9-19.9,46-29.8,72.1-29.8s52.2,9.9,72.1,29.8
				c39.8,39.8,39.8,104.5,0,144.2C267,325.9,202.3,325.9,162.5,286.2z M313.9,293.2c1.9-1.9,3.7-3.8,5.4-5.8l32.7,32.7l-11.3,11.3
				L308,298.7C310,296.9,312,295.1,313.9,293.2L313.9,293.2z M450.5,412.4L433,429.9c-1.5,1.5-4,1.4-5.4,0L344.7,347
				c-0.7-0.7-1.1-1.7-1.1-2.7s0.4-2,1.1-2.7l17.5-17.5c0.7-0.7,1.7-1.1,2.7-1.1s2,0.4,2.7,1.1l82.9,82.9
				C452,408.5,452,410.9,450.5,412.4L450.5,412.4z"/>
		</g>
		<path class="st2" d="M114.2,355.6c0-9.2-7.5-16.6-16.6-16.6S81,346.4,81,355.6c0,4.5,1.8,8.6,4.8,11.6c-2.9,3-4.8,7.1-4.8,11.6
			c0,2.8,2.2,5,5,5s5-2.2,5-5c0-3.6,3-6.6,6.6-6.6s6.6,3,6.6,6.6c0,2.8,2.2,5,5,5s5-2.2,5-5c0-4.5-1.8-8.6-4.8-11.6
			C112.4,364.2,114.2,360.1,114.2,355.6z M97.6,349c3.6,0,6.6,3,6.6,6.6s-3,6.6-6.6,6.6s-6.6-3-6.6-6.6S94,349,97.6,349z"/>
	</g>
</g>
<path class="st2" d="M138,344.5h203.2v10H138L138,344.5z"/>
</svg>
