<?xml version="1.0" encoding="utf-8"?>
<!-- Generator: Adobe Illustrator 23.0.1, SVG Export Plug-In . SVG Version: 6.00 Build 0)  -->
<svg version="1.1" id="Capa_1" xmlns="http://www.w3.org/2000/svg" xmlns:xlink="http://www.w3.org/1999/xlink" x="0px" y="0px" height="15px"  width="15px" fill="#8198e9"
	 viewBox="0 0 15 15" style="enable-background:new 0 0 15 15;" xml:space="preserve">
<style type="text/css">
	.st0{fill:#8198E9;}
</style>
<g>
	<g>
		<path class="st0" d="M1.1,15c-0.6,0-1-0.5-1-1c0-4.1,2.7-6.4,7.4-6.4s7.4,2.3,7.4,6.4c0,0.6-0.5,1-1,1H1.1z M12.8,12.9
			c-0.4-2.2-2.1-3.3-5.3-3.3s-4.9,1.1-5.3,3.3H12.8z"/>
		<path class="st0" d="M7.5,8C3,8,0.6,10.1,0.6,13.9c0,0.3,0.2,0.5,0.5,0.5h12.8c0.3,0,0.5-0.2,0.5-0.5C14.4,10.1,12,8,7.5,8z
			 M1.7,13.4c0.2-2.9,2.2-4.3,5.8-4.3s5.6,1.5,5.8,4.3H1.7z"/>
	</g>
</g>
<g>
	<g>
		<path class="st0" d="M7.3,6.6c-1.9,0-3.4-1.5-3.4-3.3c0-1.8,1.5-3.1,3.4-3.1s3.4,1.3,3.4,3.1C10.7,5.1,9.1,6.6,7.3,6.6z M7.3,1.7
			c-1,0-1.7,0.6-1.7,1.6c0,1,0.8,1.7,1.7,1.7s1.7-0.8,1.7-1.7C8.9,2.4,8.2,1.7,7.3,1.7z"/>
		<path class="st0" d="M7.3,0.6c-1.7,0-3,1.2-3,2.8c0,1.6,1.4,2.9,3,2.9s3-1.3,3-2.9C10.3,1.7,9,0.6,7.3,0.6z M7.3,5.4
			c-1.2,0-2.1-0.9-2.1-2.1c0-1.1,0.9-1.9,2.1-1.9c1.2,0,2.1,0.8,2.1,1.9C9.4,4.5,8.4,5.4,7.3,5.4z"/>
	</g>
</g>
</svg>
