<svg id="Icons" viewBox="0 0 74 74"  height="100px"  width="100px" fill="#8198E9" xmlns="http://www.w3.org/2000/svg"><path d="m41.1 72h-8.2a2 2 0 0 1 -1.968-1.647l-.832-4.664a29.308 29.308 0 0 1 -8.51-3.514l-3.885 2.7a2 2 0 0 1 -2.556-.228l-5.794-5.795a2 2 0 0 1 -.228-2.552l2.705-3.889a29.291 29.291 0 0 1 -3.532-8.511l-4.657-.837a2 2 0 0 1 -1.643-1.963v-8.2a2 2 0 0 1 1.647-1.968l4.664-.832a29.308 29.308 0 0 1 3.514-8.51l-2.698-3.89a2 2 0 0 1 .228-2.556l5.793-5.793a2 2 0 0 1 2.552-.224l3.889 2.705a29.291 29.291 0 0 1 8.511-3.532l.837-4.657a2 2 0 0 1 1.963-1.643h8.2a2 2 0 0 1 1.968 1.647l.832 4.664a29.308 29.308 0 0 1 8.51 3.514l3.885-2.7a2 2 0 0 1 2.556.228l5.793 5.793a2 2 0 0 1 .228 2.556l-2.705 3.889a29.291 29.291 0 0 1 3.533 8.509l4.657.837a2 2 0 0 1 1.643 1.963v8.2a2 2 0 0 1 -1.647 1.968l-4.664.834a29.308 29.308 0 0 1 -3.514 8.51l2.7 3.885a2 2 0 0 1 -.228 2.556l-5.793 5.793a2 2 0 0 1 -2.556.228l-3.889-2.705a29.291 29.291 0 0 1 -8.509 3.531l-.837 4.657a2 2 0 0 1 -1.963 1.643zm-19.517-11.827a2.008 2.008 0 0 1 1.048.3 27.522 27.522 0 0 0 7.931 3.283 2 2 0 0 1 1.5 1.586l.838 4.658h8.2l.834-4.663a2 2 0 0 1 1.505-1.586 27.522 27.522 0 0 0 7.931-3.283 2 2 0 0 1 2.18.058l3.889 2.7 5.792-5.793-2.7-3.889a2 2 0 0 1 -.059-2.18 27.522 27.522 0 0 0 3.283-7.931 2 2 0 0 1 1.586-1.505l4.659-.828v-8.2l-4.664-.835a2 2 0 0 1 -1.585-1.506 27.528 27.528 0 0 0 -3.283-7.93 2 2 0 0 1 .058-2.18l2.7-3.889-5.788-5.79-3.889 2.7a1.994 1.994 0 0 1 -2.18.059 27.522 27.522 0 0 0 -7.931-3.283 2 2 0 0 1 -1.505-1.586l-.833-4.66h-8.2l-.834 4.663a2 2 0 0 1 -1.5 1.586 27.522 27.522 0 0 0 -7.931 3.283 2 2 0 0 1 -2.18-.058l-3.889-2.7-5.796 5.788 2.7 3.889a2 2 0 0 1 .059 2.18 27.522 27.522 0 0 0 -3.283 7.931 2 2 0 0 1 -1.586 1.5l-4.66.838v8.2l4.664.834a2 2 0 0 1 1.585 1.506 27.528 27.528 0 0 0 3.283 7.93 2 2 0 0 1 -.058 2.18l-2.7 3.889 5.793 5.792 3.889-2.7a1.979 1.979 0 0 1 1.127-.358z"/><path d="m54.471 27.6a1 1 0 0 1 -.866-.5 17.93 17.93 0 0 0 -1.657-2.377 1 1 0 1 1 1.545-1.27 19.845 19.845 0 0 1 1.842 2.647 1 1 0 0 1 -.864 1.5z"/><path d="m37 58.34a21.336 21.336 0 0 1 -.283-42.67.986.986 0 0 1 1.013.987 1 1 0 0 1 -.987 1.013 19.4 19.4 0 0 0 -19.083 19.33 19.333 19.333 0 0 0 35.484 10.632 19.118 19.118 0 0 0 3.196-10.632 19.7 19.7 0 0 0 -.19-2.712 1 1 0 0 1 1.98-.276 21.506 21.506 0 0 1 .21 2.988 21.367 21.367 0 0 1 -21.34 21.34z"/><path d="m47.409 20.53a1 1 0 0 1 -.516-.144 18.367 18.367 0 0 0 -2.551-1.28 1 1 0 1 1 .757-1.852 20.475 20.475 0 0 1 2.828 1.42 1 1 0 0 1 -.518 1.856z"/><path d="m53.981 49.18a1 1 0 0 1 -.838-.453 19.294 19.294 0 0 0 -32.286 0 1 1 0 1 1 -1.674-1.093 21.292 21.292 0 0 1 35.634 0 1 1 0 0 1 -.836 1.546z"/><path d="m37 40a8.051 8.051 0 1 1 8.051-8.051 8.06 8.06 0 0 1 -8.051 8.051zm0-14.1a6.051 6.051 0 1 0 6.051 6.05 6.058 6.058 0 0 0 -6.051-6.05z"/></svg>