<?xml version="1.0" encoding="utf-8"?>
<!-- Generator: Adobe Illustrator 23.0.1, SVG Export Plug-In . SVG Version: 6.00 Build 0)  -->
<svg version="1.1" id="Capa_1" xmlns="http://www.w3.org/2000/svg" xmlns:xlink="http://www.w3.org/1999/xlink" x="0px" y="0px" height="15px"  width="15px"
	 viewBox="0 0 15 15" style="enable-background:new 0 0 15 15;" xml:space="preserve">
<style type="text/css">
	.st0{fill:#8198E9;}
</style>
<g>
	<g>
		<path class="st0" d="M1.7,13.2c-0.9,0-1.7-0.8-1.7-1.7V3.2c0-0.9,0.8-1.7,1.7-1.7h11.6c0.9,0,1.7,0.8,1.7,1.7v8.2
			c0,0.9-0.8,1.7-1.7,1.7H1.7z M12,11.4L9.2,8.6l-1,1C8,9.8,7.8,9.9,7.5,9.9c-0.2,0-0.5-0.1-0.6-0.3L5.8,8.6L3,11.4H12z M13.2,10.2
			V4.5l-2.8,2.8L13.2,10.2z M1.8,10.2l2.8-2.8L1.8,4.5V10.2z M7.5,7.8L12,3.3H3L7.5,7.8z"/>
		<path class="st0" d="M13.3,2H1.7C1,2,0.5,2.6,0.5,3.2v8.2c0,0.7,0.6,1.2,1.2,1.2h11.6c0.7,0,1.2-0.6,1.2-1.2V3.2
			C14.5,2.6,14,2,13.3,2z M13.1,2.8L7.5,8.4L1.9,2.8H13.1z M1.3,11.3V3.4l4,3.9L1.3,11.3z M1.9,11.9l4-4l1.4,1.4
			c0.2,0.2,0.4,0.2,0.6,0l1.4-1.4l3.9,3.9H1.9z M13.7,11.3L9.8,7.4l3.9-3.9V11.3z"/>
	</g>
</g>
</svg>
