<?xml version="1.0" encoding="utf-8"?>
<!-- Generator: Adobe Illustrator 23.0.1, SVG Export Plug-In . SVG Version: 6.00 Build 0)  -->
<svg version="1.1" id="Layer_1" xmlns="http://www.w3.org/2000/svg" xmlns:xlink="http://www.w3.org/1999/xlink" x="0px" y="0px" height="15px"  width="15px"
	 viewBox="0 0 15 15" style="enable-background:new 0 0 15 15;" xml:space="preserve">
<style type="text/css">
	.st0{fill:#8198E9;}
</style>
<path class="st0" d="M8.7,14.9v-0.2c-0.5-0.2-0.8-0.7-0.8-1.2v-2.8H7.2v2.8c0,0.7-0.6,1.3-1.3,1.3h-2c-1.3,0-2.3-1-2.3-2.3V9.4
	C1.2,9.3,0.9,9.1,0.7,8.9C0.3,8.5,0.1,8,0.1,7.4c0-0.6,0.2-1.1,0.6-1.5l5.4-5.4l0.1,0C6.5,0.3,7,0.1,7.5,0.1c0.6,0,1.1,0.2,1.4,0.6
	L14.3,6c0.8,0.8,0.8,2.1,0,3c-0.3,0.3-0.5,0.4-0.8,0.5v3.1c0,1.3-1,2.3-2.3,2.3H8.7z M11,12.3v-4c0-0.6,0.3-1,0.8-1.2L7.5,2.8
	L3.3,7.1c0.5,0.2,0.8,0.7,0.8,1.2v4h0.5v-1.8c0-1.3,1-2.3,2.3-2.3h1.2c1.3,0,2.3,1,2.3,2.3v1.8H11z"/>
</svg>
