<?xml version="1.0" encoding="utf-8"?>
<!-- Generator: Adobe Illustrator 23.0.1, SVG Export Plug-In . SVG Version: 6.00 Build 0)  -->
<svg version="1.1" id="Capa_1" xmlns="http://www.w3.org/2000/svg" xmlns:xlink="http://www.w3.org/1999/xlink" x="0px" y="0px" height="15px"  width="15px" fill="#8198e9"
	 viewBox="0 0 15 15" style="enable-background:new 0 0 15 15;" xml:space="preserve">
<style type="text/css">
	
</style>
<g>
	<g>
		<path class="st0" d="M11,14.7c-0.3,0-0.6-0.1-0.9-0.2l-2.5-1.1l-2.7,1.1c-0.2,0.1-0.5,0.2-0.7,0.2c-0.7,0-1.4-0.4-1.7-1.1l0-0.1
			c-0.1-0.1-0.1-0.3-0.1-0.4c0-0.1,0-0.3,0-0.4l0.3-3L0.5,7.5C0.2,7.1,0,6.6,0,6.1s0.3-1,0.7-1.3c0.2-0.2,0.5-0.3,0.8-0.4l0.1,0
			l0.1,0l2.7-0.6l1.5-2.5c0.4-0.6,1-0.9,1.6-0.9c0.3,0,0.7,0.1,1,0.3C8.8,0.7,9,1,9.2,1.2l1.5,2.5l2.8,0.7c1,0.2,1.7,1.3,1.4,2.3
			c-0.1,0.3-0.2,0.6-0.5,0.9l-1.9,2.1l0.3,2.9c0.1,1.1-0.7,2-1.8,2.1C11.1,14.7,11,14.7,11,14.7z M3.8,13c0,0.1,0.1,0.1,0.3,0.1
			c0,0,0.1,0,0.1,0l3-1.3c0.1,0,0.2-0.1,0.3-0.1s0.2,0,0.3,0.1l3,1.3c0,0,0.1,0,0.1,0c0.2,0,0.3-0.2,0.3-0.3L11,9.5
			c0-0.2,0.1-0.4,0.2-0.6l2.1-2.4l0.5,0.1l-0.4-0.2c0-0.1,0-0.2,0-0.2c0-0.1-0.1-0.1-0.2-0.2L10,5.2C9.8,5.2,9.6,5,9.5,4.8L7.8,2.1
			C7.7,1.9,7.6,1.9,7.5,1.9c-0.1,0-0.1,0-0.2,0C7.3,2,7.3,2,7.2,2L5.6,4.8C5.5,5,5.3,5.2,5.1,5.2L1.8,5.9C1.7,6,1.6,6.2,1.6,6.3
			c0,0,0,0.1,0.1,0.1l2.1,2.4C4,9,4.1,9.3,4,9.5l-0.3,3.2l-0.5,0.2l0.5-0.1L3.8,13z"/>
		<path class="st0" d="M13.8,4.6l-3.2-0.7L8.9,1.1l0,0C8.7,0.8,8.5,0.6,8.3,0.5C7.6,0.1,6.6,0.3,6.2,1L4.5,3.9L1.2,4.6h0l0,0
			C0.9,4.7,0.7,4.8,0.5,5c-0.6,0.6-0.7,1.5-0.2,2.2l2.2,2.5L2.3,13c0,0,0,0,0,0.1c0,0.1,0,0.2,0,0.3c0,0.1,0.1,0.2,0.1,0.4
			c0,0,0,0,0,0c0.3,0.8,1.2,1.2,2,0.8l3.1-1.3l2.9,1.2c0.3,0.1,0.6,0.2,0.9,0.2c0.9-0.1,1.5-0.8,1.4-1.7v0l-0.3-3.3l2.1-2.5
			C14.8,7,14.9,6.8,15,6.5C15.2,5.7,14.6,4.8,13.8,4.6z M14.2,6.6c0,0.1-0.1,0.1-0.1,0.2l0,0l-2.2,2.6c-0.1,0.1-0.1,0.2-0.1,0.3
			l0.3,3.5c0,0,0,0,0,0c0,0.5-0.3,0.9-0.8,0.9h0c-0.2,0-0.3,0-0.5-0.1c0,0,0,0-0.1,0l-3.1-1.3c-0.1,0-0.2,0-0.3,0l-3.2,1.3
			c0,0,0,0-0.1,0c-0.4,0.2-0.9,0-1.1-0.4c0,0,0,0,0,0c0-0.1,0-0.1,0-0.2c0-0.1,0-0.1,0-0.2c0,0,0,0,0-0.1l0.3-3.4
			c0-0.1,0-0.2-0.1-0.3L0.9,6.7C0.8,6.6,0.8,6.5,0.7,6.3c-0.1-0.5,0.2-0.9,0.6-1h0l3.4-0.8C4.9,4.5,5,4.5,5,4.4l1.8-3
			C6.9,1.3,7,1.2,7.1,1.1C7.5,0.9,8,1,8.2,1.4l0,0l1.8,3v0c0.1,0.1,0.1,0.1,0.2,0.2l3.4,0.8c0.1,0,0.1,0,0.2,0.1
			C14.2,5.6,14.4,6.2,14.2,6.6z"/>
	</g>
</g>
</svg>
