<?xml version="1.0" encoding="utf-8"?>
<!-- Generator: Adobe Illustrator 23.0.1, SVG Export Plug-In . SVG Version: 6.00 Build 0)  -->
<svg version="1.1" id="Capa_1" xmlns="http://www.w3.org/2000/svg" xmlns:xlink="http://www.w3.org/1999/xlink" x="0px" y="0px"
	 viewBox="0 0 15 15" style="enable-background:new 0 0 15 15;" xml:space="preserve">
<style type="text/css">
	.st0{fill:#8198E9;}
</style>
<path class="st0" d="M14.5,13.7L11,9.9c0.9-1.1,1.4-2.5,1.4-3.9C12.4,2.7,9.7,0,6.3,0S0.3,2.7,0.3,6.1s2.7,6.1,6.1,6.1
	c1.3,0,2.4-0.4,3.5-1.1l3.6,3.7c0.2,0.2,0.4,0.2,0.6,0.2c0.2,0,0.4-0.1,0.5-0.2C14.8,14.5,14.8,14,14.5,13.7z M6.3,1.6
	c2.5,0,4.5,2,4.5,4.5s-2,4.5-4.5,4.5s-4.5-2-4.5-4.5S3.8,1.6,6.3,1.6z"/>
</svg>
