<?xml version="1.0" encoding="utf-8"?>
<!-- Generator: Adobe Illustrator 23.0.1, SVG Export Plug-In . SVG Version: 6.00 Build 0)  -->
<svg version="1.1" id="Layer_1" xmlns="http://www.w3.org/2000/svg" xmlns:xlink="http://www.w3.org/1999/xlink" x="0px" y="0px"
	 viewBox="0 0 560 288" style="enable-background:new 0 0 560 288;" xml:space="preserve">
<style type="text/css">
	.st0{fill:url(#SVGID_1_);}
	.st1{fill:#C68FDB;}
	.st2{display:none;fill:#C68FDB;}
	.st3{fill:url(#SVGID_2_);}
	.st4{fill:url(#SVGID_3_);}
	.st5{fill:url(#SVGID_4_);}
	.st6{fill:#CAB6D8;}
	.st7{fill:url(#SVGID_5_);}
	.st8{fill:url(#SVGID_6_);}
	.st9{fill:url(#SVGID_7_);}
	.st10{fill:url(#SVGID_8_);}
	.st11{fill:url(#SVGID_9_);}
	.st12{fill:url(#SVGID_10_);}
	.st13{fill:url(#SVGID_11_);}
	.st14{fill:url(#SVGID_12_);}
	.st15{fill:url(#SVGID_13_);}
	.st16{fill:url(#SVGID_14_);}
	.st17{fill:#E7D8E2;}
	.st18{display:none;}
	.st19{fill:none;}
	.st20{fill:url(#SVGID_15_);}
	.st21{fill:url(#SVGID_16_);}
	.st22{fill:url(#SVGID_17_);}
	.st23{fill:url(#SVGID_18_);}
	.st24{fill:url(#SVGID_19_);}
	.st25{fill:url(#SVGID_20_);}
	.st26{fill:url(#SVGID_21_);}
	.st27{fill:url(#SVGID_22_);}
	.st28{fill:url(#SVGID_23_);stroke:url(#SVGID_24_);stroke-miterlimit:10;}
</style>
<g>
	<g id="Layer_6_1_">
		
			<linearGradient id="SVGID_1_" gradientUnits="userSpaceOnUse" x1="-5.9359" y1="287.1331" x2="323.915" y2="29.0773" gradientTransform="matrix(1 0 0 -1 0 288)">
			<stop  offset="0" style="stop-color:#83318D"/>
			<stop  offset="7.133674e-02" style="stop-color:#893994"/>
			<stop  offset="0.1839" style="stop-color:#9950A7"/>
			<stop  offset="0.3229" style="stop-color:#B375C5"/>
			<stop  offset="0.4088" style="stop-color:#C68FDB"/>
		</linearGradient>
		<path class="st0" d="M311.7,19.4c-0.6-14.2,11-26.5,24.4-29.1c-0.1-0.2-0.1-0.5-0.2-0.8C314.8-93.9,87.9-168-21-71
			C-137.3,32.6-68.8,287.3,17.3,312.7c23.4,6.9,49.6-2.7,75.8-20.8c1.8-1.3,3.7-2.8,5.6-4.3c-0.5-1.5-0.9-3.1-0.9-4.8
			c-0.4-8.2,7.3-15.2,15.3-15.2c1.9,0,3.7,0.4,5.4,1c-2-2.9-3.3-6.5-3.4-10.2c-0.4-9.7,8.6-18,18-18c1.5,0,3,0.2,4.4,0.6
			c0-0.1,0.1-0.2,0.1-0.3c-5.1-3.2-8.4-8.9-8.7-15.3c-0.4-8.3,6.2-15.5,13.9-17.4v-0.1c-7.7-0.2-8.6-10.8-2.6-13.4
			c-0.2-0.6-0.4-1.3-0.6-1.9c-0.3,0-0.5-0.1-0.8-0.2c-0.9,0.2-1.8,0.3-2.7,0.3c-10.8,0-13.3-12.8-7.6-18.9c-9-1-11.6-11.3-7.7-17.6
			c-0.2-0.3-0.4-0.5-0.5-0.8c-0.3,0.1-0.6,0.1-0.9,0.1c-4,0-5.2-4.4-3.5-7c-15.6-23.8-16.9-30.8-14.9-32.6c2.1-1.9,7.6,1.9,18.4,5.4
			c11.4,3.6,21.4,4.4,28.2,4.5c1.3-0.5,3.5-1.3,6.3-1.3c5.1,0,9.4,2.2,12.4,5.7c0.4,0.1,0.8,0.2,1.2,0.3c2.9-6.4,9.7-10.9,16.8-10.9
			c6.3,0,11.5,3.1,14.8,7.8c1.2,1.4,2.1,3,2.7,4.8c2.5-7,9.8-12.2,17.2-12.2s13.4,4.4,16.3,10.6c0.3-0.1,0.6-0.2,0.9-0.3
			c-1.5-5.9,1.7-13.1,9.6-13.1c3.8,0,6.5,1.7,8.1,4.1c-0.3-1.2-0.4-2.5-0.5-3.7c-0.4-9.4,6.6-17.7,15.3-20.5c2.1-1.2,4.5-1.8,7-1.8
			c3.5,0,6.7,1.3,9.2,3.4c1,0.5,1.9,1.1,2.7,1.8l0,0c-0.6-4.1,1.8-8.7,7.2-8.7c0.6,0,1.2,0.1,1.7,0.2c0.2-0.2,0.4-0.4,0.6-0.6
			c-4-7.6-0.4-19.3,10.7-19.3c1.8,0,3.3,0.3,4.7,0.8c0.3-0.4,0.5-0.7,0.8-1.1c-2.6-2.8-4.2-6.6-4.4-10.7
			c-0.4-8.5,7.5-15.7,15.7-15.7c0.9,0,1.7,0.1,2.5,0.2C318.1,40.1,312.2,30.3,311.7,19.4z"/>
		<g>
			<g>
				<path class="st1" d="M27.7,414.4c2.6,0,2.6-4,0-4C25.2,410.4,25.2,414.4,27.7,414.4L27.7,414.4z"/>
			</g>
		</g>
	</g>
	<g>
		<g id="_x31_ETnqA_1_">
			
				<image style="overflow:visible;enable-background:new    ;" width="561" height="307" id="_x31_ETnqA_2_" xlink:href="900216ABBB1E7484.jpg"  transform="matrix(0.6625 0 0 0.6048 175.228 -269.2982)">
			</image>
		</g>
	</g>
	<g id="Layer_18">
	</g>
	<g id="Layer_19">
	</g>
	<g id="Layer_5">
		<path class="st2" d="M319.1,2.1c4.5-5.2,10.8-8.9,17.5-10.2c-0.1-0.2-0.1-0.5-0.2-0.8c-21.2-83.4-248.1-157.4-357-60.5
			C-136.9,34.3-68.4,289,17.7,314.4c23.4,6.9,49.6-2.7,75.8-20.8c1.5-1.1,3-2.3,4.6-3.5c0.2-0.7,0.4-1.4,0.6-2.1
			c-0.3-1.1-0.5-2.3-0.5-3.5c-0.3-7.7,6.3-14.3,13.7-15.2c2.4-1.9,3.4-4.4,3.7-7.5c-0.1-0.6-0.1-1.2-0.2-1.8
			c-0.3-7.7,5.2-14.4,12.2-16.9c0.8-0.9,1.6-1.9,2.3-2.9c0.7-2.3,1-4.6,0.2-7.1c-0.2-0.5-0.2-1,0-1.4c-0.4-1.5-0.7-3.1-0.8-4.7
			c-0.3-7.5,4.9-14.1,11.7-16.7c0.1-0.4,0.1-0.9,0.1-1.2c-5-1.7-5.7-8.7-2.1-11.9c0-1.1-0.2-2.2-0.8-3c-0.5,0.1-1.1,0.1-1.7,0.1
			c-10.8,0-13.3-12.8-7.6-18.9c-9-1-11.6-11.3-7.7-17.6c-0.2-0.3-0.4-0.5-0.5-0.8c-0.3,0.1-0.6,0.1-0.9,0.1c-4,0-5.2-4.4-3.5-7
			C95.1,122,93,114.2,94.9,112.3c1-1,3-0.3,22.8,7.1c18,6.8,19,7.3,22.1,7.3c7.2-0.1,12.7-2.8,19.9,0.3c3.2,1.3,5.5,3.3,6.9,4.8
			c0.8,0.2,1.6,0.3,2.4,0.5l0.1-0.1c3.2-4.1,8.2-6.9,13.5-6.9c5.1,0,9.4,2.2,12.4,5.7c2.8,1.7,5.8,0.8,8.8-0.7
			c3.3-5.2,9.3-8.8,15.5-8.8c3.6,0,6.2,1.1,6.2,1.1c4.9,2.2,5.7,6.3,8,6c2.5-0.3,2-5.2,6.8-8.2c0.8-0.5,2.9-1.7,5.8-1.7
			c3.3,0,4.3,2.2,5.8,1.7c2.6-0.9,0.9-7.2,3.7-12.7c2.1-4.2,6.3-6.6,10.1-8.1c1.2-0.8,5-3.2,10.3-2.9c4.1,0.2,7,1.9,8.6,2.9
			c0.3-0.1,0.7-0.1,1-0.2c1.1-1.7,2.7-3.7,5.3-5c2.3-1.1,2.9-0.5,4.3-1.3c5.1-3,0.6-13.9,5.8-17.6c2.6-1.9,5,0.1,7.2-2.1
			c2.6-2.6,0.2-6.4,1.1-11c1.8-9,14-8.5,15.7-15.7c1.9-8.1-11.7-12.2-12.8-25.6C311.3,11.3,317.7,3.7,319.1,2.1z"/>
		<path class="st1" d="M518.3,254.4c22-12.7,11.7-44.4,28.3-53.6c28.7-15.9,114.2,48.3,104.2,81.2c-13.6,44.5-204.6,39.2-212.9,6
			c-2.2-8.8,8.1-20.9,16.9-26.7C476.8,246.8,498.2,266.1,518.3,254.4z"/>
	</g>
	<g id="Layer_27">
		
			<linearGradient id="SVGID_2_" gradientUnits="userSpaceOnUse" x1="452.9993" y1="26.1756" x2="667.0087" y2="26.1756" gradientTransform="matrix(1 0 0 -1 0 288)">
			<stop  offset="2.701015e-02" style="stop-color:#84318C"/>
			<stop  offset="0.9545" style="stop-color:#793097"/>
		</linearGradient>
		<path class="st3" d="M533.7,260c22-12.7,11.7-44.4,28.3-53.6c28.7-15.9,114.2,48.3,104.2,81.2c-13.6,44.5-204.6,39.2-212.9,6
			c-2.2-8.8,8.1-20.9,16.9-26.7C492.1,252.4,513.5,271.6,533.7,260z"/>
	</g>
	<g id="Layer_6">
		
			<linearGradient id="SVGID_3_" gradientUnits="userSpaceOnUse" x1="29.5361" y1="309.1131" x2="287.256" y2="-21.0441" gradientTransform="matrix(1 0 0 -1 0 288)">
			<stop  offset="2.701015e-02" style="stop-color:#84318C"/>
			<stop  offset="0.806" style="stop-color:#793097"/>
		</linearGradient>
		<path class="st4" d="M291.3,2.8c-0.6-14.2,11-26.5,24.4-29.1c-0.1-0.2-0.1-0.5-0.2-0.8c-21.1-83.4-248-157.5-356.9-60.5
			C-157.7,16-89.2,270.7-3.1,296.1c23.4,6.9,49.6-2.7,75.8-20.8c1.8-1.3,3.7-2.8,5.6-4.3c-0.5-1.5-0.9-3.1-0.9-4.8
			C77,258,84.7,251,92.7,251c1.9,0,3.7,0.4,5.4,1c-2-2.9-3.3-6.5-3.4-10.2c-0.4-9.7,8.6-18,18-18c1.5,0,3,0.2,4.4,0.6
			c0-0.1,0.1-0.2,0.1-0.3c-5.1-3.2-8.4-8.9-8.7-15.3c-0.4-8.3,6.2-15.5,13.9-17.4v-0.1c-7.7-0.2-8.6-10.8-2.6-13.4
			c-0.2-0.6-0.4-1.3-0.6-1.9c-0.3,0-0.5-0.1-0.8-0.2c-0.9,0.2-1.8,0.3-2.7,0.3c-10.8,0-13.3-12.8-7.6-18.9c-9-1-11.6-11.3-7.7-17.6
			c-0.2-0.3-0.4-0.5-0.5-0.8c-0.3,0.1-0.6,0.1-0.9,0.1c-4,0-5.2-4.4-3.5-7c-15.6-23.8-16.9-30.8-14.9-32.6c2.1-1.9,7.6,1.9,18.4,5.4
			c11.4,3.6,21.4,4.4,28.2,4.5c1.3-0.5,3.5-1.3,6.3-1.3c5.1,0,9.4,2.2,12.4,5.7c0.4,0.1,0.8,0.2,1.2,0.3c2.9-6.4,9.7-10.9,16.8-10.9
			c6.3,0,11.5,3.1,14.8,7.8c1.2,1.4,2.1,3,2.7,4.8c2.5-7,9.8-12.2,17.2-12.2s13.4,4.4,16.3,10.6c0.3-0.1,0.6-0.2,0.9-0.3
			c-1.5-5.9,1.7-13.1,9.6-13.1c3.8,0,6.5,1.7,8.1,4.1c-0.3-1.2-0.4-2.5-0.5-3.7c-0.4-9.4,6.6-17.7,15.3-20.5c2.1-1.2,4.5-1.8,7-1.8
			c3.5,0,6.7,1.3,9.2,3.4c1,0.5,1.9,1.1,2.7,1.8l0,0c-0.6-4.1,1.8-8.7,7.2-8.7c0.6,0,1.2,0.1,1.7,0.2c0.2-0.2,0.4-0.4,0.6-0.6
			c-4-7.6-0.4-19.3,10.7-19.3c1.8,0,3.3,0.3,4.7,0.8c0.3-0.4,0.5-0.7,0.8-1.1c-2.6-2.8-4.2-6.6-4.4-10.7
			c-0.4-8.5,7.5-15.7,15.7-15.7c0.9,0,1.7,0.1,2.5,0.2C297.7,23.5,291.8,13.7,291.3,2.8z"/>
		<g>
			<g>
				
					<linearGradient id="SVGID_4_" gradientUnits="userSpaceOnUse" x1="13.0812" y1="-108.1014" x2="15.5545" y2="-111.2699" gradientTransform="matrix(1 0 0 -1 0 288)">
					<stop  offset="2.701015e-02" style="stop-color:#84318C"/>
					<stop  offset="0.806" style="stop-color:#793097"/>
				</linearGradient>
				<path class="st5" d="M14.3,399.7c2.6,0,2.6-4,0-4C11.8,395.7,11.8,399.7,14.3,399.7L14.3,399.7z"/>
			</g>
		</g>
	</g>
	<g id="Layer_36">
	</g>
	<g id="Layer_20">
	</g>
	<g id="Layer_8">
		<g>
			<g>
				<path class="st6" d="M35.8,253.9c3.2,0,3.2-5,0-5S32.6,253.9,35.8,253.9L35.8,253.9z"/>
			</g>
		</g>
		<g>
			<g>
				<path class="st6" d="M61.1,159.7c14.2,0,14.2-22,0-22S46.9,159.7,61.1,159.7L61.1,159.7z"/>
			</g>
		</g>
		<g>
			<g>
				<path class="st6" d="M159.9,102.2c5.1,0,5.2-8,0-8S154.7,102.2,159.9,102.2L159.9,102.2z"/>
			</g>
		</g>
		<g>
			<g>
				<path class="st6" d="M184.4,99c12.9,0,12.9-20,0-20S171.5,99,184.4,99L184.4,99z"/>
			</g>
		</g>
		<g>
			<g>
				<path class="st6" d="M243.4,61.6c5.1,0,5.2-8,0-8S238.2,61.6,243.4,61.6L243.4,61.6z"/>
			</g>
		</g>
		<g>
			<g>
				<path class="st6" d="M254.9,35.9c15.4,0,15.5-24,0-24C239.4,11.9,239.4,35.9,254.9,35.9L254.9,35.9z"/>
			</g>
		</g>
		<g>
			<g>
				<path class="st6" d="M11.3,185c1.3,0,1.3-2,0-2S10,185,11.3,185L11.3,185z"/>
			</g>
		</g>
		<g>
			<g>
				<path class="st6" d="M127.7,66.2c1.3,0,1.3-2,0-2C126.4,64.2,126.4,66.2,127.7,66.2L127.7,66.2z"/>
			</g>
		</g>
		<g>
			<g>
				<path class="st6" d="M194.3,45.6c1.3,0,1.3-2,0-2C193.1,43.6,193.1,45.6,194.3,45.6L194.3,45.6z"/>
			</g>
		</g>
		<g>
			<g>
				<path class="st6" d="M204.3,18.7c1.3,0,1.3-2,0-2S203,18.7,204.3,18.7L204.3,18.7z"/>
			</g>
		</g>
		<g>
			<g>
				<path class="st6" d="M14.3,265.7c0.6,0,0.6-1,0-1S13.7,265.7,14.3,265.7L14.3,265.7z"/>
			</g>
		</g>
		<g>
			<g>
				<path class="st6" d="M31.2,91.8c0.6,0,0.6-1,0-1S30.6,91.8,31.2,91.8L31.2,91.8z"/>
			</g>
		</g>
		<g>
			<g>
				<path class="st6" d="M148.4,21.8c1.3,0,1.3-2,0-2C147.1,19.8,147.1,21.8,148.4,21.8L148.4,21.8z"/>
			</g>
		</g>
	</g>
	<g id="Layer_7">
		
			<linearGradient id="SVGID_5_" gradientUnits="userSpaceOnUse" x1="37.8594" y1="108.2262" x2="78.7825" y2="69.0087" gradientTransform="matrix(1 0 0 -1 0 288)">
			<stop  offset="2.701015e-02" style="stop-color:#815494"/>
			<stop  offset="0.9545" style="stop-color:#782F94"/>
		</linearGradient>
		<circle class="st7" cx="52.6" cy="193.9" r="28.3"/>
	</g>
	<g id="Layer_3">
	</g>
	<g id="Layer_9">
		
			<linearGradient id="SVGID_6_" gradientUnits="userSpaceOnUse" x1="0.1164" y1="269.4684" x2="57.222" y2="233.6506" gradientTransform="matrix(1 0 0 -1 0 288)">
			<stop  offset="8.322976e-02" style="stop-color:#AF2995"/>
			<stop  offset="0.9545" style="stop-color:#793097"/>
		</linearGradient>
		<circle class="st8" cx="24.3" cy="33.7" r="33.7"/>
	</g>
	<g id="Layer_10">
		
			<linearGradient id="SVGID_7_" gradientUnits="userSpaceOnUse" x1="95.2218" y1="47.6361" x2="108.1002" y2="39.5584" gradientTransform="matrix(1 0 0 -1 0 288)">
			<stop  offset="8.322976e-02" style="stop-color:#AF2995"/>
			<stop  offset="0.9545" style="stop-color:#793097"/>
		</linearGradient>
		<circle class="st9" cx="100.7" cy="243.8" r="7.6"/>
	</g>
	<g id="Layer_30">
	</g>
	<g id="Layer_11">
		<g>
			<g>
				
					<linearGradient id="SVGID_8_" gradientUnits="userSpaceOnUse" x1="176.85" y1="160.2" x2="190.3737" y2="160.2" gradientTransform="matrix(1 0 0 -1 0 288)">
					<stop  offset="8.322976e-02" style="stop-color:#AF2995"/>
					<stop  offset="0.9545" style="stop-color:#793097"/>
				</linearGradient>
				<path class="st10" d="M183.6,134.8c9,0,9-14,0-14S174.6,134.8,183.6,134.8L183.6,134.8z"/>
			</g>
		</g>
		<g>
			<g>
				
					<linearGradient id="SVGID_9_" gradientUnits="userSpaceOnUse" x1="332.8849" y1="252.1" x2="362.9151" y2="252.1" gradientTransform="matrix(1 0 0 -1 0 288)">
					<stop  offset="8.322976e-02" style="stop-color:#AF2995"/>
					<stop  offset="0.9545" style="stop-color:#793097"/>
				</linearGradient>
				<path class="st11" d="M347.9,50.9c7.8,0,15.4-6.9,15-15s-6.6-15-15-15c-7.8,0-15.4,6.9-15,15S339.5,50.9,347.9,50.9L347.9,50.9z
					"/>
			</g>
		</g>
	</g>
	<g id="Layer_12">
	</g>
	<g id="Layer_22">
		
			<linearGradient id="SVGID_10_" gradientUnits="userSpaceOnUse" x1="60.5948" y1="209.5625" x2="113.7085" y2="146.3296" gradientTransform="matrix(1 0 0 -1 0 288)">
			<stop  offset="0" style="stop-color:#AD75D1"/>
			<stop  offset="0.1135" style="stop-color:#9F60BD"/>
			<stop  offset="0.2662" style="stop-color:#914BA9"/>
			<stop  offset="0.4374" style="stop-color:#883C9B"/>
			<stop  offset="0.6401" style="stop-color:#823493"/>
			<stop  offset="0.9545" style="stop-color:#803190"/>
		</linearGradient>
		<path class="st12" d="M73.5,139.2c-4.2-6.1-45.6-67.3-34.1-79.4c12.4-13,79.3,37.4,77.5,41c-1.3,2.6-38.3-22.1-50.2-10.4
			C58.3,98.7,65.9,121.4,73.5,139.2z"/>
	</g>
	<g id="Layer_21">
		
			<linearGradient id="SVGID_11_" gradientUnits="userSpaceOnUse" x1="63.3311" y1="207.626" x2="110.8912" y2="151.0046" gradientTransform="matrix(1 0 0 -1 0 288)">
			<stop  offset="0" style="stop-color:#895DA2"/>
			<stop  offset="0.1562" style="stop-color:#854B9B"/>
			<stop  offset="0.3542" style="stop-color:#823C95"/>
			<stop  offset="0.5896" style="stop-color:#813491"/>
			<stop  offset="0.9545" style="stop-color:#803190"/>
		</linearGradient>
		<path class="st13" d="M74.8,134.8C71,129.4,33.6,74.8,44,64c11.2-11.6,71.7,33.3,70,36.6c-1.2,2.4-34.6-19.8-45.4-9.2
			C61.1,98.7,68,119,74.8,134.8z"/>
	</g>
	<g id="Layer_15">
		
			<linearGradient id="SVGID_12_" gradientUnits="userSpaceOnUse" x1="74.7735" y1="199.2" x2="93.6222" y2="199.2" gradientTransform="matrix(1 0 0 -1 0 288)">
			<stop  offset="0" style="stop-color:#BE1C90"/>
			<stop  offset="1" style="stop-color:#803190"/>
		</linearGradient>
		<path class="st14" d="M76.7,87.4c0.1,0.1,0.2,0.1,0.3,0.2c1.5,1.7,2.5,3.6,3.3,5.6c0.3-0.8,1.3-2.9,3.6-4.1c3-1.5,6.9-0.8,9.8,1.9
			c-2.6-2.2-7.2-5.3-13.5-6.3c-1.5-0.2-3-0.3-4.3-0.3c-0.3,0.3-0.7,0.7-1,1c0.4,0.2,0.7,0.4,1,0.8C76.1,86.6,76.4,87,76.7,87.4z"/>
		
			<linearGradient id="SVGID_13_" gradientUnits="userSpaceOnUse" x1="61.4688" y1="192.5403" x2="72.3094" y2="178.7817" gradientTransform="matrix(0.8289 -0.5594 0.5594 0.8289 -91.2111 -10.1994)">
			<stop  offset="0" style="stop-color:#BE1C90"/>
			<stop  offset="1" style="stop-color:#803190"/>
		</linearGradient>
		<path class="st15" d="M72.7,103.3c-1.9-1-3.8-2.2-5.3-3.7c-0.1-0.1-0.1-0.2-0.2-0.3c-0.4-0.3-0.7-0.7-1.1-1
			c-0.3-0.3-0.5-0.7-0.7-1.1c-0.4,0.3-0.7,0.6-1.1,1c-0.1,1.3-0.1,2.8,0,4.3c0.4,5.4,2.5,9.7,4.3,12.5c-1.6-2.8-1.7-6.1-0.2-8.5
			C69.7,104.4,71.8,103.6,72.7,103.3z"/>
		
			<linearGradient id="SVGID_14_" gradientUnits="userSpaceOnUse" x1="63.9627" y1="193.4892" x2="63.9926" y2="193.4892" gradientTransform="matrix(0.8289 -0.5594 0.5594 0.8289 -91.2111 -10.1994)">
			<stop  offset="0" style="stop-color:#BE1C90"/>
			<stop  offset="1" style="stop-color:#803190"/>
		</linearGradient>
		<path class="st16" d="M69.6,113.7c0.3,0.5,0.6,0.9,0.9,1.4C70.3,114.7,69.9,114.2,69.6,113.7z"/>
	</g>
	<g id="Layer_13">
		<path class="st17" d="M74.1,104.1c3-3,5.9-5.9,8.9-8.9c-1.4-4.7-5.1-10.5-10.4-15.8c-9.2-9.2-19.9-13.5-23.8-9.6
			s0.3,14.6,9.6,23.8c3.6,3.6,7.8,6.5,7.8,6.5C69.2,102.1,72,103.3,74.1,104.1z"/>
		<g>
			<g>
				<path class="st17" d="M65.2,89.3c5.1,0,5.2-8,0-8S60,89.3,65.2,89.3L65.2,89.3z"/>
			</g>
		</g>
		<g>
			<g>
				<path class="st17" d="M65,89.3c5.1,0,5.2-8,0-8C59.9,81.3,59.9,89.3,65,89.3L65,89.3z"/>
			</g>
		</g>
		<g>
			<g>
				<path class="st17" d="M64.6,89.2c5.1,0,5.2-8,0-8C59.5,81.2,59.5,89.2,64.6,89.2L64.6,89.2z"/>
			</g>
		</g>
		<g>
			<g>
				<path class="st17" d="M65,89.2c5.1,0,5.2-8,0-8C59.9,81.2,59.9,89.2,65,89.2L65,89.2z"/>
			</g>
		</g>
		<g>
			<g>
				<path class="st17" d="M65,89.2c5.1,0,5.2-8,0-8C59.9,81.2,59.9,89.2,65,89.2L65,89.2z"/>
			</g>
		</g>
		<path class="st17" d="M70,114"/>
	</g>
	<g id="Layer_29" class="st18">
	</g>
	<g id="Layer_28">
		<line class="st19" x1="68.4" y1="97.7" x2="74.8" y2="102.9"/>
	</g>
	<g id="Layer_14">
		
			<linearGradient id="SVGID_15_" gradientUnits="userSpaceOnUse" x1="46.9879" y1="211.7523" x2="63.9188" y2="211.7523" gradientTransform="matrix(1 0 0 -1 0 288)">
			<stop  offset="0" style="stop-color:#BE1C90"/>
			<stop  offset="1" style="stop-color:#803190"/>
		</linearGradient>
		<path class="st20" d="M47.2,68.4c-0.2,1.6-0.4,3.8,0,6.2c0.6,4.6,2.6,8,3.8,9.8c0.6-1.7,2.1-4.8,5.2-7.7c3-2.7,6-3.9,7.7-4.4
			c-1.6-1.2-4.6-3.1-8.8-3.9C51.8,67.9,49,68.1,47.2,68.4z"/>
		
			<linearGradient id="SVGID_16_" gradientUnits="userSpaceOnUse" x1="53" y1="209.2" x2="53" y2="209.2" gradientTransform="matrix(1 0 0 -1 0 288)">
			<stop  offset="0" style="stop-color:#BE1C90"/>
			<stop  offset="1" style="stop-color:#803190"/>
		</linearGradient>
		<path class="st21" d="M53,78.8"/>
	</g>
	<g id="Layer_4">
	</g>
	<g id="Layer_16">
	</g>
	<g id="Layer_23">
	</g>
	<g id="Layer_17">
		<g>
			
				<linearGradient id="SVGID_17_" gradientUnits="userSpaceOnUse" x1="65.2" y1="202.6" x2="65.2" y2="202.6" gradientTransform="matrix(1 0 0 -1 0 288)">
				<stop  offset="8.322976e-02" style="stop-color:#AF2995"/>
				<stop  offset="0.9545" style="stop-color:#793097"/>
			</linearGradient>
			<path class="st22" d="M65.2,85.4"/>
			<g>
				
					<linearGradient id="SVGID_18_" gradientUnits="userSpaceOnUse" x1="61.1751" y1="207.7562" x2="69.2134" y2="197.4585" gradientTransform="matrix(1 0 0 -1 0 288)">
					<stop  offset="2.701015e-02" style="stop-color:#84318C"/>
					<stop  offset="0.9545" style="stop-color:#793097"/>
				</linearGradient>
				<path class="st23" d="M65.2,91.9c8.4,0,8.4-13,0-13S56.8,91.9,65.2,91.9L65.2,91.9z"/>
			</g>
		</g>
	</g>
	<g id="Layer_24">
		<g>
			<g>
				
					<linearGradient id="SVGID_19_" gradientUnits="userSpaceOnUse" x1="15.4776" y1="148.5" x2="19.3415" y2="148.5" gradientTransform="matrix(1 0 0 -1 0 288)">
					<stop  offset="8.322976e-02" style="stop-color:#AF2995"/>
					<stop  offset="0.9545" style="stop-color:#793097"/>
				</linearGradient>
				<path class="st24" d="M17.4,141.5c2.6,0,2.6-4,0-4S14.8,141.5,17.4,141.5L17.4,141.5z"/>
			</g>
		</g>
		<g>
			<g>
				
					<linearGradient id="SVGID_20_" gradientUnits="userSpaceOnUse" x1="115.8178" y1="244.6" x2="119.6817" y2="244.6" gradientTransform="matrix(1 0 0 -1 0 288)">
					<stop  offset="8.322976e-02" style="stop-color:#AF2995"/>
					<stop  offset="0.9545" style="stop-color:#793097"/>
				</linearGradient>
				<path class="st25" d="M117.7,45.4c2.6,0,2.6-4,0-4C115.2,41.4,115.2,45.4,117.7,45.4L117.7,45.4z"/>
			</g>
		</g>
		<g>
			<g>
				
					<linearGradient id="SVGID_21_" gradientUnits="userSpaceOnUse" x1="199.2125" y1="226.2" x2="222.3875" y2="226.2" gradientTransform="matrix(1 0 0 -1 0 288)">
					<stop  offset="8.322976e-02" style="stop-color:#AF2995"/>
					<stop  offset="0.9545" style="stop-color:#793097"/>
				</linearGradient>
				<path class="st26" d="M210.8,73.8c15.4,0,15.5-24,0-24C195.4,49.8,195.3,73.8,210.8,73.8L210.8,73.8z"/>
			</g>
		</g>
	</g>
	<g id="Layer_25">
		<g>
			<g>
				<path class="st6" d="M33.5,120c1.9,0,1.9-3,0-3C31.6,117,31.6,120,33.5,120L33.5,120z"/>
			</g>
		</g>
		<g>
			<g>
				<path class="st6" d="M179,53.7c1.9,0,1.9-3,0-3S177.1,53.7,179,53.7L179,53.7z"/>
			</g>
		</g>
		<g>
			<g>
				<path class="st6" d="M107.8,215.2c9.7,0,9.7-15,0-15S98.1,215.2,107.8,215.2L107.8,215.2z"/>
			</g>
		</g>
		<g>
			<g>
				<path class="st6" d="M71.8,281.8c9.7,0,9.7-15,0-15S62.1,281.8,71.8,281.8L71.8,281.8z"/>
			</g>
		</g>
	</g>
	<g id="Layer_26">
	</g>
	<g id="Layer_31">
	</g>
	<g id="Layer_32">
	</g>
	<g id="Layer_33">
	</g>
	<g id="Layer_37">
	</g>
	<g id="Layer_34">
		
			<linearGradient id="SVGID_22_" gradientUnits="userSpaceOnUse" x1="77.2073" y1="185.6558" x2="80.2559" y2="181.7504" gradientTransform="matrix(0.8623 -6.908039e-02 -6.244520e-02 -0.7794 23.8268 249.8901)">
			<stop  offset="0" style="stop-color:#BE1C90"/>
			<stop  offset="1" style="stop-color:#803190"/>
		</linearGradient>
		<path class="st27" d="M74.1,104.1c1.1,0.1,2.1,0.2,3.2,0.3c1.9-2,3.8-4,5.8-6c0-1.1,0-2.1,0-3.2C80.1,98.1,77.1,101.1,74.1,104.1z
			"/>
	</g>
	<g id="Layer_35">
		
			<linearGradient id="SVGID_23_" gradientUnits="userSpaceOnUse" x1="60.1754" y1="202.95" x2="65.6648" y2="202.95" gradientTransform="matrix(1 0 0 -1 0 288)">
			<stop  offset="8.322976e-02" style="stop-color:#AF2995"/>
			<stop  offset="0.9545" style="stop-color:#793097"/>
		</linearGradient>
		
			<linearGradient id="SVGID_24_" gradientUnits="userSpaceOnUse" x1="60.5668" y1="205.9958" x2="65.2897" y2="199.9454" gradientTransform="matrix(1 0 0 -1 0 288)">
			<stop  offset="2.701015e-02" style="stop-color:#84318C"/>
			<stop  offset="0.9545" style="stop-color:#793097"/>
		</linearGradient>
		<path class="st28" d="M60.2,85.7c0,2.2,1.2,3.7,2.7,3.3c1.5-0.3,2.8-2.4,2.8-4.6s-1.2-3.7-2.8-3.3C61.4,81.5,60.2,83.5,60.2,85.7z
			"/>
	</g>
</g>
<g id="Layer_5_1_">
</g>
<g id="Layer_4_1_">
</g>
<g id="Layer_3_1_">
</g>
</svg>
