<?xml version="1.0" encoding="utf-8"?>
<!-- Generator: Adobe Illustrator 23.0.1, SVG Export Plug-In . SVG Version: 6.00 Build 0)  -->
<svg version="1.1" xmlns="http://www.w3.org/2000/svg" xmlns:xlink="http://www.w3.org/1999/xlink" x="0px" y="0px"
	 viewBox="0 0 560 288" style="enable-background:new 0 0 560 288;" xml:space="preserve">
<style type="text/css">
	.st0{display:none;}
	.st1{fill:url(#SVGID_1_);}
	.st2{fill:url(#SVGID_2_);}
	.st3{fill:url(#SVGID_3_);}
	.st4{fill:#330349;}
	.st5{fill:#7906AA;}
	.st6{fill:url(#SVGID_4_);}
	.st7{fill:url(#SVGID_5_);}
	.st8{fill:#F6E68D;}
	.st9{fill:url(#SVGID_6_);}
	.st10{fill:url(#SVGID_7_);}
</style>
<g id="Layer_1">
	<g class="st0">
		
			<image style="display:inline;overflow:visible;enable-background:new    ;" width="564" height="1002" xlink:href="../../../../../../../../SASASAS/e9958ba38c3355f82693856b1ff942d1.jpg"  transform="matrix(0.4009 0 0 0.4009 -88.0426 -392.0367)">
		</image>
	</g>
	<g id="Layer_3">
	</g>
	<g id="Layer_9">
	</g>
	<g id="Layer_4">
		
			<radialGradient id="SVGID_1_" cx="299.4323" cy="155.9379" r="113.891" gradientTransform="matrix(1.0712 0 0 -1.0712 -23.6519 314.1407)" gradientUnits="userSpaceOnUse">
			<stop  offset="0" style="stop-color:#5A1DCF"/>
			<stop  offset="0.4261" style="stop-color:#591CCD"/>
			<stop  offset="0.6396" style="stop-color:#541AC5"/>
			<stop  offset="0.8058" style="stop-color:#4C17B8"/>
			<stop  offset="0.9468" style="stop-color:#4112A5"/>
			<stop  offset="1" style="stop-color:#3C0F9C"/>
		</radialGradient>
		<circle class="st1" cx="297.1" cy="147.1" r="122"/>
		
			<radialGradient id="SVGID_2_" cx="295.5" cy="139.3" r="101.9" gradientTransform="matrix(1 0 0 -1 0 288)" gradientUnits="userSpaceOnUse">
			<stop  offset="0" style="stop-color:#4A0671"/>
			<stop  offset="0.4134" style="stop-color:#48066F"/>
			<stop  offset="0.6205" style="stop-color:#430567"/>
			<stop  offset="0.7817" style="stop-color:#39055A"/>
			<stop  offset="0.9185" style="stop-color:#2B0447"/>
			<stop  offset="1" style="stop-color:#200338"/>
		</radialGradient>
		<circle class="st2" cx="295.5" cy="148.7" r="101.9"/>
	</g>
	<g id="Layer_5">
		
			<radialGradient id="SVGID_3_" cx="295" cy="137.5" r="83.2" gradientTransform="matrix(1 0 0 -1 0 288)" gradientUnits="userSpaceOnUse">
			<stop  offset="0" style="stop-color:#590880"/>
			<stop  offset="0.4005" style="stop-color:#57087E"/>
			<stop  offset="0.6012" style="stop-color:#520776"/>
			<stop  offset="0.7574" style="stop-color:#490669"/>
			<stop  offset="0.8899" style="stop-color:#3C0556"/>
			<stop  offset="1" style="stop-color:#2D0340"/>
		</radialGradient>
		<circle class="st3" cx="295" cy="150.5" r="83.2"/>
		<circle class="st4" cx="296.2" cy="150.5" r="57.4"/>
	</g>
	<g id="Layer_6">
	</g>
	<g id="Layer_7">
		<path class="st5" d="M214.7,186.9c-3.3-14.7,11.9-33.5,17.6-32.2c5.2,1.3,1.4,19.2,8.4,22.2c12,5.1,37.7-40.2,49-35.2
			c4.2,1.8,1.4,12,4.6,13c6.8,2.2,22.6-43,32.2-41.4c6.9,1.2-1.8,43.3,8.4,46.7c4.8,1.6,9.3-6.6,23.7-9.2c5.3-0.9,12-2.1,14.6,0.8
			c6.3,7-9.2,41-34.5,57.4C295.3,237.4,221,214.5,214.7,186.9z"/>
		<g>
			<g>
				<path class="st5" d="M264.8,136.9c9.4,0,18.4-8.3,18-18c-0.4-9.8-7.9-18-18-18c-9.4,0-18.4,8.3-18,18
					C247.3,128.6,254.7,136.9,264.8,136.9L264.8,136.9z"/>
			</g>
		</g>
	</g>
	<g id="Layer_8">
		
			<radialGradient id="SVGID_4_" cx="296.5895" cy="127.5825" r="95.3289" gradientTransform="matrix(1 0 0 -1 0 288)" gradientUnits="userSpaceOnUse">
			<stop  offset="0" style="stop-color:#AA2CFD"/>
			<stop  offset="0.3581" style="stop-color:#A82BFC"/>
			<stop  offset="0.5375" style="stop-color:#A029FA"/>
			<stop  offset="0.6773" style="stop-color:#9326F6"/>
			<stop  offset="0.7965" style="stop-color:#8021F1"/>
			<stop  offset="0.9016" style="stop-color:#681BEA"/>
			<stop  offset="0.9337" style="stop-color:#5F19E7"/>
		</radialGradient>
		<path class="st6" d="M205.8,182.4c1.6-2.3,13.1,9.2,32.2,10.7c30.4,2.4,48.6-23.4,63.6-14.6c7.9,4.6,6.9,14.2,10.7,14.6
			c12.3,1.2,24.1-103.2,32.2-102.6c5,0.4,1.3,39.7,18.4,46.7c7.7,3.2,14-5.9,19.1-3.1c9.3,5.1,7.8,42.5-11.5,66.6
			c-27.8,34.7-88.5,37-127.1,16.9C220.7,205.9,203.8,185.4,205.8,182.4z"/>
	</g>
	<g id="Layer_15">
	</g>
	<g id="Layer_16">
	</g>
	<g id="Layer_10">
		
			<linearGradient id="SVGID_5_" gradientUnits="userSpaceOnUse" x1="216.7222" y1="116.0009" x2="251.5575" y2="67.3803" gradientTransform="matrix(1 0 0 -1 0 288)">
			<stop  offset="0.1016" style="stop-color:#5086FC"/>
			<stop  offset="0.1785" style="stop-color:#4B76E6"/>
			<stop  offset="0.388" style="stop-color:#404EAD"/>
			<stop  offset="0.5822" style="stop-color:#372F81"/>
			<stop  offset="0.755" style="stop-color:#301961"/>
			<stop  offset="0.9002" style="stop-color:#2C0B4E"/>
			<stop  offset="1" style="stop-color:#2B0647"/>
		</linearGradient>
		<path class="st7" d="M228.3,139.8c0.9,0-0.5,8,4.7,14.3c4.4,5.4,11.5,6.8,10.9,8.4c-0.5,1.5-7.1,0.5-7.5,1.9
			c-0.8,2.4,17,8,16.2,11.5c-0.6,2.7-11.5,2-11.9,3.9c-0.5,3.3,27.5,8.9,27.1,12.4c-0.5,3.4-25.6,1.5-28.2,9.4
			c-1.1,3.1,1.6,7.3,0,8.1c-1.4,0.7-4-2-4.7-1.5c-0.7,0.6,1.2,4.5,4.6,7.5c2.1,1.8,3.6,2.4,3.4,3.2c-0.3,1.1-4,2.1-6.4,0.9
			c-4.7-2.3,0-11.2-4.4-15.8c-6.7-7-28.3,2-29.7-0.9c-1.5-3.2,23.8-15.2,22-19.2c-1.1-2.3-10.5,0.2-11.9-2.4
			c-2-3.9,15.7-13.5,13.8-16.7c-1.3-2.3-12,0.6-12.5-0.9c-0.4-1.1,5.4-2.4,9.5-6.7C229.7,150.5,227.3,139.9,228.3,139.8z"/>
	</g>
	<g id="Layer_11">
	</g>
	<g id="Layer_12">
		<polygon class="st8" points="241.4,77.1 239.3,73.6 235.3,73.4 238,70.4 237,66.5 240.6,68.1 244,66 243.6,69.9 246.7,72.5 
			242.8,73.4 		"/>
		<polygon class="st8" points="296.5,98.6 294.5,95.2 290.5,95 293.2,92 292.2,88.1 295.8,89.7 299.2,87.5 298.8,91.5 301.9,94 
			298,94.9 		"/>
		<polygon class="st8" points="247.7,113.7 246.3,111.4 243.7,111.3 245.5,109.3 244.8,106.8 247.2,107.8 249.4,106.4 249.2,109 
			251.2,110.7 248.6,111.3 		"/>
	</g>
	<g id="Layer_14">
	</g>
	<g id="Layer_13">
		<path class="st8" d="M344.1,56.1c-4.3-1.9-8.9-2.1-13.1-0.9c2.5-0.2,5,0.2,7.3,1.2c7.8,3.5,10.8,12.4,7.8,20.1s-12.8,11-20.1,7.8
			c-5.1-2.3-8.2-6.9-8.8-12c-0.6,7.9,3.7,15.7,11.4,19.1c9.7,4.3,21.1-0.1,25.4-9.8S353.8,60.4,344.1,56.1z"/>
	</g>
	<g id="Layer_17">
	</g>
	<g id="Layer_10_1_">
		
			<linearGradient id="SVGID_6_" gradientUnits="userSpaceOnUse" x1="251.9988" y1="107.9797" x2="286.8341" y2="59.3591" gradientTransform="matrix(1 0 0 -1 0 288)">
			<stop  offset="0.1016" style="stop-color:#5086FC"/>
			<stop  offset="0.1785" style="stop-color:#4B76E6"/>
			<stop  offset="0.388" style="stop-color:#404EAD"/>
			<stop  offset="0.5822" style="stop-color:#372F81"/>
			<stop  offset="0.755" style="stop-color:#301961"/>
			<stop  offset="0.9002" style="stop-color:#2C0B4E"/>
			<stop  offset="1" style="stop-color:#2B0647"/>
		</linearGradient>
		<path class="st9" d="M263.6,147.9c0.9,0-0.5,8,4.7,14.3c4.4,5.4,11.5,6.8,10.9,8.4c-0.5,1.5-7.1,0.5-7.5,1.9
			c-0.8,2.4,17,8,16.2,11.5c-0.6,2.7-11.5,2-11.9,3.9c-0.5,3.3,27.5,8.9,27.1,12.4c-0.5,3.4-25.6,1.5-28.2,9.4
			c-1.1,3.1,1.6,7.3,0,8.1c-1.4,0.7-4-2-4.7-1.5c-0.7,0.6,1.2,4.5,4.6,7.5c2.1,1.8,3.6,2.4,3.4,3.2c-0.3,1.1-4,2.1-6.4,0.9
			c-4.7-2.3,0-11.2-4.4-15.8c-6.7-7-28.3,2-29.7-0.9c-1.5-3.2,23.8-15.2,22-19.2c-1.1-2.3-10.5,0.2-11.9-2.4
			c-2-3.9,15.7-13.5,13.8-16.7c-1.3-2.3-12,0.6-12.5-0.9c-0.4-1.1,5.4-2.4,9.5-6.7C264.9,158.5,262.6,147.9,263.6,147.9z"/>
	</g>
	<g id="Layer_10_2_">
		
			<linearGradient id="SVGID_7_" gradientUnits="userSpaceOnUse" x1="226.4961" y1="109.7582" x2="261.3314" y2="61.1375" gradientTransform="matrix(1 0 0 -1 0 288)">
			<stop  offset="0.1016" style="stop-color:#5086FC"/>
			<stop  offset="0.1785" style="stop-color:#4B76E6"/>
			<stop  offset="0.388" style="stop-color:#404EAD"/>
			<stop  offset="0.5822" style="stop-color:#372F81"/>
			<stop  offset="0.755" style="stop-color:#301961"/>
			<stop  offset="0.9002" style="stop-color:#2C0B4E"/>
			<stop  offset="1" style="stop-color:#2B0647"/>
		</linearGradient>
		<path class="st10" d="M238.1,146.1c0.9,0-0.5,8,4.7,14.3c4.4,5.4,11.5,6.8,10.9,8.4c-0.5,1.5-7.1,0.5-7.5,1.9
			c-0.8,2.4,17,8,16.2,11.5c-0.6,2.7-11.5,2-11.9,3.9c-0.5,3.3,27.5,8.9,27.1,12.4c-0.5,3.4-25.6,1.5-28.2,9.4
			c-1.1,3.1,1.6,7.3,0,8.1c-1.4,0.7-4-2-4.7-1.5c-0.7,0.6,1.2,4.5,4.6,7.5c2.1,1.8,3.6,2.4,3.4,3.2c-0.3,1.1-4,2.1-6.4,0.9
			c-4.7-2.3,0-11.2-4.4-15.8c-6.7-7-28.3,2-29.7-0.9c-1.5-3.2,23.8-15.2,22-19.2c-1.1-2.3-10.5,0.2-11.9-2.4
			c-2-3.9,15.7-13.5,13.8-16.7c-1.3-2.3-12,0.6-12.5-0.9c-0.4-1.1,5.4-2.4,9.5-6.7C239.4,156.7,237.1,146.1,238.1,146.1z"/>
	</g>
</g>
<g id="Layer_2">
</g>
</svg>
