<?xml version="1.0" encoding="utf-8"?>
<!-- Generator: Adobe Illustrator 23.0.1, SVG Export Plug-In . SVG Version: 6.00 Build 0)  -->
<svg version="1.1" xmlns="http://www.w3.org/2000/svg" xmlns:xlink="http://www.w3.org/1999/xlink" x="0px" y="0px"
	 viewBox="0 0 560 288" style="enable-background:new 0 0 560 288;" xml:space="preserve">
<style type="text/css">
	.st0{display:none;}
	.st1{fill:url(#SVGID_1_);}
	.st2{fill:url(#SVGID_2_);}
	.st3{fill:url(#SVGID_3_);}
	.st4{fill:#330349;}
	.st5{fill:#8DB9C6;}
</style>
<g id="Layer_1">
	<g class="st0">
		
			<image style="display:inline;overflow:visible;enable-background:new    ;" width="564" height="1002" xlink:href="../../../../../../../../SASASAS/e9958ba38c3355f82693856b1ff942d1.jpg"  transform="matrix(0.4009 0 0 0.4009 -88.0426 -392.0367)">
		</image>
	</g>
	<g id="Layer_3">
	</g>
	<g id="Layer_9">
	</g>
	<g id="Layer_4">
		
			<radialGradient id="SVGID_1_" cx="299.4323" cy="132.0621" r="113.891" gradientTransform="matrix(1.0712 0 0 1.0712 -23.6519 5.6351)" gradientUnits="userSpaceOnUse">
			<stop  offset="0" style="stop-color:#5A1DCF"/>
			<stop  offset="0.4261" style="stop-color:#591CCD"/>
			<stop  offset="0.6396" style="stop-color:#541AC5"/>
			<stop  offset="0.8058" style="stop-color:#4C17B8"/>
			<stop  offset="0.9468" style="stop-color:#4112A5"/>
			<stop  offset="1" style="stop-color:#3C0F9C"/>
		</radialGradient>
		<circle class="st1" cx="297.1" cy="147.1" r="122"/>
		<radialGradient id="SVGID_2_" cx="295.5" cy="148.7" r="101.9" gradientUnits="userSpaceOnUse">
			<stop  offset="0" style="stop-color:#4A0671"/>
			<stop  offset="0.4134" style="stop-color:#48066F"/>
			<stop  offset="0.6205" style="stop-color:#430567"/>
			<stop  offset="0.7817" style="stop-color:#39055A"/>
			<stop  offset="0.9185" style="stop-color:#2B0447"/>
			<stop  offset="1" style="stop-color:#200338"/>
		</radialGradient>
		<circle class="st2" cx="295.5" cy="148.7" r="101.9"/>
	</g>
	<g id="Layer_5">
		<radialGradient id="SVGID_3_" cx="295" cy="150.5" r="83.2" gradientUnits="userSpaceOnUse">
			<stop  offset="0" style="stop-color:#590880"/>
			<stop  offset="0.4005" style="stop-color:#57087E"/>
			<stop  offset="0.6012" style="stop-color:#520776"/>
			<stop  offset="0.7574" style="stop-color:#490669"/>
			<stop  offset="0.8899" style="stop-color:#3C0556"/>
			<stop  offset="1" style="stop-color:#2D0340"/>
		</radialGradient>
		<circle class="st3" cx="295" cy="150.5" r="83.2"/>
		<circle class="st4" cx="296.2" cy="150.5" r="57.4"/>
	</g>
	<g id="Layer_6">
	</g>
	<g id="Layer_15">
	</g>
	<g id="Layer_16">
	</g>
	<g id="Layer_11">
	</g>
	<g id="Layer_14">
	</g>
	<g id="Layer_17">
	</g>
</g>
<g id="Layer_2">
	<circle class="st5" cx="297.1" cy="157.4" r="6.9"/>
</g>
<g id="Layer_3_1_">
	<rect x="295.9" y="70.4" class="st5" width="3" height="70"/>
	<path class="st5" d="M311.9,74.9c-2-6.6-8.2-11-14.9-10.8c-6.4,0.2-12.1,4.5-14.1,10.8c4.3-11.2,8.7-22.5,13-33.7
		C301.3,52.4,306.6,63.7,311.9,74.9z"/>
	
		<rect x="280.4" y="120.7" transform="matrix(0.8411 -0.5409 0.5409 0.8411 -28.0579 173.3314)" class="st5" width="1.2" height="27.5"/>
	<path class="st5" d="M278.6,120c-2.1-1.7-5-1.9-7.2-0.4c-2.1,1.4-3,4.1-2.4,6.5c-1-4.6-1.9-9.3-2.9-13.9
		C270.3,114.8,274.5,117.4,278.6,120z"/>
</g>
<g id="Layer_4_1_">
	<rect x="296.2" y="242" class="st5" width="6" height="23.8"/>
	
		<rect x="184" y="135.2" transform="matrix(-1.836970e-16 1 -1 -1.836970e-16 334.0963 -39.8963)" class="st5" width="6" height="23.8"/>
	
		<rect x="404.2" y="135.2" transform="matrix(-1.836970e-16 1 -1 -1.836970e-16 554.3037 -260.1037)" class="st5" width="6" height="23.8"/>
	<rect x="293.2" y="25.1" class="st5" width="6" height="23.8"/>
</g>
</svg>
