<?xml version="1.0" encoding="utf-8"?>
<!-- Generator: Adobe Illustrator 23.0.1, SVG Export Plug-In . SVG Version: 6.00 Build 0)  -->
<svg version="1.1" xmlns="http://www.w3.org/2000/svg" xmlns:xlink="http://www.w3.org/1999/xlink" x="0px" y="0px"
	 viewBox="0 0 560 288" style="enable-background:new 0 0 560 288;" xml:space="preserve">
<style type="text/css">
	.st0{display:none;}
	.st1{fill:#330349;}
	.st2{fill:url(#SVGID_1_);}
	.st3{fill:url(#SVGID_2_);}
	.st4{fill:url(#SVGID_3_);}
	.st5{fill:#7906AA;}
	.st6{fill:url(#SVGID_4_);}
	.st7{fill:url(#SVGID_5_);}
	.st8{fill:url(#SVGID_6_);}
	.st9{fill:url(#SVGID_7_);}
</style>
<g id="Layer_1">
	<g class="st0">
		
			<image style="display:inline;overflow:visible;enable-background:new    ;" width="564" height="1002" xlink:href="../../../../../../../../SASASAS/e9958ba38c3355f82693856b1ff942d1.jpg"  transform="matrix(0.4009 0 0 0.4009 -88.0426 -392.0367)">
		</image>
	</g>
	<path class="st1" d="M594.9,181.4C76.7,200.9-59.5,239.8-62.2,277.2c-3.5,47.2,203,129.1,398.1,94.5
		c176.4-31.3,329.4-155.4,317.3-184.1C648.7,176.8,620.6,178.1,594.9,181.4z"/>
	<g id="Layer_3">
	</g>
	<g id="Layer_9">
	</g>
	<g id="Layer_4">
		
			<radialGradient id="SVGID_1_" cx="595.2225" cy="-5.0148" r="113.891" gradientTransform="matrix(1.0712 0 0 -1.0712 -23.6519 314.1407)" gradientUnits="userSpaceOnUse">
			<stop  offset="0" style="stop-color:#5A1DCF"/>
			<stop  offset="0.4261" style="stop-color:#591CCD"/>
			<stop  offset="0.6396" style="stop-color:#541AC5"/>
			<stop  offset="0.8058" style="stop-color:#4C17B8"/>
			<stop  offset="0.9468" style="stop-color:#4112A5"/>
			<stop  offset="1" style="stop-color:#3C0F9C"/>
		</radialGradient>
		<circle class="st2" cx="614" cy="319.5" r="122"/>
		
			<radialGradient id="SVGID_2_" cx="612.3504" cy="-33.1125" r="101.9" gradientTransform="matrix(1 0 0 -1 0 288)" gradientUnits="userSpaceOnUse">
			<stop  offset="0" style="stop-color:#4A0671"/>
			<stop  offset="0.4134" style="stop-color:#48066F"/>
			<stop  offset="0.6205" style="stop-color:#430567"/>
			<stop  offset="0.7817" style="stop-color:#39055A"/>
			<stop  offset="0.9185" style="stop-color:#2B0447"/>
			<stop  offset="1" style="stop-color:#200338"/>
		</radialGradient>
		<circle class="st3" cx="612.4" cy="321.1" r="101.9"/>
	</g>
	<g id="Layer_5">
		
			<radialGradient id="SVGID_3_" cx="418.0962" cy="-96.0055" r="83.2" gradientTransform="matrix(1 0 0 -1 0 288)" gradientUnits="userSpaceOnUse">
			<stop  offset="0" style="stop-color:#590880"/>
			<stop  offset="0.4005" style="stop-color:#57087E"/>
			<stop  offset="0.6012" style="stop-color:#520776"/>
			<stop  offset="0.7574" style="stop-color:#490669"/>
			<stop  offset="0.8899" style="stop-color:#3C0556"/>
			<stop  offset="1" style="stop-color:#2D0340"/>
		</radialGradient>
		<circle class="st4" cx="418.1" cy="384" r="83.2"/>
		<circle class="st1" cx="419.3" cy="384" r="57.4"/>
	</g>
	<g id="Layer_6">
	</g>
	<g id="Layer_7">
		<path class="st5" d="M-57.5,240.5c-4.5-29.4,28-64.3,39-61c10.1,3.3,0.1,38,13.5,44.8c22.9,11.7,79.7-74,101.2-62.6
			c8,4.1,1.1,23.8,7.3,26.2c13.1,5.3,50.3-81.6,69-77.1c13.4,3.3-9.4,85,10.2,93.1c9.2,3.8,19.2-11.7,47.9-14.9
			c10.6-1.1,23.9-2.5,28.6,3.6c11.4,14.6-23.7,79.4-75.7,108.3C94.3,350.9-48.8,295.7-57.5,240.5z"/>
		<g>
			<g>
				<path class="st5" d="M47.9,148.9c18.5,1.3,37.3-13.8,37.9-33c0.5-19.3-13.1-36.5-33-37.9C34.3,76.8,15.5,91.9,15,111
					C14.6,130.2,28.1,147.6,47.9,148.9L47.9,148.9z"/>
			</g>
		</g>
	</g>
	<g id="Layer_15">
	</g>
	<g id="Layer_16">
	</g>
	<g id="Layer_10">
		
			<linearGradient id="SVGID_4_" gradientUnits="userSpaceOnUse" x1="49.2855" y1="109.0122" x2="127.4229" y2="-4.633152e-02" gradientTransform="matrix(1 0 0 -1 0 288)">
			<stop  offset="0.1016" style="stop-color:#5086FC"/>
			<stop  offset="0.1785" style="stop-color:#4B76E6"/>
			<stop  offset="0.388" style="stop-color:#404EAD"/>
			<stop  offset="0.5822" style="stop-color:#372F81"/>
			<stop  offset="0.755" style="stop-color:#301961"/>
			<stop  offset="0.9002" style="stop-color:#2C0B4E"/>
			<stop  offset="1" style="stop-color:#2B0647"/>
		</linearGradient>
		<path class="st6" d="M72.2,109.1c2.3,0-1.2,17.6,12.3,31.3c11.6,11.8,30.1,14.9,28.7,18.4c-1.4,3.4-18.6,1-19.8,4.2
			c-2.1,5.4,44.7,17.6,42.6,25.3c-1.6,5.9-30.2,4.3-31.1,8.6c-1.4,7.2,72.3,19.5,71.1,27.3c-1.2,7.4-67.3,3.4-74,20.6
			c-2.8,6.8,4.2,15.9,0,17.8c-3.6,1.6-10.6-4.4-12.3-3.3c-1.9,1.3,3.1,9.8,12,16.5c5.4,4,9.4,5.4,8.9,7.1c-0.7,2.4-10.6,4.6-16.9,2
			c-12.3-5.1,0-24.5-11.5-34.7c-17.6-15.4-74.4,4.3-78-2c-4-6.9,62.4-33.4,57.7-42c-2.8-5-27.5,0.5-31.1-5.4
			c-5.2-8.5,41.2-29.6,36.3-36.7c-3.5-5.1-31.5,1.3-32.8-2c-1-2.5,14.3-5.2,24.9-14.6C75.8,132.4,69.6,109.2,72.2,109.1z"/>
	</g>
	<g id="Layer_11">
	</g>
	<g id="Layer_12">
		<polygon class="st5" points="241.4,77.1 239.3,73.6 235.3,73.4 238,70.4 237,66.5 240.6,68.1 244,66 243.6,69.9 246.7,72.5 
			242.8,73.4 		"/>
		<polygon class="st5" points="296.5,98.6 294.5,95.2 290.5,95 293.2,92 292.2,88.1 295.8,89.7 299.2,87.5 298.8,91.5 301.9,94 
			298,94.9 		"/>
		<polygon class="st5" points="247.7,113.7 246.3,111.4 243.7,111.3 245.5,109.3 244.8,106.8 247.2,107.8 249.4,106.4 249.2,109 
			251.2,110.7 248.6,111.3 		"/>
	</g>
	<g id="Layer_14">
	</g>
	<g id="Layer_13">
		<path class="st5" d="M344.1,56.1c-4.3-1.9-8.9-2.1-13.1-0.9c2.5-0.2,5,0.2,7.3,1.2c7.8,3.5,10.8,12.4,7.8,20.1s-12.8,11-20.1,7.8
			c-5.1-2.3-8.2-6.9-8.8-12c-0.6,7.9,3.7,15.7,11.4,19.1c9.7,4.3,21.1-0.1,25.4-9.8S353.8,60.4,344.1,56.1z"/>
	</g>
	<g id="Layer_17">
	</g>
	<g id="Layer_10_1_">
		
			<linearGradient id="SVGID_5_" gradientUnits="userSpaceOnUse" x1="122.1478" y1="72.4522" x2="170.5856" y2="4.8462" gradientTransform="matrix(1 0 0 -1 0 288)">
			<stop  offset="0.1016" style="stop-color:#5086FC"/>
			<stop  offset="0.1785" style="stop-color:#4B76E6"/>
			<stop  offset="0.388" style="stop-color:#404EAD"/>
			<stop  offset="0.5822" style="stop-color:#372F81"/>
			<stop  offset="0.755" style="stop-color:#301961"/>
			<stop  offset="0.9002" style="stop-color:#2C0B4E"/>
			<stop  offset="1" style="stop-color:#2B0647"/>
		</linearGradient>
		<path class="st7" d="M138.4,170.7c1.1,0-0.6,11.3,6,20.1c5.6,7.5,14.5,9.5,13.9,11.8c-0.7,2.2-9,0.7-9.6,2.7
			c-1,3.4,21.6,11.3,20.6,16.2c-0.8,3.8-14.6,2.8-15.1,5.5c-0.7,4.6,35,12.5,34.4,17.5c-0.6,4.8-32.5,2.2-35.8,13.2
			c-1.3,4.4,2,10.2,0,11.4c-1.8,1-5.1-2.8-6-2.1c-0.9,0.8,1.5,6.3,5.8,10.5c2.6,2.6,4.5,3.4,4.3,4.5c-0.3,1.5-5.1,2.9-8.2,1.3
			c-6-3.3,0-15.7-5.6-22.3c-8.5-9.9-36,2.8-37.8-1.3c-1.9-4.4,30.2-21.4,27.9-26.9c-1.3-3.2-13.3,0.3-15.1-3.4
			c-2.5-5.4,19.9-19,17.6-23.5c-1.7-3.3-15.2,0.8-15.9-1.3c-0.5-1.6,6.9-3.3,12-9.4C140.2,185.7,137.1,170.8,138.4,170.7z"/>
	</g>
	<g id="Layer_10_2_">
		
			<linearGradient id="SVGID_6_" gradientUnits="userSpaceOnUse" x1="-10.4812" y1="154.2029" x2="80.3952" y2="27.3641" gradientTransform="matrix(1 0 0 -1 0 288)">
			<stop  offset="0.1016" style="stop-color:#5086FC"/>
			<stop  offset="0.1785" style="stop-color:#4B76E6"/>
			<stop  offset="0.388" style="stop-color:#404EAD"/>
			<stop  offset="0.5822" style="stop-color:#372F81"/>
			<stop  offset="0.755" style="stop-color:#301961"/>
			<stop  offset="0.9002" style="stop-color:#2C0B4E"/>
			<stop  offset="1" style="stop-color:#2B0647"/>
		</linearGradient>
		<path class="st8" d="M13.3,54.5c1.2,0-0.6,22.2,6.5,39.4c6.1,14.8,15.7,18.7,15,23.2c-0.7,4.3-9.7,1.3-10.4,5.3
			c-1.1,6.7,23.4,22.2,22.3,31.9c-0.8,7.4-15.8,5.4-16.3,10.8c-0.7,9,37.8,24.5,37.2,34.3c-0.6,9.4-35.2,4.3-38.7,26
			c-1.5,8.5,2.2,20,0,22.3c-1.9,2-5.5-5.6-6.5-4.1c-1,1.6,1.6,12.3,6.3,20.7c2.8,5.1,4.9,6.7,4.6,8.9c-0.4,3-5.5,5.8-8.8,2.5
			c-6.5-6.4,0-30.9-6-43.7c-9.2-19.4-38.9,5.4-40.8-2.5c-2.1-8.7,32.6-42.1,30.2-52.9c-1.5-6.2-14.4,0.7-16.3-6.7
			c-2.7-10.7,21.5-37.3,19-46.2c-1.8-6.4-16.5,1.6-17.2-2.5c-0.5-3.1,7.5-6.6,13-18.4C15.2,83.9,11.9,54.6,13.3,54.5z"/>
	</g>
	<linearGradient id="SVGID_7_" gradientUnits="userSpaceOnUse" x1="-76.0371" y1="128.5793" x2="-76.0371" y2="128.5793">
		<stop  offset="0.1016" style="stop-color:#5086FC"/>
		<stop  offset="0.1785" style="stop-color:#4B76E6"/>
		<stop  offset="0.388" style="stop-color:#404EAD"/>
		<stop  offset="0.5822" style="stop-color:#372F81"/>
		<stop  offset="0.755" style="stop-color:#301961"/>
		<stop  offset="0.9002" style="stop-color:#2C0B4E"/>
		<stop  offset="1" style="stop-color:#2B0647"/>
	</linearGradient>
	<path class="st9" d="M-76,128.6"/>
</g>
<g id="Layer_2">
</g>
</svg>
