<?xml version="1.0" encoding="utf-8"?>
<!-- Generator: Adobe Illustrator 23.0.1, SVG Export Plug-In . SVG Version: 6.00 Build 0)  -->
<svg version="1.1" xmlns="http://www.w3.org/2000/svg" xmlns:xlink="http://www.w3.org/1999/xlink" x="0px" y="0px"
	 viewBox="0 0 1920 1080" style="enable-background:new 0 0 1920 1080;" xml:space="preserve">
<style type="text/css">
	.st0{display:none;}
	.st1{display:inline;fill:#FFFFFF;}
	.st2{fill:#4A0031;}
	.st3{fill:#4C0036;}
	.st4{fill:#FF9574;}
	.st5{fill:url(#SVGID_1_);}
	.st6{fill:url(#SVGID_2_);}
	.st7{fill:url(#SVGID_3_);}
	.st8{fill:url(#SVGID_4_);}
	.st9{fill:url(#SVGID_5_);}
	.st10{fill:url(#SVGID_6_);}
	.st11{fill:url(#SVGID_7_);}
	.st12{fill:url(#SVGID_8_);}
	.st13{fill:url(#SVGID_9_);}
	.st14{fill:url(#SVGID_10_);}
	.st15{fill:url(#SVGID_11_);}
	.st16{fill:url(#SVGID_12_);}
	.st17{fill:url(#SVGID_13_);}
	.st18{fill:url(#SVGID_14_);}
	.st19{fill:url(#SVGID_15_);}
	.st20{fill:url(#SVGID_16_);}
	.st21{fill:url(#SVGID_17_);}
	.st22{fill:url(#SVGID_18_);}
	.st23{fill:url(#SVGID_19_);}
	.st24{fill:url(#SVGID_20_);}
	.st25{fill:url(#SVGID_21_);}
	.st26{fill:url(#SVGID_22_);}
	.st27{fill:url(#SVGID_23_);}
	.st28{fill:#EFFF15;}
	.st29{fill:url(#SVGID_24_);}
	.st30{fill:url(#SVGID_25_);}
	.st31{fill:url(#SVGID_26_);}
	.st32{fill:url(#SVGID_27_);}
	.st33{fill:url(#SVGID_28_);}
	.st34{fill:url(#SVGID_29_);}
	.st35{fill:url(#SVGID_30_);}
	.st36{fill:url(#SVGID_31_);}
	.st37{fill:url(#SVGID_32_);}
	.st38{fill:url(#SVGID_33_);}
	.st39{fill:url(#SVGID_34_);}
	.st40{fill:url(#SVGID_35_);}
	.st41{fill:url(#SVGID_36_);}
	.st42{fill:url(#SVGID_37_);}
	.st43{fill:url(#SVGID_38_);}
	.st44{fill:url(#SVGID_39_);}
	.st45{fill:url(#SVGID_40_);}
	.st46{fill:url(#SVGID_41_);}
	.st47{fill:url(#SVGID_42_);}
	.st48{display:inline;fill:url(#SVGID_43_);}
	.st49{display:inline;fill:url(#SVGID_44_);}
	.st50{fill:url(#SVGID_45_);}
	.st51{display:inline;fill:url(#SVGID_46_);}
	.st52{fill:url(#SVGID_47_);}
	.st53{fill:url(#SVGID_48_);}
	.st54{fill:url(#SVGID_49_);}
	.st55{fill:url(#SVGID_50_);}
</style>
<g id="Layer_1">
</g>
<g id="Layer_2" class="st0">
</g>
<g id="Layer_3" class="st0">
</g>
<g id="Layer_4" class="st0">
	
		<image style="display:inline;overflow:visible;" width="537" height="960" xlink:href="../../../../../../../../SASASAS/2997ca076ae21f8f8f8d940fe0cbea54.jpg"  transform="matrix(1.214759e-16 -1.9839 1.9839 1.214759e-16 16 1065.3285)">
	</image>
</g>
<g id="Layer_5" class="st0">
	<path class="st1" d="M128,523c35.6-0.3,74.3-0.4,116-14c145.5-47.5,135.4-189.7,269-232c100.3-31.8,138.2,23.4,234-20
		c108.2-49,95.2-135.6,184-166c107.9-37,157.7,80.2,308,75c151.2-5.3,169.5-126.4,326-138c161.6-12,221.9,111.3,315,79
		c125.9-43.7,216.5-339.1,115-515C1791.3-761,872.1-532.9,655-479C369.5-408.2,78.5-319.7-59-59c-102.2,193.7-114,476.2-6,546
		C-8.8,523.3,112.4,523.1,128,523z"/>
	<path class="st1" d="M-471,727c-3.7-299.6,227.7-546.8,284-525c53.5,20.7-46.8,284.2,70,364c21.6,14.7,79.7,20.2,196,31
		c143.8,13.4,149.4,6.2,181,21c90.2,42.2,68.2,155.8,153,187c58.4,21.5,82.1-26.1,175-24c110.6,2.5,125.3,70.9,224,88
		c147.4,25.6,195.2-113,352-104c111.9,6.4,103.2,77.9,269,138c183.4,66.5,354,37,429,24c114.8-19.9,187.1-50.1,232-71
		c320.3-149,883.2,82.6,887,236c5.2,209.2-1025.1,404-1754,442c-1113,58.1-1428.6-254.2-1509-343C-324.7,1143.9-468,969.4-471,727z"
		/>
	<path class="st1" d="M-742,676"/>
	<path class="st1" d="M183,793"/>
	<path class="st1" d="M-886,652"/>
	<path class="st1" d="M-984,404"/>
	<path class="st1" d="M1087,1444"/>
</g>
<g id="Layer_24">
	<path class="st2" d="M1459-0.7H983.4C959,20,936.2,45.2,918,76c-69.9,117.9-35.8,253.6,41,492c75.1,233.1,129.3,401.3,173.5,514.5
		h783.5V0.6C1763.7-0.6,1611.4-0.7,1459-0.7z"/>
	<path class="st3" d="M1005,1766"/>
</g>
<g id="Layer_7">
</g>
<g id="Layer_15">
	<path class="st4" d="M1603.7,1251.4c76.6-104.1,145.5-106.3,214.5-168.4c122.1-109.8,170.9-340.4,124.6-386.9
		c-49.4-49.5-245.1,71.5-343.5,257.3c-94.2,178.2-90.2,399.3-65.6,407.6C1545.7,1365.1,1556.2,1315.8,1603.7,1251.4z"/>
</g>
<g id="Layer_21">
</g>
<g id="Layer_11">
	<linearGradient id="SVGID_1_" gradientUnits="userSpaceOnUse" x1="762" y1="713.4009" x2="1433.4974" y2="713.4009">
		<stop  offset="0" style="stop-color:#E36A67"/>
		<stop  offset="0.7729" style="stop-color:#ED4F6A"/>
		<stop  offset="0.94" style="stop-color:#F0486B"/>
	</linearGradient>
	<path class="st5" d="M1335.8,965.7c-6.9-6.1-19.2-18.8-26.8-38.7c-1.3-3.5-8.1-22.1-6-39.7c3.9-32.5,38.1-43.6,65.5-72.6
		c42.7-45,77.1-114.1,60.9-132.3c-15.3-17.1-83.7,1.5-118.2,46.8c-37,48.6-17.2,104.4-39.8,111.2c-20.7,6.2-60.4-33.6-64.4-76.1
		c-2.2-23.6,8.4-29.7,24.6-74.9c26.2-73.4,22.5-125.1,21.1-139.3c-0.7-7.2-6.3-64.2-21.1-65.5c-16.5-1.5-40.9,66.3-50.3,126.4
		c-10.3,65.6,3,99.1-14,107.7c-18.3,9.2-59.8-15.7-71.4-50.3c-12.3-36.6,17.4-59.2,38.6-133.4c13.9-48.6,25.7-124.6,8.2-132.3
		c-16.7-7.3-73.4,47.7-83.1,114.7c-7.9,54.7,20.2,85.9,3.5,100.7c-16.1,14.2-49.7,0.5-57.7-2.8c-22.8-9.4-54.2-32.4-51.1-54.5
		c2.4-17.1,22.8-15,41-43.3c16.6-25.9,16.5-54.2,16.4-59.7c-0.4-21.2-7.3-23.8-7-44.5c0.3-30.4,15.3-48.9,12.9-50.3
		c-3.5-2-37,33-57.4,86.6c-16.5,43.5-15.4,75.7-23.4,76.1c-9.4,0.4-6-44.7-38.6-86.6c0,0-32.3-41.4-90.1-51.5
		c-27-4.7-33.7,2.9-35.1,4.7c-6.4,8.2-1.7,21.7,1.5,30.6c13.7,37.8,45.5,59.7,55.8,66.5c47.1,31.2,89.9,35.4,89,41
		c-1,5.9-48-7-99.5,12.9c-28.5,11-60.7,33-57.4,45.6c3.3,12.4,43.8,18.9,78.4,8.2c41.2-12.7,51-42.4,72.6-37.5
		c19,4.3,16.2,28.3,43.3,55c32.7,32.2,73.6,33.6,72.6,39.8c-1.6,10-101.4-22.6-162.7,24.6c-33.5,25.7-55.2,75-39.8,93.6
		c13.9,16.7,58.7,1.5,107.7-15.2l0,0c94.1-40.3,111.2-63.3,134.6-57.4c26.5,6.7,50.2,47.4,41,72.6c-12.6,34.5-78.8,13.9-161.5,64.4
		c-8.7,5.3-83.2,51.3-74.9,74.9c10.5,30,160.6,40.5,232.9-32.8c19.6-19.9,32.1-44.5,57.4-45.6c29.3-1.3,63.4,29.4,60.9,53.8
		c-2.6,24.8-41.8,29.4-118.2,71.4c-49.3,27.1-112.8,62-107.7,81.9c5.8,22.7,104,40.2,165-3.5c35.3-25.3,45.8-62.2,74.9-60.9
		c26.4,1.2,37.7,32.5,60.9,29.3C1317.1,1003,1328.8,982.3,1335.8,965.7z"/>
	
		<linearGradient id="SVGID_2_" gradientUnits="userSpaceOnUse" x1="1266" y1="661.4009" x2="1937.4974" y2="661.4009" gradientTransform="matrix(0.3601 0.7648 -0.9047 0.426 1645.4645 -798.3572)">
		<stop  offset="0" style="stop-color:#E36A67"/>
		<stop  offset="0.7729" style="stop-color:#ED4F6A"/>
		<stop  offset="0.94" style="stop-color:#F0486B"/>
	</linearGradient>
	<path class="st6" d="M1481.3,997.9c3.1-7.9,10-22.7,25.4-36.9c2.7-2.5,17.1-15.6,33.8-21.5c30.8-10.9,53.1,10.5,89.3,19.2
		c56.1,13.5,131,10.4,141.6-9.8c10-19-31.5-63.4-84.9-70.5c-57.3-7.6-100.6,31.3-114.9,16.9c-13.1-13.2,8.6-60.5,45.6-81.6
		c20.6-11.7,29.9-6.2,76.6-13.1c75.9-11.2,121.2-36.1,133.6-43.2c6.3-3.6,55.8-32.1,51.7-44c-4.6-13.2-74.8-3-132.5,15.4
		c-63,20.1-88.6,44.5-102.5,35.1c-14.9-10.1-7.3-52.4,19.8-76c28.7-25,59.8-11.9,134.6-27.3c49-10.1,122-33.5,122.6-50.1
		c0.6-15.9-69.6-35.9-133.7-14.7c-52.4,17.3-70.5,52-89.8,45.6c-18.6-6.2-18.3-37.8-18.2-45.4c0.3-21.4,9.8-55.2,30.9-62.3
		c16.4-5.5,21.8,11.1,53.9,12.9c29.4,1.7,55-10.5,59.9-12.9c19.1-9.4,18.9-15.7,37.7-24.3c27.6-12.7,49.8-9.2,50.2-11.6
		c0.5-3.5-43.2-14.2-99-7c-45.3,5.9-74.1,20.4-77.3,14.5c-3.8-7,38.3-23.7,64.5-66.4c0,0,25.8-42.4,14.1-90.9
		c-5.4-22.6-14.7-24.5-16.9-24.9c-9.7-1.4-20.3,7.9-27.2,14.2c-29.3,26.6-37.6,60.2-40.1,71c-11.3,49.3,0.3,83.8-5,85.5
		c-5.7,1.7-10.9-39.7-47.5-70.6c-20.2-17.1-51.7-32.3-62-24.4c-10.1,7.8-1.3,41.5,20.8,63.5c26.3,26.1,56.7,20.9,60,39.5
		c2.9,16.4-19.8,24.5-34.2,56.6c-17.4,38.7-3.9,70.6-9.9,72.5c-9.7,3-16.1-87.1-80.8-114c-35.4-14.6-87.8-10.3-99,9.5
		c-10.1,17.7,19.8,45.5,52.5,75.9l0,0c70.4,54.8,97.3,58.1,100.4,78.5c3.5,23.1-24.8,58.5-50.9,62.2c-35.8,5.1-41-54.3-116.4-96.1
		c-7.9-4.4-76.4-41.8-94.7-25.4c-23.3,20.8,21.2,140.1,113.5,164.2c25.1,6.5,51.8,5.6,62,24.4c11.8,21.8-3.8,61.1-26.8,69.5
		c-23.4,8.6-41.7-19.4-107.2-60c-42.3-26.2-96.7-59.9-112.9-47.5c-18.4,14.1,1.1,96.7,62.6,124.7c35.6,16.2,72.8,8.6,82,31.4
		c8.4,20.7-15.8,42.7-4.6,59C1440.9,999.5,1463.8,999.6,1481.3,997.9z"/>
</g>
<g id="Layer_22">
	
		<linearGradient id="SVGID_3_" gradientUnits="userSpaceOnUse" x1="1927.7699" y1="858.3537" x2="1807.4838" y2="1200.9171" gradientTransform="matrix(1.4022 -9.164133e-02 8.383344e-02 1.2828 -1094.8441 -526.1317)">
		<stop  offset="0" style="stop-color:#E30260"/>
		<stop  offset="0.1912" style="stop-color:#C70257"/>
		<stop  offset="0.6002" style="stop-color:#81023F"/>
		<stop  offset="0.94" style="stop-color:#43022A"/>
	</linearGradient>
	<path class="st7" d="M1436,743.4c3.7-48.6,19.9-286.9,152.3-341c25-10.2,50.6-8.5,63.7-30.1c25.6-42.3-28.6-113.7-20.2-118.6
		c4.9-2.9,30.7,26.8,64.8,81.4c30.7,49,51.8,92,65.4,122.2c11,25.2,25.7,68.9,19.8,121.4c-10.2,92.1-76.7,148.7-148.6,209.8
		c-55,46.8-132.9,111.7-175.8,90.1C1427.5,863.4,1430.8,812,1436,743.4z"/>
</g>
<g id="Layer_20">
	
		<linearGradient id="SVGID_4_" gradientUnits="userSpaceOnUse" x1="759.9712" y1="770.7813" x2="1431.4686" y2="770.7813" gradientTransform="matrix(0.8256 0.1813 -0.2145 0.9767 548.5363 -572.1368)">
		<stop  offset="0" style="stop-color:#E36A67"/>
		<stop  offset="0.7729" style="stop-color:#ED4F6A"/>
		<stop  offset="0.94" style="stop-color:#F0486B"/>
	</linearGradient>
	<path class="st8" d="M1430.3,669c-4.4-7.2-11.9-21.8-13.8-42.6c-0.3-3.7-2-23.1,3.6-39.9c10.2-31,40.8-35.7,69.7-59
		c44.9-36.2,88.1-97.4,78.6-118.1c-8.9-19.5-69.4-13.7-107.6,24.3c-41,40.8-36.6,98.8-56.7,101.4c-18.4,2.3-42.7-43.8-36.8-86
		c3.3-23.5,13.3-27.5,36.4-68.7c37.4-66.9,45.4-118.1,47.3-132.2c1-7.2,8.6-63.8-3.3-67.8c-13.3-4.5-48,57.4-68.7,114.3
		c-22.5,62.2-18.8,97.3-34.7,102.6c-17.1,5.7-46-26.2-48.2-62.1c-2.3-38,27-54.6,60.5-123.3c21.9-45,47.9-117.1,35.1-127.7
		c-12.2-10.1-70.9,33.2-93.2,97c-18.2,52-1.8,87.6-18.7,99c-16.3,11-41.1-8.5-47.1-13.2c-16.8-13.3-37.8-41.5-30.5-62.5
		c5.6-16.3,22.1-10.5,43.1-34.9c19.3-22.3,25.3-50,26.3-55.3c4.2-20.8-0.9-24.5,3.7-44.7c6.8-29.6,23.1-45,21.4-46.8
		c-2.4-2.6-37.6,25.6-65.9,74.2c-23,39.5-29,71.2-35.6,70.1c-7.8-1.3,4.6-44.8-13.3-91.6c0,0-17.8-46.3-63.4-66.6
		c-21.2-9.5-28.4-3.3-30-1.8c-7.1,6.8-6.1,20.9-5.3,30.2c3.2,39.4,24.8,66.5,31.8,75.1c32.2,39,66.6,50.9,64.7,56.1
		c-2.1,5.6-38.1-15.6-84.9-5.5c-25.9,5.6-57.2,21.3-57.1,34.2c0.1,12.7,32.1,26.4,63,22.2c36.7-4.9,51.2-32.1,68-23.4
		c14.8,7.7,7.3,30.6,24,61.6c20.1,37.4,53.5,46.2,51.4,52c-3.5,9.5-78.8-40.4-139.6-5.5c-33.2,19.1-61.7,63.3-52.9,84.2
		c7.9,18.8,48.2,12.1,92.2,4.7l0,0c86.3-22.3,105.3-41.6,123.4-31.6c20.4,11.3,31.3,55.4,18.3,78.3c-17.8,31.5-68.1-0.7-147.2,33.6
		c-8.3,3.6-79.7,35-77.9,59.6c2.3,31.2,123.9,68.7,199.3,10.2c20.5-15.9,36-37.6,57.1-34.2c24.5,4,46.1,40.2,38.7,63.6
		c-7.5,23.8-40.8,21.1-112.9,48.3c-46.5,17.5-106.4,40.1-106.5,60.5c0,23.2,77.3,58.1,137,26.5c34.6-18.3,51.2-52.5,74.9-45.9
		c21.5,6,24.2,38.6,44,39.6C1406.8,702,1420.9,683.9,1430.3,669z"/>
</g>
<g id="Layer_13">
	
		<linearGradient id="SVGID_5_" gradientUnits="userSpaceOnUse" x1="1051.4644" y1="-70.2197" x2="1418.8386" y2="-70.2197" gradientTransform="matrix(0.3114 0.9503 -0.9503 0.3114 600.3889 -289.5907)">
		<stop  offset="0" style="stop-color:#E36A67"/>
		<stop  offset="0.7729" style="stop-color:#ED4F6A"/>
		<stop  offset="0.94" style="stop-color:#F0486B"/>
	</linearGradient>
	<path class="st9" d="M1160.5,816.5c4.5,18.3-5.3,27.6-14.9,68.9c-8.7,37.2-7.2,41.5-14.3,70.9c-4.7,19.4-12.6,47.7-26.3,81.5
		c-37.6,12.5-45.8,15.2-45.8,15c-0.1-0.3,35-6.7,45.3-30.3c1.4-3.3,4.7-10.9,1.4-15.9c-9.3-13.8-61.6,7.4-62.4,5
		c-0.5-1.6,25.5-7.3,48.6-27c5.1-4.3,18.9-16.3,28-35.7c12.5-26.6,2.4-37.5,11-80.9c5.8-29,14.6-45.7,10.9-47.7
		c-4.5-2.4-21.2,19-47.3,44.2c-2,2-5.6,5.6-11.2,9.2c-10.2,6.5-18.8,6.7-44,24.4c-21.6,15.1-35,28.7-62.5,38.2
		c-1,0.3-15.6,5.3-16.6,3.2c-0.8-1.8,8.3-7.6,30-23.1c19.3-13.7,25-18.3,24-21.1c-1.6-4.3-17.1,1.9-33.1-6.8
		c-7.9-4.3-14.4-11.3-13.2-13.3c1.8-3.2,19.4,8.7,41.1,10.8c23.7,2.3,54-7,73.8-30.8c17.5-21.1,30.9-57.8,16.3-78.2
		c-9.6-13.4-21.4-5.9-70.9-20.9c-34.8-10.6-52.2-21.3-61.6-12.9c-8.8,7.8,0.9,22.5-9.4,31.8c-11.9,10.7-35.3,3.7-47.1-2.2
		c-7.6-3.9-16.2-10.2-15.2-12.7c2.1-5,40.3,13.6,51.1,0.9c4.2-5,3.6-14,0.1-19.9c-11.8-20.2-59.8-10.7-60.3-15.6
		c-0.2-2.2,9.9-6.6,21.9-7.2c18.5-0.9,29.7,6.3,45.7,11.5c18.1,5.9,25.3,3.4,50.4,5.6c24.8,2.1,75.3,6.5,117.9,36.4
		C1138.2,783.6,1155.3,795.6,1160.5,816.5z"/>
	
		<linearGradient id="SVGID_6_" gradientUnits="userSpaceOnUse" x1="1739.4327" y1="-38.8356" x2="1739.4327" y2="-38.8356" gradientTransform="matrix(0.3114 0.9503 -0.9503 0.3114 600.3889 -289.5907)">
		<stop  offset="0" style="stop-color:#E30260"/>
		<stop  offset="0.1912" style="stop-color:#C70257"/>
		<stop  offset="0.6002" style="stop-color:#81023F"/>
		<stop  offset="0.94" style="stop-color:#43022A"/>
	</linearGradient>
	<path class="st10" d="M1179,1351.3"/>
</g>
<g id="Layer_12">
	
		<radialGradient id="SVGID_7_" cx="1154.1837" cy="24.0944" r="37.758" gradientTransform="matrix(0.3114 0.9503 -0.9503 0.3114 600.3889 -289.5907)" gradientUnits="userSpaceOnUse">
		<stop  offset="0" style="stop-color:#E95D00"/>
		<stop  offset="0.45" style="stop-color:#E94200"/>
		<stop  offset="0.94" style="stop-color:#E91F00"/>
	</radialGradient>
	<circle class="st11" cx="936.9" cy="814.7" r="37.8"/>
	
		<radialGradient id="SVGID_8_" cx="1242.2858" cy="-13.6636" r="37.758" gradientTransform="matrix(0.3114 0.9503 -0.9503 0.3114 600.3889 -289.5907)" gradientUnits="userSpaceOnUse">
		<stop  offset="0" style="stop-color:#E95D00"/>
		<stop  offset="0.45" style="stop-color:#E94200"/>
		<stop  offset="0.94" style="stop-color:#E91F00"/>
	</radialGradient>
	<circle class="st12" cx="1000.2" cy="886.7" r="37.8"/>
	
		<radialGradient id="SVGID_9_" cx="1317.8018" cy="-13.6636" r="37.758" gradientTransform="matrix(0.3114 0.9503 -0.9503 0.3114 600.3889 -289.5907)" gradientUnits="userSpaceOnUse">
		<stop  offset="0" style="stop-color:#E95D00"/>
		<stop  offset="0.45" style="stop-color:#E94200"/>
		<stop  offset="0.94" style="stop-color:#E91F00"/>
	</radialGradient>
	<circle class="st13" cx="1023.7" cy="958.4" r="37.8"/>
	
		<radialGradient id="SVGID_10_" cx="1403.806" cy="-13.6636" r="37.758" gradientTransform="matrix(0.3114 0.9503 -0.9503 0.3114 600.3889 -289.5907)" gradientUnits="userSpaceOnUse">
		<stop  offset="0" style="stop-color:#E95D00"/>
		<stop  offset="0.45" style="stop-color:#E94200"/>
		<stop  offset="0.94" style="stop-color:#E91F00"/>
	</radialGradient>
	<circle class="st14" cx="1050.5" cy="1040.2" r="37.8"/>
	
		<radialGradient id="SVGID_11_" cx="791.196" cy="-417.0373" r="37.758" gradientTransform="matrix(-0.3168 0.9485 -0.9485 -0.3168 733.4652 -31.0074)" gradientUnits="userSpaceOnUse">
		<stop  offset="0" style="stop-color:#E95D00"/>
		<stop  offset="0.45" style="stop-color:#E94200"/>
		<stop  offset="0.94" style="stop-color:#E91F00"/>
	</radialGradient>
	<circle class="st15" cx="878.4" cy="851.6" r="37.8"/>
	
		<radialGradient id="SVGID_12_" cx="1288.4343" cy="47.1688" r="37.758" gradientTransform="matrix(0.3114 0.9503 -0.9503 0.3114 600.3889 -289.5907)" gradientUnits="userSpaceOnUse">
		<stop  offset="0" style="stop-color:#E95D00"/>
		<stop  offset="0.45" style="stop-color:#E94200"/>
		<stop  offset="0.94" style="stop-color:#E91F00"/>
	</radialGradient>
	<circle class="st16" cx="956.8" cy="949.5" r="37.8"/>
	
		<radialGradient id="SVGID_13_" cx="1280.0437" cy="-51.4216" r="37.758" gradientTransform="matrix(0.3114 0.9503 -0.9503 0.3114 600.3889 -289.5907)" gradientUnits="userSpaceOnUse">
		<stop  offset="0" style="stop-color:#E95D00"/>
		<stop  offset="0.45" style="stop-color:#E94200"/>
		<stop  offset="0.94" style="stop-color:#E91F00"/>
	</radialGradient>
	<circle class="st17" cx="1047.9" cy="910.8" r="37.8"/>
	
		<radialGradient id="SVGID_14_" cx="1366.0481" cy="47.1688" r="37.758" gradientTransform="matrix(0.3114 0.9503 -0.9503 0.3114 600.3889 -289.5907)" gradientUnits="userSpaceOnUse">
		<stop  offset="0" style="stop-color:#E95D00"/>
		<stop  offset="0.45" style="stop-color:#E94200"/>
		<stop  offset="0.94" style="stop-color:#E91F00"/>
	</radialGradient>
	<circle class="st18" cx="981" cy="1023.2" r="37.8"/>
	
		<radialGradient id="SVGID_15_" cx="1223.4067" cy="47.1688" r="37.758" gradientTransform="matrix(0.3114 0.9503 -0.9503 0.3114 600.3889 -289.5907)" gradientUnits="userSpaceOnUse">
		<stop  offset="0" style="stop-color:#E95D00"/>
		<stop  offset="0.45" style="stop-color:#E94200"/>
		<stop  offset="0.94" style="stop-color:#E91F00"/>
	</radialGradient>
	<circle class="st19" cx="936.5" cy="887.7" r="37.8"/>
	
		<radialGradient id="SVGID_16_" cx="1317.8018" cy="137.3685" r="37.758" gradientTransform="matrix(0.3114 0.9503 -0.9503 0.3114 600.3889 -289.5907)" gradientUnits="userSpaceOnUse">
		<stop  offset="0" style="stop-color:#E95D00"/>
		<stop  offset="0.45" style="stop-color:#E94200"/>
		<stop  offset="0.94" style="stop-color:#E91F00"/>
	</radialGradient>
	<circle class="st20" cx="880.2" cy="1005.5" r="37.8"/>
	
		<radialGradient id="SVGID_17_" cx="968.7673" cy="1208.4717" r="37.758" gradientTransform="matrix(0.999 -4.557878e-02 5.328548e-02 1.1679 -17.2163 -308.8884)" gradientUnits="userSpaceOnUse">
		<stop  offset="0" style="stop-color:#E95D00"/>
		<stop  offset="0.45" style="stop-color:#E94200"/>
		<stop  offset="0.94" style="stop-color:#E91F00"/>
	</radialGradient>
	<path class="st21" d="M1052.7,1056.6c1.1,24.4-14.9,44.9-35.7,45.8s-38.6-18-39.7-42.4c-1.1-24.4,14.9-44.9,35.7-45.8
		C1033.8,1013.2,1051.5,1032.2,1052.7,1056.6z"/>
	
		<radialGradient id="SVGID_18_" cx="1099.6444" cy="84.9268" r="37.758" gradientTransform="matrix(0.3114 0.9503 -0.9503 0.3114 600.3889 -289.5907)" gradientUnits="userSpaceOnUse">
		<stop  offset="0" style="stop-color:#E95D00"/>
		<stop  offset="0.45" style="stop-color:#E94200"/>
		<stop  offset="0.94" style="stop-color:#E91F00"/>
	</radialGradient>
	<circle class="st22" cx="862.1" cy="781.8" r="37.8"/>
	
		<radialGradient id="SVGID_19_" cx="1208.723" cy="128.9778" r="37.758" gradientTransform="matrix(0.3114 0.9503 -0.9503 0.3114 600.3889 -289.5907)" gradientUnits="userSpaceOnUse">
		<stop  offset="0" style="stop-color:#E95D00"/>
		<stop  offset="0.45" style="stop-color:#E94200"/>
		<stop  offset="0.94" style="stop-color:#E91F00"/>
	</radialGradient>
	<circle class="st23" cx="854.2" cy="899.2" r="37.8"/>
	
		<radialGradient id="SVGID_20_" cx="1393.3177" cy="99.6105" r="37.758" gradientTransform="matrix(0.3114 0.9503 -0.9503 0.3114 600.3889 -289.5907)" gradientUnits="userSpaceOnUse">
		<stop  offset="0" style="stop-color:#E95D00"/>
		<stop  offset="0.45" style="stop-color:#E94200"/>
		<stop  offset="0.94" style="stop-color:#E91F00"/>
	</radialGradient>
	<circle class="st24" cx="939.6" cy="1065.5" r="37.8"/>
	
		<radialGradient id="SVGID_21_" cx="1235.9927" cy="89.1221" r="37.758" gradientTransform="matrix(0.3114 0.9503 -0.9503 0.3114 600.3889 -289.5907)" gradientUnits="userSpaceOnUse">
		<stop  offset="0" style="stop-color:#E95D00"/>
		<stop  offset="0.45" style="stop-color:#E94200"/>
		<stop  offset="0.94" style="stop-color:#E91F00"/>
	</radialGradient>
	<circle class="st25" cx="900.6" cy="912.7" r="37.8"/>
	
		<radialGradient id="SVGID_22_" cx="1332.4854" cy="91.2198" r="37.758" gradientTransform="matrix(0.3114 0.9503 -0.9503 0.3114 600.3889 -289.5907)" gradientUnits="userSpaceOnUse">
		<stop  offset="0" style="stop-color:#E95D00"/>
		<stop  offset="0.45" style="stop-color:#E94200"/>
		<stop  offset="0.94" style="stop-color:#E91F00"/>
	</radialGradient>
	<circle class="st26" cx="928.6" cy="1005" r="37.8"/>
	
		<radialGradient id="SVGID_23_" cx="1261.1647" cy="137.3685" r="37.758" gradientTransform="matrix(0.3114 0.9503 -0.9503 0.3114 600.3889 -289.5907)" gradientUnits="userSpaceOnUse">
		<stop  offset="0" style="stop-color:#E95D00"/>
		<stop  offset="0.45" style="stop-color:#E94200"/>
		<stop  offset="0.94" style="stop-color:#E91F00"/>
	</radialGradient>
	<circle class="st27" cx="862.6" cy="951.6" r="37.8"/>
	<g>
		<g>
			<path class="st28" d="M1099.9,663c1.9,0,1.9-3,0-3C1098,660,1098,663,1099.9,663L1099.9,663z"/>
		</g>
	</g>
	<g>
		<g>
			<path class="st28" d="M1211.4,763c1.9,0,1.9-3,0-3C1209.4,760,1209.4,763,1211.4,763L1211.4,763z"/>
		</g>
	</g>
	
		<linearGradient id="SVGID_24_" gradientUnits="userSpaceOnUse" x1="-120.45" y1="163.2394" x2="246.9243" y2="163.2394" gradientTransform="matrix(-0.6074 -0.7944 0.7944 -0.6074 1645.3391 395.8351)">
		<stop  offset="0" style="stop-color:#E36A67"/>
		<stop  offset="0.7729" style="stop-color:#ED4F6A"/>
		<stop  offset="0.94" style="stop-color:#F0486B"/>
	</linearGradient>
	<path class="st29" d="M1649.1,325.5c-10.3-15.8-4.1-27.8-8.6-70c-4.1-38-6.9-41.6-9.9-71.7c-2-19.9-3.8-49.1-2.1-85.6
		c31.3-24.2,38.2-29.4,38.3-29.3c0.2,0.2-30.9,17.9-32.7,43.5c-0.3,3.6-0.9,11.9,3.9,15.5c13.3,10,55.7-27.3,57.2-25.3
		c1.1,1.4-21.6,15.3-37,41.5c-3.4,5.8-12.5,21.6-14.7,42.9c-3.1,29.2,10.1,36.2,16.3,80c4.1,29.2,1.3,48,5.5,48.6
		c5,0.7,13.8-24.9,30.1-57.3c1.3-2.5,3.4-7.2,7.6-12.4c7.5-9.5,15.5-12.6,33.5-37.5c15.4-21.4,23.6-38.6,46.5-56.7
		c0.8-0.6,13-10.2,14.6-8.5c1.4,1.4-5.3,9.9-20.7,31.7c-13.7,19.3-17.6,25.5-15.7,27.8c2.9,3.6,15.5-7.4,33.5-4.5
		c8.8,1.4,17.3,5.9,16.9,8.2c-0.6,3.6-21.2-1.9-42.3,3.3c-23.2,5.7-48.7,24.4-59.5,53.4c-9.6,25.7-10.1,64.8,10.4,79.2
		c13.5,9.5,22.1-1.5,73.8-3.6c36.4-1.5,56.3,2.9,62.4-8.1c5.7-10.3-8.3-20.9-1.6-33.1c7.7-14,32.1-15.1,45.2-13.4
		c8.5,1.1,18.7,4.3,18.5,7c-0.3,5.4-42.6,0.4-48.5,16c-2.3,6.1,1.3,14.4,6.5,18.8c17.8,15.2,60-9.6,62-5.2c0.9,2-7.2,9.5-18.3,14
		c-17.2,7-30.1,3.9-47,4.2c-19,0.4-25,5.2-49.4,11.4c-24.1,6.2-73.3,18.7-123.3,4.5C1680.9,349.3,1660.8,343.6,1649.1,325.5z"/>
	
		<linearGradient id="SVGID_25_" gradientUnits="userSpaceOnUse" x1="567.5184" y1="194.6236" x2="567.5184" y2="194.6236" gradientTransform="matrix(-0.6074 -0.7944 0.7944 -0.6074 1645.3391 395.8351)">
		<stop  offset="0" style="stop-color:#E30260"/>
		<stop  offset="0.1912" style="stop-color:#C70257"/>
		<stop  offset="0.6002" style="stop-color:#81023F"/>
		<stop  offset="0.94" style="stop-color:#43022A"/>
	</linearGradient>
	<path class="st30" d="M1455.2-173.2"/>
	
		<radialGradient id="SVGID_26_" cx="-17.7307" cy="257.5536" r="37.758" gradientTransform="matrix(-0.6074 -0.7944 0.7944 -0.6074 1645.3391 395.8351)" gradientUnits="userSpaceOnUse">
		<stop  offset="0" style="stop-color:#E95D00"/>
		<stop  offset="0.45" style="stop-color:#E94200"/>
		<stop  offset="0.94" style="stop-color:#E91F00"/>
	</radialGradient>
	<circle class="st31" cx="1860.7" cy="253.5" r="37.8"/>
	
		<radialGradient id="SVGID_27_" cx="70.3714" cy="219.7956" r="37.758" gradientTransform="matrix(-0.6074 -0.7944 0.7944 -0.6074 1645.3391 395.8351)" gradientUnits="userSpaceOnUse">
		<stop  offset="0" style="stop-color:#E95D00"/>
		<stop  offset="0.45" style="stop-color:#E94200"/>
		<stop  offset="0.94" style="stop-color:#E91F00"/>
	</radialGradient>
	<circle class="st32" cx="1777.2" cy="206.4" r="37.8"/>
	
		<radialGradient id="SVGID_28_" cx="145.8874" cy="219.7956" r="37.758" gradientTransform="matrix(-0.6074 -0.7944 0.7944 -0.6074 1645.3391 395.8351)" gradientUnits="userSpaceOnUse">
		<stop  offset="0" style="stop-color:#E95D00"/>
		<stop  offset="0.45" style="stop-color:#E94200"/>
		<stop  offset="0.94" style="stop-color:#E91F00"/>
	</radialGradient>
	<circle class="st33" cx="1731.3" cy="146.4" r="37.8"/>
	
		<radialGradient id="SVGID_29_" cx="231.8917" cy="219.7956" r="37.758" gradientTransform="matrix(-0.6074 -0.7944 0.7944 -0.6074 1645.3391 395.8351)" gradientUnits="userSpaceOnUse">
		<stop  offset="0" style="stop-color:#E95D00"/>
		<stop  offset="0.45" style="stop-color:#E94200"/>
		<stop  offset="0.94" style="stop-color:#E91F00"/>
	</radialGradient>
	<circle class="st34" cx="1679.1" cy="78.1" r="37.8"/>
	
		<radialGradient id="SVGID_30_" cx="-10.2139" cy="469.3196" r="37.758" gradientTransform="matrix(-1.378126e-02 -0.9999 0.9999 -1.378126e-02 1434.4143 195.6218)" gradientUnits="userSpaceOnUse">
		<stop  offset="0" style="stop-color:#E95D00"/>
		<stop  offset="0.45" style="stop-color:#E94200"/>
		<stop  offset="0.94" style="stop-color:#E91F00"/>
	</radialGradient>
	<circle class="st35" cx="1903.8" cy="199.4" r="37.8"/>
	
		<radialGradient id="SVGID_31_" cx="116.52" cy="280.628" r="37.758" gradientTransform="matrix(-0.6074 -0.7944 0.7944 -0.6074 1645.3391 395.8351)" gradientUnits="userSpaceOnUse">
		<stop  offset="0" style="stop-color:#E95D00"/>
		<stop  offset="0.45" style="stop-color:#E94200"/>
		<stop  offset="0.94" style="stop-color:#E91F00"/>
	</radialGradient>
	<circle class="st36" cx="1797.5" cy="132.8" r="37.8"/>
	
		<radialGradient id="SVGID_32_" cx="108.1294" cy="182.0376" r="37.758" gradientTransform="matrix(-0.6074 -0.7944 0.7944 -0.6074 1645.3391 395.8351)" gradientUnits="userSpaceOnUse">
		<stop  offset="0" style="stop-color:#E95D00"/>
		<stop  offset="0.45" style="stop-color:#E94200"/>
		<stop  offset="0.94" style="stop-color:#E91F00"/>
	</radialGradient>
	<circle class="st37" cx="1724.3" cy="199.4" r="37.8"/>
	
		<radialGradient id="SVGID_33_" cx="194.1337" cy="280.628" r="37.758" gradientTransform="matrix(-0.6074 -0.7944 0.7944 -0.6074 1645.3391 395.8351)" gradientUnits="userSpaceOnUse">
		<stop  offset="0" style="stop-color:#E95D00"/>
		<stop  offset="0.45" style="stop-color:#E94200"/>
		<stop  offset="0.94" style="stop-color:#E91F00"/>
	</radialGradient>
	<circle class="st38" cx="1750.3" cy="71.2" r="37.8"/>
	
		<radialGradient id="SVGID_34_" cx="51.4924" cy="280.628" r="37.758" gradientTransform="matrix(-0.6074 -0.7944 0.7944 -0.6074 1645.3391 395.8351)" gradientUnits="userSpaceOnUse">
		<stop  offset="0" style="stop-color:#E95D00"/>
		<stop  offset="0.45" style="stop-color:#E94200"/>
		<stop  offset="0.94" style="stop-color:#E91F00"/>
	</radialGradient>
	<circle class="st39" cx="1837" cy="184.5" r="37.8"/>
	
		<radialGradient id="SVGID_35_" cx="145.8874" cy="370.8276" r="37.758" gradientTransform="matrix(-0.6074 -0.7944 0.7944 -0.6074 1645.3391 395.8351)" gradientUnits="userSpaceOnUse">
		<stop  offset="0" style="stop-color:#E95D00"/>
		<stop  offset="0.45" style="stop-color:#E94200"/>
		<stop  offset="0.94" style="stop-color:#E91F00"/>
	</radialGradient>
	<circle class="st40" cx="1851.3" cy="54.7" r="37.8"/>
	
		<radialGradient id="SVGID_36_" cx="430.0291" cy="296.1295" r="37.758" gradientTransform="matrix(-0.928 0.3725 -0.4355 -1.0849 2234.7419 210.3279)" gradientUnits="userSpaceOnUse">
		<stop  offset="0" style="stop-color:#E95D00"/>
		<stop  offset="0.45" style="stop-color:#E94200"/>
		<stop  offset="0.94" style="stop-color:#E91F00"/>
	</radialGradient>
	<path class="st41" d="M1671.7,63.3c-9.1-22.6-0.8-47.3,18.6-55s42.4,4.3,51.5,26.9s0.8,47.3-18.6,55
		C1703.8,98,1680.7,85.9,1671.7,63.3z"/>
	
		<radialGradient id="SVGID_37_" cx="-72.27" cy="318.386" r="37.758" gradientTransform="matrix(-0.6074 -0.7944 0.7944 -0.6074 1645.3391 395.8351)" gradientUnits="userSpaceOnUse">
		<stop  offset="0" style="stop-color:#E95D00"/>
		<stop  offset="0.45" style="stop-color:#E94200"/>
		<stop  offset="0.94" style="stop-color:#E91F00"/>
	</radialGradient>
	<circle class="st42" cx="1942.2" cy="259.8" r="37.8"/>
	
		<radialGradient id="SVGID_38_" cx="36.8087" cy="362.437" r="37.758" gradientTransform="matrix(-0.6074 -0.7944 0.7944 -0.6074 1645.3391 395.8351)" gradientUnits="userSpaceOnUse">
		<stop  offset="0" style="stop-color:#E95D00"/>
		<stop  offset="0.45" style="stop-color:#E94200"/>
		<stop  offset="0.94" style="stop-color:#E91F00"/>
	</radialGradient>
	<circle class="st43" cx="1910.9" cy="146.4" r="37.8"/>
	
		<radialGradient id="SVGID_39_" cx="221.4034" cy="333.0696" r="37.758" gradientTransform="matrix(-0.6074 -0.7944 0.7944 -0.6074 1645.3391 395.8351)" gradientUnits="userSpaceOnUse">
		<stop  offset="0" style="stop-color:#E95D00"/>
		<stop  offset="0.45" style="stop-color:#E94200"/>
		<stop  offset="0.94" style="stop-color:#E91F00"/>
	</radialGradient>
	<circle class="st44" cx="1775.4" cy="17.6" r="37.8"/>
	
		<radialGradient id="SVGID_40_" cx="64.0784" cy="322.5813" r="37.758" gradientTransform="matrix(-0.6074 -0.7944 0.7944 -0.6074 1645.3391 395.8351)" gradientUnits="userSpaceOnUse">
		<stop  offset="0" style="stop-color:#E95D00"/>
		<stop  offset="0.45" style="stop-color:#E94200"/>
		<stop  offset="0.94" style="stop-color:#E91F00"/>
	</radialGradient>
	<circle class="st45" cx="1862.7" cy="149" r="37.8"/>
	
		<radialGradient id="SVGID_41_" cx="160.571" cy="324.679" r="37.758" gradientTransform="matrix(-0.6074 -0.7944 0.7944 -0.6074 1645.3391 395.8351)" gradientUnits="userSpaceOnUse">
		<stop  offset="0" style="stop-color:#E95D00"/>
		<stop  offset="0.45" style="stop-color:#E94200"/>
		<stop  offset="0.94" style="stop-color:#E91F00"/>
	</radialGradient>
	<circle class="st46" cx="1805.7" cy="71.1" r="37.8"/>
	
		<radialGradient id="SVGID_42_" cx="89.2504" cy="370.8276" r="37.758" gradientTransform="matrix(-0.6074 -0.7944 0.7944 -0.6074 1645.3391 395.8351)" gradientUnits="userSpaceOnUse">
		<stop  offset="0" style="stop-color:#E95D00"/>
		<stop  offset="0.45" style="stop-color:#E94200"/>
		<stop  offset="0.94" style="stop-color:#E91F00"/>
	</radialGradient>
	<circle class="st47" cx="1885.7" cy="99.7" r="37.8"/>
</g>
<g id="Layer_18" class="st0">
	<linearGradient id="SVGID_43_" gradientUnits="userSpaceOnUse" x1="1199.0708" y1="243.0333" x2="985.7567" y2="850.5316">
		<stop  offset="0" style="stop-color:#E30260"/>
		<stop  offset="0.1912" style="stop-color:#C70257"/>
		<stop  offset="0.6002" style="stop-color:#81023F"/>
		<stop  offset="0.94" style="stop-color:#43022A"/>
	</linearGradient>
	<path class="st48" d="M1379,593.5c-12.1,15.4-27.3,27.8-44.3,36.8c3.9-11.7,10.4-22.3,19.2-31.1c5.9-5.9-3.3-15.1-9.2-9.2
		c-11.7,11.7-20.1,26.3-24.2,42.3c-0.4,1.7-0.2,3.1,0.4,4.4c-8.6,3.4-17.5,6.1-26.5,7.9c2.9-17.5,12.4-33.3,26.5-44.4
		c6.6-5.2-2.7-14.3-9.2-9.2c-17.3,13.6-28.1,33.9-30.7,55.5c-6.2,0.6-12.4,0.9-18.7,0.7c2.7-16,7.4-31.6,13.9-46.5
		c0.9,0.2,1.8,0.1,2.7-0.3c10.1-4.2,19.1-9.8,27.2-17.1c6.2-5.6-3-14.8-9.2-9.2c-3.7,3.4-7.7,6.4-12,8.9c2.9-5.3,6-10.4,9.4-15.4
		c4.7-7-6.6-13.5-11.2-6.6c-17.3,25.7-28.6,54.7-33.6,85.1c-9.5-1.2-19-3.4-28.1-6.6c-2.1-0.8-3.9-0.4-5.3,0.6
		c33.4-41.3,58.9-89.1,74.4-139.8c24.4-3.2,47.6-12,67.8-26.3c6.8-4.8,0.3-16.1-6.6-11.2c-6.5,4.6-13.4,8.7-20.5,12.1
		c1.4-5.6,3.7-10.9,7.2-15.5c2.1-2.8,2.7-6.5,0-9.2c-2.2-2.2-7-2.8-9.2,0c-5.3,6.8-9.1,14.3-10.9,22.8c-0.6,2.9,0.5,5.1,2.3,6.5
		c-8.5,3.3-17.3,5.7-26.3,7.2c3.3-12.5,6.1-25.1,8.2-37.8c0.1-0.6,0.2-1.1,0.3-1.7c14.3-2.9,26.3-13.8,28.7-28.7
		c1.3-8.2-11.2-11.7-12.5-3.5c-1.3,8-6.6,15.4-14.2,18.4c3-24.7,2.9-49.7-2.8-74.1c-1.9-8.1-14.4-4.7-12.5,3.5
		c2.7,11.5,4.1,23.3,4.5,35.1c-1.2-1.5-2.3-3-3.3-4.7c-4.2-7.2-15.5-0.7-11.2,6.6c3.6,6.2,8.5,11.3,14.3,15.4
		c-0.5,9.6-1.5,19.2-3,28.7c-9.3-6.3-16.7-15.2-20.8-25.9c-2.9-7.7-15.5-4.4-12.5,3.5c5.8,15.3,16.5,28.2,30.8,36.2
		c-2.6,12.4-5.8,24.6-9.4,36.5c-8.9-9-16.4-19.1-22.3-30.1c3.5,0.4,7.2-1.7,6.9-6.2c-0.4-6.6-0.8-13.2-1.3-19.8
		c-0.5-8.3-13.5-8.4-13,0c0.2,3.9,0.5,7.8,0.7,11.6c-0.5-1.3-1-2.7-1.5-4c-2.7-7.9-15.3-4.5-12.5,3.5c7.7,22.3,20.6,42.3,38,58.4
		c0.2,0.2,0.4,0.3,0.6,0.5c-13.8,40.6-34.1,78.9-59.8,113.2c-2,2.7-4.1,5.4-6.2,8c-5-9.1-9.5-18.4-13.7-27.9
		c24.4-23.4,42.5-52.8,52.6-85.1c2.5-8-10-11.4-12.5-3.5c-2.7,8.7-6.1,17.2-10,25.4c-3.4-5.5-4.8-12.3-3.8-18.7
		c0.5-3.5-0.9-6.9-4.5-8c-3.1-0.9-7.5,1.1-8,4.5c-1.9,12.5,1.1,24.1,9,34c0.2,0.3,0.4,0.5,0.7,0.7c-7.9,13.7-17.6,26.3-28.7,37.7
		c-4.3-11.1-8.1-22.4-11.4-33.9c0-0.5-0.1-1-0.3-1.5c-0.7-2.6-1.5-5.2-2.2-7.8c2.6,0.9,5.8,0.4,7.8-2.4c8.9-11.9,14-25.5,16-40.2
		c0.5-3.5-3.3-6.5-6.5-6.5c-3.9,0-6,3-6.5,6.5c-1.6,11.9-6.4,22.9-13.4,32.5c-3.7-14.6-7-29.3-9.7-44.1c1.3-0.1,2.7-0.7,3.9-2
		c5.5-6,9.3-13.3,10.4-21.5c0.5-3.5-0.8-7-4.5-8c-3-0.8-7.5,1-8,4.5c-0.6,4.5-2,8.6-4.4,12.2c-1.6-9.6-3-19.2-4.1-28.9
		c-0.4-3.5-2.7-6.5-6.5-6.5c-3.2,0-6.9,3-6.5,6.5c1,8.7,2.3,17.3,3.6,25.9c-2-1.2-4.1-2.5-6.1-3.7c-7.2-4.4-13.7,6.9-6.6,11.2
		c5.1,3.1,10.2,6.2,15.2,9.3c0.1,0.1,0.2,0.1,0.3,0.2c3.1,17.1,6.8,34.1,11.1,50.9c-12.3-0.9-24.1-11-25.5-23.4
		c-0.9-8.2-13.9-8.3-13,0c2.4,21.1,21.1,36.9,41.8,36.3c8.1,30,19.9,58.9,35.1,85.9c-9.7,11.4-20.1,22.2-31,32.4
		c-6-13.6-12-27.3-18.2-40.8c-3.7-8-7.4-16.1-11.1-24.1c11.3,5.5,24.3,7.6,37.1,5.4c8.2-1.4,4.7-13.9-3.5-12.5
		c-18.3,3.1-37.5-6.1-47.2-21.9c-0.2-0.3-0.3-0.5-0.5-0.7c-9.7-20.4-19.7-40.8-29.8-61c1.1-0.5,2.1-1.4,2.8-2.9
		c9.4-20,17.6-40.4,24.6-61.3c2-1.5,3.2-4,2.2-6.8c0.2-0.6,0.4-1.3,0.6-1.9c0.5-0.3,0.9-0.7,1.4-1.2c6.7-7.4,15-12,24.7-13.8
		c8.2-1.6,4.7-14.1-3.5-12.5c-5.7,1.1-11.2,3.1-16.2,5.9c1.3-4.8,2.6-9.6,3.8-14.4c1.2-0.2,2.4-0.8,3.4-1.8
		c5.1-5.1,10.2-10.2,15.3-15.3c5.9-5.9-3.3-15.1-9.2-9.2c-1.6,1.6-3.1,3.1-4.7,4.7c2.4-11.5,4.4-23.1,6-34.7c0.5-3.5-0.9-6.9-4.5-8
		c-3-0.9-7.5,1.1-8,4.5c-2.2,15.6-5.1,31.1-8.6,46.5l-6.5-8.8c-2.1-2.8-5.6-4.2-8.9-2.3c-2.8,1.6-4.4,6.1-2.3,8.9
		c3.1,4.1,6.1,8.2,9.2,12.3c1.4,1.8,3.3,3.1,5.4,3.2c-1.9,7.7-4,15.3-6.3,22.8c-5.2-8.8-10.4-17.6-15.6-26.4
		c-4.2-7.2-15.5-0.7-11.2,6.6c7.2,12.2,14.4,24.3,21.5,36.5c-6.4,19.1-13.8,37.9-22.2,56.2c-8-15.8-16.1-31.6-24.2-47.3
		c-0.8-0.4-1.6-1.1-2.1-1.9c-2.7-3.6-5.3-7.2-7.8-10.9c-0.3,0-0.6,0-0.9,0c-7.4-11.3-14.9-22.5-22.8-33.5c9-16,17-32.5,23.9-49.4
		c10.8,4.7,22.8,0.8,32.1-6c11.3-8.3,21.5-18.2,31-28.5c5.6-6.2-3.5-15.4-9.2-9.2c-1,1.1-2,2.2-3.1,3.3c0.9-4.2,2.4-8.2,4.4-12
		c3.9-7.4-7.3-14-11.2-6.6c-4.6,8.6-7.1,17.9-7.4,27.7c-0.1,1.6,0.4,2.8,1,3.8c-2.7,2.4-5.4,4.8-8.2,7.1c-6.6,5.5-16,12.6-24.8,8.3
		c4.5-11.9,8.4-24,11.8-36.3c15.3-7.6,26.7-20.6,33.2-36.3c1.3-3.3-1.5-7.1-4.5-8c-3.7-1.1-6.7,1.3-8,4.5c-3.5,8.4-9,15.6-15.9,21.3
		c2.8-11.9,5-23.9,6.8-36c2.1,0.5,4.4-0.2,6.3-1.7c5.7-4.5,9.7-11.3,10.9-18.5c0.6-3.5-0.9-7-4.5-8c-3.1-0.9-7.4,1.1-8,4.5
		c-0.4,2.7-1.3,5-2.6,7.2c1.2-11,2-22,2.3-33.1c0.3-8.4-12.7-8.4-13,0c-0.3,10.5-1.1,20.9-2.2,31.3c-1.4-6.2-1.8-12.5-1.1-19
		c0.8-8.3-12.2-8.3-13,0c-1.3,14,1.7,27.8,8.4,40.1c0.7,1.3,1.6,2.1,2.6,2.6c-2.5,15.4-5.9,30.7-10.1,45.8c-0.3-0.9-0.8-1.8-1.5-2.7
		c-13.1-14.3-14.1-35.3-14.9-53.7c-0.4-8.3-13.4-8.4-13,0c1,22.2,3,45.7,18.7,62.9c2.8,3.1,6.6,2.3,8.9,0c-4.1,14-9,27.7-14.5,41.2
		c-0.8-2-1.7-4.1-2.5-6.1c-0.9-2.1-2.4-3.8-4.4-4.5c-7.7-11-13.9-23-18.4-35.7c1-0.5,1.9-1.3,2.4-2.4c1.4-3.4,2.9-6.8,4.3-10.1
		c1.2-2.9,3.1-5.9,3.2-9.1c0.2-6.8-7.5-12.4-12.9-6.8c-2.4,2.5-2.3,5.5-0.8,7.8c0,0.1-0.1,0.2-0.1,0.3c-0.4,0.8-0.7,1.7-1.1,2.5
		c-0.9-4.1-1.6-8.2-2.2-12.4c-0.5-3.5-2.7-6.5-6.5-6.5c-3.2,0-7,3-6.5,6.5c3.8,29.4,15.1,56.6,33.1,80.1c1.1,2.6,2.1,5.1,3.2,7.7
		c0.6,1.5,1.6,2.8,2.8,3.7c-4.2,9.1-8.6,18.1-13.4,26.9c-14-18.4-29.4-35.7-47.4-50.5c-11.8-13.9-22.9-28.4-33.1-43.5
		c0.4-1.3,0.5-2.6,0.2-3.8c-0.8-2.9-3.1-4.4-5.7-4.6c-12-18.4-22.8-37.5-32.3-57.2c9.9-12.3,15.4-27.2,15.6-43.1
		c0.1-8.4-12.9-8.4-13,0c-0.2,10.6-3.2,20.8-8.9,29.7c-3.5-7.7-6.7-15.5-9.8-23.4c1.2-0.5,2.2-1.4,3-2.9c3.1-5.8,5.2-12,6.2-18.6
		c0.5-3.5-0.9-7-4.5-8c-3.1-0.8-7.5,1-8,4.5c-0.5,3.3-1.3,6.6-2.4,9.7c-2.8-7.7-5.3-15.5-7.7-23.4c-2.4-8-15-4.6-12.5,3.5
		c2,6.6,4.1,13.1,6.3,19.5c-2.1-2.1-4.6-3.6-7.6-4.4c-3.3-0.9-7.2,1.1-8,4.5c-0.8,3.4,1,7,4.5,8c0.2,0,0.4,0.1,0.5,0.2
		c0.3,0.2,0.8,0.5,1.1,0.7c0.1,0.1,0.2,0.2,0.3,0.2c0.1,0.1,0.3,0.3,0.4,0.4c1.9,2.8,5.8,4.3,8.9,2.3c1.3-0.8,2.3-2.1,2.8-3.5
		c4.1,11.3,8.6,22.4,13.5,33.4c-10.4-1.1-20.1-6.4-27-14.2c-5.5-6.3-14.7,2.9-9.2,9.2c10.8,12.3,26.2,18.4,42.2,18
		c9.2,19.4,19.6,38.1,31.1,56.2c-13.1,0.8-26.2-0.3-39-3.2c0-0.2-0.1-0.5-0.2-0.8c-5.4-19.1-13.3-37.4-23.6-54.4
		c-4.3-7.1-15.6-0.6-11.2,6.6c8.6,14,15.3,28.9,20.3,44.5c-13.7-4.6-26.8-11.3-38.6-19.8c1.9-0.9,3.4-2.8,3.4-5.6
		c-0.1-11.5-3.5-22.6-9.9-32.2c-4.7-6.9-15.9-0.4-11.2,6.6c4.8,7.2,7.6,15,8.1,23.6c-4.7-4-9.1-8.3-13.2-13c-5.6-6.3-14.7,3-9.2,9.2
		c5.8,6.5,12.1,12.4,18.8,17.7c-0.1,0-0.2,0.1-0.3,0.1c-3.3,0.9-5.6,4.7-4.5,8c1.1,3.3,4.5,5.5,8,4.5c3.1-0.9,5.7-2.5,7.9-4.7
		c12.5,8.2,26.2,14.6,40.5,18.9c0.1,0.6,0.3,1.3,0.6,1.9c-0.5,0.5-1,1-1.5,1.6c-1.5,1.6-3.1,3.2-4.7,4.8c-2,1.9-4.1,3.8-6.3,5.6
		c-0.5-1.3-1.4-2.4-2.7-3c-7.3-3.3-14.4-7-21.2-11.2c-7.2-4.4-13.7,6.9-6.6,11.2c6.4,3.9,13.1,7.4,19.9,10.5
		c-4.9,3.1-10,5.8-15.3,8.1c-7.6,3.4-1,14.6,6.6,11.2c11.3-5,21.8-11.8,31.1-19.9c4-3.5,12.4-10.5,14.4-17.3
		c15.7,3.2,31.8,4.1,47.9,2.5c8.7,12.9,17.9,25.4,27.7,37.5c0,2,0.8,4.1,2.8,5.6c1.8,1.3,3.6,2.7,5.3,4.1c0.3,0.4,0.6,0.7,0.9,1.1
		c0.9,1,1.8,1.6,2.8,1.9c37.1,31,62.5,74.2,88.8,114.1c0.5,0.7,1,1.2,1.5,1.7c0.9,1.8,1.7,3.5,2.5,5.3
		c11.6,24.6,20.8,50.2,31.1,75.3c0.5,1.2,0.6,2.4,0.4,3.3c0.7,1.7,1.4,3.5,2.1,5.2c5.1,10.4,10.1,20.9,15.1,31.4
		c-9.1-7.5-19.2-13.8-29.7-19.4c-22.9-12.2-47.1-22.4-71.4-31.5c-4.8-1.8-9.6-3.5-14.4-5.2c-2.8-15.5-7.2-30.6-13.1-45.1
		c4.1-9.1,7.5-18.4,10.3-27.9c1-0.3,1.9-0.8,2.8-1.7c6.6-6.7,13.2-13.3,19.8-20c5.9-6-3.3-15.2-9.2-9.2c-2,2-3.9,4-5.9,5.9
		c1.7-8.2,2.6-16.5,2.6-24.9c0.1-8.4-12.9-8.4-13,0c0,7.3-0.8,14.4-2.2,21.4c-1.3,0.7-2.2,2-2.6,4c-2.2,12.4-5.5,24.6-10,36.4
		c-3.3-6.6-6.9-13.1-10.8-19.4c4-14,5.3-28.6,3.9-43.1c-0.8-8.3-13.8-8.3-13,0c0.9,9.6,0.6,19-0.9,28.3c-3.8-5.1-7.8-10.1-12-15
		v-28.5c0-8.4-13-8.4-13,0v14.8c-8.5-8.3-17.6-16-27.4-22.9c-6.8-4.9-13.3,6.4-6.6,11.2c12.4,8.8,23.8,19,33.9,30.2v0.4
		c0,3.9,2.8,6,5.8,6.2c3.8,4.5,7.4,9.2,10.8,14.1c-0.7-0.6-1.5-1.1-2.5-1.4c-9.9-3.3-19.2-8.1-27.4-14.5c-6.5-5.1-15.8,4-9.2,9.2
		c8.5,6.6,17.6,11.9,27.5,15.8c0.5,0.7,1.2,1.3,2.2,1.8c5.6,2.9,11.1,5.8,16.7,8.7c1.9,1,3.7,1,5.3,0.4c5.2,9.4,9.8,19.2,13.6,29.2
		c-5.4,0-11-2.4-15.9-4.3c-5.7-2.2-11.2-4.8-16.6-7.6c-10.8-5.6-21.1-12.1-30.6-19.7c-6.5-5.1-15.8,4-9.2,9.2
		c11.3,9,23.3,16.9,36.3,23.3c12.4,6.1,26.2,12.9,40.3,11.6c1.9,6,3.5,12.1,4.9,18.2c-26.4-8.6-53.3-15.6-80.4-21
		c-0.7,0.2-1.4,0.4-2.1,0.4c-0.3-0.2-0.6-0.4-0.9-0.6c-1.2-1.4-2.9-2.3-4.9-2.3h-4c-0.3-0.1-0.7-0.2-1-0.2c-0.2-0.1-0.4-0.2-0.6-0.3
		c-0.1,0-0.1,0-0.1,0c0,0-0.1,0-0.1,0c0,0,0,0,0.1,0c-3.4-0.8-6.7-1.6-10.1-2.4c-1.6-0.4-3-0.2-4.2,0.4c-6.2-1-12.4-1.9-18.7-2.8
		c-2.2-0.3-4.5-0.6-6.7-0.8c1.2-1.5,1.7-3.5,0.9-5.9c-2.2-6.3-4.7-12.5-7.6-18.5c0.7-7,0.4-13.9-0.9-20.9c-1.1-5.9-9.7-3.9-9.7,1.6
		c-1.7-2.6-3.4-5.2-5.2-7.7c-5.2-7.3-17.3-0.3-12.1,7.1c0.2,0.2,0.3,0.5,0.5,0.7c-3.1-0.2-6.3,3.2-5.1,6.3c1.9,4.9,4.7,9.3,8.5,12.9
		c1.1,1.1,2.4,1.5,3.6,1.4c3.2,7.1,6.5,14.1,9.7,21.2c-5.6-0.5-11.2-1-16.8-1.4c-2.3-5.8-8.9-12.7-13.7-15.8c0,0-0.1-0.1-0.1-0.1
		c-1.5-2-3.7-3.4-6.1-3.5c-3-1-6.8,0.5-8.2,3.2c-0.7,1.2-0.9,2.5-0.9,3.7c-0.8,1.9-0.7,4.1,0.3,6.2c0.8,1.5,1.6,3.1,2.3,4.6
		c0.1,0.1,0.1,0.2,0.2,0.3c-1.2,0-2.4-0.1-3.6-0.1c-6.1-2.4-12.8-3.1-19.4-1.8c-1.2,0.3-2.6,0.6-4,1c-0.4-0.1-0.8-0.1-1.2,0
		c-2.9,1.2-5.3,3.2-6.7,6.1c-0.6,0.3-1,0.8-1.3,1.5c-0.3,0.9-0.7,1.8-1,2.7c-0.4,1,0.2,2.3,1.1,2.8c0.9,0.5,2.2,0.5,3-0.3
		c2,1.5,5.7,1.9,7.8,2.3c5.9,1.1,13.8,2,19.9-0.5c0.2,0,0.3,0,0.5,0c-2.1,2.2-3.8,5-3.8,7.9c0,1.3,0.3,2.5,0.9,3.6
		c0.3,3.7,3.4,6.1,7,6.4c4.7,0.4,9.8-1,13-4.1c5.4-1.8,10.3-7.2,13.2-11.2c0.2-0.3,0.4-0.7,0.4-1c4.3,0.3,8.7,0.7,13,1.1
		c-0.2,0.2-0.4,0.5-0.6,0.8c-6.2,9.8-12.5,19.6-18.7,29.4c-7.4,4.6-0.4,16.3,7.4,11.9c15.9-9,28-22.8,35.2-39.5
		c15.3,1.9,30.5,4.4,45.6,7.3c0.7,2.1,3.7,2.4,4.6,0.9c12.4,2.5,24.8,5.3,37,8.5c-5.2,1.9-10.4,4-15.5,6.2c-3.6-2-9.1-0.5-9.9,4.4
		c-18.1,8.2-35.4,17.7-52.1,28.5c-0.4-2.9-2.5-5.7-6.1-6.1c-14-1.6-28-0.6-41.6,2.8c-8.1,2-4.7,14.5,3.5,12.5
		c11.4-2.8,22.9-3.6,34.5-2.6c-10.6,7.3-20.9,15.2-30.8,23.6c-6.4,5.4,2.8,14.6,9.2,9.2c10.5-8.9,21.6-17.2,33-24.9
		c-4.6,7.3-9.1,14.7-13.7,22c-4.4,7.1,6.8,13.7,11.2,6.6c8.2-13.2,16.4-26.5,24.7-39.7c0.7-1.1,1-2.2,1-3.3
		c8.6-4.9,17.4-9.5,26.4-13.8c-2.1,20.7-7.9,40.9-17.4,59.5c-3.8,7.4,7.4,14,11.2,6.6c11.5-22.5,18.2-47,19.7-72.1
		c7.4-3.2,14.8-6.1,22.4-8.8c3.2-1.1,4.5-3.9,4.4-6.5c38.6,10.8,76.2,25,112.3,42.6c12.4,6,24.8,12.7,35.9,21.1
		c-20.9,6.7-39.8,18.7-54.6,35.1c-1.4-0.4-3.1-0.2-4.7,0.8c-19.1,12-41.3,17.3-63.8,15.4c-8.3-0.7-8.3,12.3,0,13
		c20.3,1.7,40.7-2.2,59-10.9c-15.7,16.5-30.7,33.7-45,51.5c-12.3,3.7-24.6,7.5-36.9,11.2c-8,2.4-4.6,15,3.5,12.5
		c6.5-2,13-3.9,19.5-5.9c-5.9,7.8-11.7,15.7-17.4,23.7c-4.8,6.8,6.4,13.3,11.2,6.6c8.9-12.6,18.2-24.9,27.8-36.9
		c1.7-0.9,2.6-2.3,3-3.8c2.9-3.6,5.9-7.2,8.9-10.8c-1.7,8.3-3.4,16.6-5,25c-1.7,8.2,10.9,11.7,12.5,3.5c2.9-14.3,5.8-28.7,8.7-43
		c0.3-1.4,0.1-2.7-0.3-3.8c6-6.8,12.1-13.4,18.4-20c-0.5,19.3,3.9,38.3,12.9,55.7c3.9,7.4,15.1,0.9,11.2-6.6
		c-10-19-13.6-41.1-10.1-62.3c0.5-3-0.9-5.4-2.9-6.8c15-16,34.4-27.7,55.7-33c4.3,4.3,8.2,9,11.6,14.2c1.5,2.3,3.6,3.2,5.7,3.2
		c17.8,38.7,34.1,78.2,53.1,116.3c8,16,16.7,31.9,26.5,47c-0.1,0-0.3,0-0.4,0.1c-20.2,4.4-40.8,8.8-61.5,12.4
		c-1.4-1.2-3.3-1.7-5.6-1c-3.6,1.1-7.2,2.3-10.7,3.6c-49.1,7.1-98.8,8-146-9.4c-7.9-2.9-11.3,9.7-3.5,12.5
		c36.6,13.5,75.2,16.2,113.6,13.6c-16.7,9.7-32.1,21.6-45.7,35.4c-5.9,6,3.3,15.2,9.2,9.2c21.5-21.7,47.4-38.4,76-48.9
		c8.9-1.3,17.7-2.8,26.5-4.4c17.1-3.1,34.2-6.8,51.2-10.5c1.8-0.4,3-1.3,3.8-2.4c10.2,14.7,21.4,28.7,34.1,41.4
		c29.4,29.4,66.5,52.5,108,59.2c5.6,0.9,11.3-1.4,12.9-7.3c1.4-5-1.7-12-7.3-12.9c-75.5-12.2-125.7-76.2-158.7-140.1
		c-10.2-19.8-19.5-40.1-28.6-60.4c12.1-11.1,23.5-23,34.2-35.5c2,0,3.9-0.8,5.3-2.3c0.4,2.1,1.8,4,4.3,4.9c9.7,3.4,19.7,5.7,29.8,7
		c0,0.7,0.1,1.3,0.2,1.9c-6.5,18.7,8.5,36.1,24.9,42.9c8.4,3.5,18.7,6.7,27.8,6.9c7.4,0.2,16.9-3.7,16.1-12.6c-0.7-8-13-8.3-13-0.7
		c-0.9,0.1-2.5,0.3-2.4,0.3c-2.7,0-5.6-0.9-8.2-1.4c-6.2-1.4-12.5-2.9-18.1-5.8c-9.9-5-18.5-15.4-14.1-27c0.5-1.3,0.6-2.5,0.3-3.5
		c5.8,0.2,11.6,0.1,17.3-0.3c0.1,2.5,1.5,4.9,4.5,5.9c14.4,4.9,28.7,9.8,43.1,14.7c7.9,2.7,11.3-9.9,3.5-12.5
		c-10.5-3.6-21-7.1-31.5-10.7c12.4-2.5,24.5-6.5,36-11.8c0.7,2.5,2.7,4.6,6,4.6h24.5c8.4,0,8.4-13,0-13h-15c2.9-1.8,5.8-3.7,8.5-5.6
		c11.4-8.1,21.6-17.6,30.2-28.6C1393.3,596.2,1384.1,586.9,1379,593.5z"/>
	<linearGradient id="SVGID_44_" gradientUnits="userSpaceOnUse" x1="1179.225" y1="1181.7061" x2="1173.9703" y2="1196.671">
		<stop  offset="0" style="stop-color:#E30260"/>
		<stop  offset="0.1912" style="stop-color:#C70257"/>
		<stop  offset="0.6002" style="stop-color:#81023F"/>
		<stop  offset="0.94" style="stop-color:#43022A"/>
	</linearGradient>
	<path class="st49" d="M1183.5,1186.9c-1.5-1.6-3-3.1-4.5-4.7c-2.4-2.4-6.8-2.6-9.2,0c-2.4,2.6-2.5,6.6,0,9.2c1.5,1.6,3,3.1,4.5,4.7
		c2.4,2.4,6.8,2.6,9.2,0C1185.9,1193.5,1186,1189.5,1183.5,1186.9z"/>
</g>
<g id="Layer_23">
	<linearGradient id="SVGID_45_" gradientUnits="userSpaceOnUse" x1="1435.0553" y1="296.4054" x2="1611.7345" y2="485.4237">
		<stop  offset="1.589981e-03" style="stop-color:#FF9574"/>
		<stop  offset="0.3855" style="stop-color:#FA7A71"/>
		<stop  offset="0.9771" style="stop-color:#F0486B"/>
	</linearGradient>
	<path class="st50" d="M1636.2,470.3c2-41.2,1.1-138.6-61-221.1c-51.3-68.1-134.1-112.7-154-93.8c-24.1,23,47.3,137.4,25.5,153.4
		c-13.3,9.7-45.2-29-61-18.6c-17.5,11.5-2.5,74.7,17.7,123.6c22.6,54.6,91.9,188.7,159,172.7
		C1610.1,575.1,1630.9,493.9,1636.2,470.3z"/>
</g>
<g id="Layer_19" class="st0">
	
		<linearGradient id="SVGID_46_" gradientUnits="userSpaceOnUse" x1="1548.4382" y1="64.8832" x2="1335.124" y2="672.3815" gradientTransform="matrix(0.9228 0.3852 -0.3852 0.9228 247.6275 -471.0903)">
		<stop  offset="0" style="stop-color:#E30260"/>
		<stop  offset="0.1912" style="stop-color:#C70257"/>
		<stop  offset="0.6002" style="stop-color:#81023F"/>
		<stop  offset="0.94" style="stop-color:#43022A"/>
	</linearGradient>
	<path class="st51" d="M1682.6,578c-17.1,9.6-35.9,15.1-55.1,16.9c8.1-9.3,18.1-16.5,29.7-21.3c7.8-3.2,2.8-15.2-4.9-12
		c-15.3,6.3-28.6,16.5-38.6,29.7c-1,1.4-1.4,2.8-1.3,4.2c-9.2-0.1-18.5-1.1-27.5-3c9.4-15.1,24.3-25.9,41.6-30.7
		c8.1-2.2,3-14.2-4.9-12c-21.2,5.9-39,20.4-49.7,39.4c-6-1.8-11.8-4-17.5-6.6c8.7-13.7,19-26.3,30.7-37.6c0.8,0.5,1.6,0.8,2.6,0.8
		c10.9,0,21.4-1.7,31.7-5.3c7.9-2.8,2.9-14.8-4.9-12c-4.7,1.7-9.6,2.9-14.5,3.6c4.7-3.7,9.6-7.3,14.6-10.6c7-4.6-0.9-15-7.8-10.4
		c-25.8,17-47.4,39.5-63.8,65.6c-8.3-4.8-16.2-10.4-23.4-16.9c-1.7-1.5-3.5-1.9-5.1-1.5c46.7-25.3,88.6-59.5,122.6-100.4
		c23.8,6.4,48.6,7.3,72.7,1.9c8.1-1.8,6.5-14.7-1.7-12.9c-7.8,1.8-15.7,2.9-23.6,3.3c3.4-4.6,7.6-8.7,12.6-11.5c3-1.7,5-4.9,3.5-8.5
		c-1.2-2.9-5.4-5.3-8.5-3.5c-7.5,4.3-13.9,9.7-18.9,16.8c-1.7,2.4-1.5,4.9-0.4,6.9c-9.1-0.3-18.1-1.4-27-3.5
		c7.9-10.2,15.3-20.8,22.2-31.7c0.3-0.5,0.6-1,0.9-1.5c14.3,2.8,29.6-2.6,37.5-15.4c4.4-7-5.8-15.1-10.2-8
		c-4.3,6.9-12.1,11.7-20.2,11.5c12.3-21.7,21.8-44.8,26-69.5c1.4-8.2-11.5-9.9-12.9-1.6c-2,11.7-5.2,23.1-9.4,34.1
		c-0.6-1.8-1-3.7-1.2-5.6c-1.1-8.3-14-6.6-12.9,1.7c1,7.1,3.5,13.7,7.3,19.7c-4.1,8.7-8.8,17.1-13.9,25.4
		c-6.2-9.4-9.5-20.5-9.2-31.9c0.3-8.3-12.6-10-12.9-1.6c-0.5,16.4,4.4,32.4,14.4,45.3c-7.1,10.5-14.8,20.5-22.8,30.1
		c-4.7-11.7-7.8-23.9-9-36.4c3.1,1.7,7.3,1.2,8.8-3.1c2.2-6.3,4.3-12.5,6.5-18.8c2.7-7.9-9.3-12.9-12-5c-1.3,3.7-2.5,7.3-3.8,11
		c0-1.4,0.1-2.9,0.2-4.3c0.5-8.3-12.4-10-12.9-1.6c-1.4,23.6,2.7,47,12.5,68.5c0.1,0.2,0.2,0.4,0.3,0.7
		c-28.3,32.2-61.9,59.7-98.8,81.5c-2.9,1.7-5.9,3.4-8.8,5c-1.1-10.3-1.7-20.7-1.9-31c31.5-12.2,59.5-32.3,81.3-58.3
		c5.4-6.4-4.9-14.4-10.2-8c-5.9,7-12.2,13.5-19,19.5c-1-6.4,0.3-13.2,3.7-18.7c1.8-3,1.9-6.8-1.1-9.1c-2.5-2-7.3-1.9-9.1,1.1
		c-6.6,10.8-8.2,22.6-4.8,34.8c0.1,0.3,0.2,0.6,0.3,0.9c-12.6,9.6-26.3,17.5-41,23.7c0.3-11.9,1.1-23.8,2.6-35.7
		c0.2-0.5,0.3-1,0.3-1.5c0.3-2.7,0.7-5.4,1-8.1c2.1,1.8,5.2,2.6,8.2,0.8c12.8-7.5,22.8-18.2,30.2-30.9c1.8-3.1-0.6-7.2-3.5-8.5
		c-3.6-1.5-6.7,0.5-8.5,3.5c-6,10.3-14.8,18.7-24.9,24.9c2.2-14.9,4.9-29.7,8-44.5c1.3,0.4,2.8,0.4,4.4-0.4
		c7.4-3.4,13.7-8.7,17.9-15.8c1.8-3,1.9-6.8-1.1-9.1c-2.5-1.9-7.3-1.9-9.1,1.1c-2.3,3.9-5.1,7.2-8.8,9.6c2.2-9.5,4.6-18.9,7.3-28.2
		c1-3.4,0-7-3.5-8.5c-2.9-1.3-7.5,0.1-8.5,3.5c-2.4,8.4-4.6,16.8-6.7,25.3c-1.4-1.9-2.8-3.9-4.2-5.8c-4.9-6.8-15.3,1.1-10.4,7.8
		c3.5,4.8,7,9.6,10.5,14.5c0.1,0.1,0.2,0.2,0.2,0.3c-3.7,17-6.9,34.1-9.3,51.3c-11-5.6-18-19.4-14.5-31.4c2.3-7.9-9.7-13-12-5
		c-5.9,20.4,5.2,42.2,24.6,49.6c-4.1,30.8-4.3,62-0.7,92.8c-13.3,6.8-27.1,12.8-41.1,18c-0.3-14.9-0.6-29.8-1.1-44.7
		c-0.3-8.8-0.6-17.7-1-26.5c8.3,9.4,19.5,16.3,32.2,19.3c8.1,1.9,9.7-11,1.6-12.9c-18.1-4.2-32.3-20.1-35.1-38.3
		c0-0.3-0.1-0.6-0.2-0.9c-1.1-22.6-2.4-45.2-4-67.8c1.2,0,2.5-0.5,3.7-1.6c16.4-14.8,31.8-30.5,46.3-47.1c2.4-0.7,4.5-2.5,4.7-5.4
		c0.4-0.5,0.9-1,1.3-1.6c0.5-0.1,1.1-0.3,1.7-0.5c9-4.2,18.4-5.3,28.1-3.2c8.2,1.7,9.8-11.2,1.6-12.9c-5.7-1.2-11.5-1.5-17.2-0.8
		c3.1-3.9,6.1-7.8,9-11.8c1.2,0.3,2.5,0.2,3.9-0.4c6.7-2.7,13.4-5.5,20-8.2c7.7-3.2,2.8-15.2-4.9-12c-2,0.8-4.1,1.7-6.1,2.5
		c6.6-9.7,12.9-19.6,18.9-29.7c1.8-3,1.9-6.7-1.1-9.1c-2.5-2-7.3-1.9-9.1,1.1c-8,13.6-16.7,26.8-25.8,39.6l-2.7-10.6
		c-0.9-3.4-3.6-6.1-7.3-5.6c-3.2,0.4-6.4,3.9-5.6,7.3c1.2,5,2.5,9.9,3.7,14.9c0.6,2.2,1.9,4.1,3.8,5c-4.7,6.3-9.6,12.5-14.6,18.6
		c-1.4-10.1-2.8-20.2-4.2-30.3c-1.1-8.3-14-6.6-12.9,1.7c1.9,14,3.9,28,5.8,42c-13.3,15.2-27.3,29.7-42.2,43.3
		c-1.3-17.7-2.7-35.3-4.2-53c-0.6-0.7-1-1.6-1.3-2.5c-1.1-4.4-2.1-8.7-3-13.1c-0.3-0.1-0.6-0.2-0.8-0.3c-2.5-13.2-5.1-26.5-8.1-39.7
		c14.5-11.3,28.2-23.5,41.1-36.4c8.2,8.5,20.7,9.5,32,6.8c13.6-3.3,26.9-8.5,39.6-14.4c7.6-3.5,2.7-15.6-4.9-12
		c-1.4,0.6-2.7,1.2-4.1,1.9c2.5-3.5,5.4-6.6,8.7-9.4c6.5-5.3-1.4-15.7-7.8-10.4c-7.6,6.2-13.4,13.8-17.5,22.7
		c-0.7,1.4-0.8,2.7-0.5,3.9c-3.4,1.2-6.8,2.4-10.3,3.4c-8.2,2.5-19.6,5.5-26-1.9c8.7-9.3,17-18.9,24.9-28.9
		c17.1-1.1,32.6-8.7,44.6-20.7c2.5-2.5,1.4-7.1-1.1-9.1c-3-2.4-6.7-1.4-9.1,1.1c-6.4,6.4-14.3,10.9-22.9,13.5
		c7.1-9.9,13.9-20.1,20.2-30.6c1.8,1.3,4.1,1.5,6.4,0.9c7-1.9,13.3-6.6,17.2-12.8c1.9-3,1.9-6.8-1.1-9.1c-2.5-2-7.3-1.9-9.1,1.1
		c-1.4,2.3-3.1,4.2-5.1,5.6c5.3-9.7,10.3-19.5,14.9-29.6c3.5-7.6-8.5-12.6-12-5c-4.3,9.5-9,18.9-14.1,28.1c1.1-6.2,3.2-12.3,6.3-18
		c3.9-7.4-8.1-12.3-12-5c-6.6,12.4-9.1,26.3-7.7,40.2c0.1,1.4,0.6,2.5,1.4,3.4c-8.3,13.3-17.3,26.1-27,38.3c0.1-1,0-2-0.4-3.1
		c-6.6-18.3,0.6-38,6.9-55.3c2.9-7.8-9.1-12.9-12-5c-7.6,20.9-14.8,43.4-7,65.2c1.4,4,5.2,4.7,8.2,3.4c-9.2,11.3-19,22.1-29.3,32.4
		c0-2.2,0-4.4,0-6.6c0-2.3-0.8-4.4-2.3-5.8c-2.8-13.1-3.9-26.6-3.2-40c1.2-0.1,2.3-0.5,3.1-1.3c2.6-2.6,5.2-5.1,7.9-7.7
		c2.2-2.2,5.1-4.3,6.5-7.2c2.8-6.2-2.1-14.3-9.3-11.3c-3.2,1.4-4.2,4.2-3.8,6.9c-0.1,0.1-0.2,0.2-0.2,0.2c-0.7,0.6-1.3,1.3-2,1.9
		c0.7-4.1,1.7-8.2,2.7-12.3c0.9-3.4,0-7-3.5-8.5c-2.9-1.2-7.6,0.1-8.5,3.5c-7.8,28.6-7.9,58-0.3,86.6c0,2.8,0,5.6,0,8.3
		c0,1.6,0.4,3.2,1.2,4.5c-7.4,6.8-14.9,13.4-22.8,19.6c-5.8-22.4-13.4-44.3-24.3-64.8c-5.6-17.4-10.2-35-13.8-52.9
		c0.8-1,1.4-2.2,1.6-3.4c0.4-3-1.2-5.2-3.5-6.5c-4-21.5-6.6-43.3-7.8-65.2c13.8-7.6,24.6-19.1,31-33.7c3.4-7.7-8.6-12.7-12-5
		c-4.2,9.7-11,18-19.6,24c-0.2-8.5-0.2-16.9-0.1-25.4c1.3,0,2.6-0.4,3.9-1.5c5.1-4.2,9.5-9.1,12.9-14.7c1.8-3,1.9-6.8-1.1-9.1
		c-2.5-2-7.3-1.9-9.1,1.1c-1.7,2.9-3.7,5.6-5.9,8c0.4-8.2,1.1-16.4,1.9-24.6c0.9-8.3-12-10-12.9-1.6c-0.7,6.8-1.2,13.6-1.7,20.5
		c-1.1-2.7-2.9-5.1-5.3-7c-2.7-2.1-7.1-1.7-9.1,1.1c-2,2.9-1.8,6.9,1.1,9.1c0.1,0.1,0.3,0.2,0.4,0.4c0.2,0.3,0.5,0.8,0.8,1.1
		c0,0.1,0.1,0.2,0.1,0.3c0.1,0.2,0.1,0.4,0.2,0.6c0.7,3.3,3.7,6.2,7.3,5.5c1.5-0.3,2.9-1.1,3.9-2.2c-0.6,12-0.7,24-0.4,36
		c-9.1-5-16.1-13.6-19.4-23.5c-2.7-7.9-14.7-3-12,4.9c5.2,15.5,17.1,27.1,32,32.9c1.1,21.4,3.4,42.7,7,63.9
		c-12.4-4.3-24.1-10.4-34.7-17.9c0.1-0.2,0.1-0.5,0.1-0.8c2.4-19.7,2.2-39.7-0.8-59.3c-1.3-8.3-14.2-6.6-12.9,1.7
		c2.5,16.2,3,32.5,1.6,48.9c-10.9-9.6-20.4-20.8-28-33.1c2.1-0.1,4.2-1.3,5.3-3.9c4.3-10.7,5.5-22.2,3.2-33.5
		c-1.6-8.2-14.5-6.5-12.9,1.7c1.7,8.5,1.2,16.8-1.6,24.9c-2.8-5.5-5.2-11.2-7.2-17.1c-2.7-7.9-14.7-2.9-12,4.9
		c2.8,8.2,6.4,16.1,10.5,23.6c-0.1,0-0.2,0-0.3,0c-3.4-0.4-7,2.1-7.3,5.6c-0.3,3.5,2,6.8,5.6,7.3c3.2,0.4,6.2-0.1,9.1-1.3
		c8.4,12.4,18.5,23.5,30,33.1c-0.2,0.6-0.3,1.3-0.2,2c-0.7,0.3-1.3,0.6-2,0.9c-2.1,0.9-4.1,1.8-6.2,2.6c-2.6,1-5.3,1.9-8,2.7
		c0-1.4-0.3-2.8-1.3-3.8c-5.5-5.8-10.6-12-15.3-18.5c-4.9-6.8-15.3,1.1-10.4,7.8c4.4,6.1,9.2,11.9,14.3,17.4
		c-5.7,0.9-11.5,1.5-17.2,1.6c-8.3,0.2-6.6,13.1,1.7,12.9c12.4-0.3,24.6-2.5,36.4-6.4c5-1.7,15.5-4.9,19.9-10.4
		c13.2,9,27.8,16.1,43.2,20.7c3,15.2,6.8,30.3,11.1,45.3c-0.8,1.9-0.9,4.1,0.4,6.3c1.1,1.9,2.2,3.9,3.3,5.8c0.1,0.5,0.3,0.9,0.4,1.4
		c0.4,1.3,1,2.2,1.8,2.8c22.3,42.9,29.1,92.5,38,139.5c0.2,0.8,0.4,1.5,0.8,2.1c0.1,2,0.2,3.9,0.3,5.9c1.2,27.2-0.1,54.3-0.3,81.5
		c0,1.3-0.4,2.4-1,3.2c0,1.9,0,3.8-0.1,5.6c0.7,11.6,1.3,23.2,1.8,34.8c-5.5-10.4-12.4-20.2-19.9-29.4
		c-16.4-20.1-34.9-38.8-53.8-56.6c-3.7-3.5-7.5-7-11.3-10.4c3.4-15.4,5.1-31,5.3-46.6c7.3-6.8,14-14.1,20.3-21.8
		c1,0.1,2.1,0,3.3-0.5c8.7-3.6,17.3-7.2,26-10.9c7.7-3.2,2.8-15.3-4.9-12c-2.6,1.1-5.1,2.1-7.7,3.2c4.7-6.9,8.7-14.2,12-22
		c3.3-7.7-8.7-12.7-12-5c-2.8,6.7-6.3,13-10.2,18.9c-1.4,0.2-2.8,1-3.9,2.7c-6.8,10.6-14.6,20.6-23.3,29.7
		c-0.5-7.4-1.3-14.7-2.5-22.1c9-11.4,15.9-24.3,20.2-38.3c2.4-7.9-9.5-13-12-5c-2.8,9.2-6.8,17.8-11.8,25.8
		c-1.5-6.2-3.3-12.3-5.3-18.4l11-26.3c3.2-7.7-8.8-12.7-12-5l-5.7,13.6c-4.6-10.9-10.1-21.5-16.4-31.7c-4.4-7.1-14.8,0.8-10.4,7.8
		c8,12.9,14.6,26.7,19.7,40.9l-0.2,0.4c-1.5,3.6,0.3,6.6,2.9,8c1.8,5.7,3.3,11.4,4.6,17.2c-0.4-0.8-0.9-1.6-1.7-2.3
		c-7.8-6.8-14.6-14.9-19.7-24c-4.1-7.2-16.1-2.3-12,4.9c5.3,9.4,11.6,17.8,19.3,25.2c0.2,0.8,0.6,1.7,1.3,2.5c4,4.8,8,9.7,12,14.5
		c1.4,1.6,3,2.3,4.7,2.4c1.2,10.7,1.7,21.5,1.3,32.2c-5-2.1-9.2-6.4-13-10.1c-4.4-4.2-8.5-8.7-12.4-13.4
		c-7.8-9.3-14.8-19.3-20.6-29.9c-4-7.2-16.1-2.4-12,4.9c7,12.6,15,24.6,24.5,35.4c9.1,10.4,19.2,22,32.7,26.2
		c-0.6,6.3-1.4,12.5-2.5,18.7c-21-18.1-43.1-34.9-66.2-50.4c-0.7,0-1.4-0.2-2.1-0.4c-0.2-0.3-0.4-0.6-0.6-0.9
		c-0.5-1.8-1.8-3.3-3.6-4l-3.7-1.5c-0.3-0.2-0.6-0.4-0.8-0.6c-0.2-0.2-0.3-0.3-0.5-0.5c-0.1,0-0.1,0-0.1,0c0,0-0.1,0-0.1,0
		c0,0,0,0,0,0.1c-2.8-2-5.6-4-8.4-6.1c-1.3-1-2.7-1.3-4-1.3c-5.4-3.3-10.7-6.6-16.2-9.8c-2-1.1-3.9-2.2-5.9-3.4
		c1.7-0.9,2.9-2.6,3.1-5.2c0.4-6.7,0.4-13.3,0.1-20c3.3-6.2,5.7-12.7,7.2-19.6c1.3-5.9-7.4-7.4-9.6-2.3c-0.5-3-1.1-6.1-1.8-9.1
		c-2-8.7-15.9-6.9-13.9,1.9c0.1,0.3,0.1,0.6,0.2,0.9c-2.8-1.4-7.1,0.5-7.1,3.9c-0.1,5.3,0.7,10.3,2.9,15.2c0.6,1.4,1.7,2.3,2.8,2.7
		c0.3,7.8,0.5,15.5,0.8,23.3c-5-2.6-9.9-5.3-14.9-7.8c0.1-6.2-3.4-15.1-6.5-19.9c0-0.1,0-0.1,0-0.2c-0.6-2.4-2.1-4.6-4.3-5.6
		c-2.4-2-6.4-2.2-8.8-0.2c-1.1,0.9-1.8,1.9-2.2,3.1c-1.5,1.5-2.3,3.6-2.1,5.9c0.1,1.7,0.3,3.4,0.4,5.1c0,0.1,0,0.2,0.1,0.4
		c-1.1-0.5-2.2-1-3.3-1.5c-4.7-4.6-10.6-7.8-17.2-9.1c-1.2-0.2-2.6-0.5-4.1-0.6c-0.3-0.3-0.7-0.4-1.2-0.4c-3.2,0-6.2,0.9-8.6,3.1
		c-0.6,0.1-1.3,0.4-1.8,0.9c-0.6,0.7-1.3,1.4-1.9,2.1c-0.7,0.8-0.7,2.2,0,3c0.7,0.8,1.9,1.3,2.9,0.8c1.3,2.2,4.5,3.9,6.3,5.1
		c5,3.3,12,7.1,18.5,7.2c0.1,0.1,0.3,0.1,0.4,0.2c-2.8,1.2-5.4,3.2-6.5,5.8c-0.5,1.2-0.7,2.5-0.6,3.7c-1.1,3.5,0.8,6.9,4,8.6
		c4.2,2.2,9.4,2.8,13.6,1.2c5.6,0.4,12.2-2.7,16.5-5.2c0.4-0.2,0.6-0.5,0.8-0.7c3.9,2,7.8,4,11.6,6c-0.3,0.1-0.6,0.3-0.8,0.5
		c-9.5,6.6-19.1,13.3-28.6,19.9c-8.6,1.4-6.7,14.9,2.2,13.8c18.2-2.1,34.6-10.3,47.7-22.9c13.4,7.7,26.5,15.8,39.3,24.3
		c-0.2,2.2,2.5,3.6,3.9,2.6c10.5,7.1,20.8,14.5,30.9,22.1c-5.6-0.2-11.1-0.3-16.7-0.3c-2.5-3.2-8.2-4-10.8,0.2
		c-19.8,0.6-39.5,2.7-59,6.2c0.7-2.8-0.1-6.2-3.3-8c-12.3-6.9-25.6-11.3-39.5-13.5c-8.3-1.3-9.9,11.6-1.6,12.9
		c11.6,1.8,22.5,5.5,32.8,10.8c-12.6,2.7-25.2,6-37.5,9.9c-8,2.5-3,14.5,4.9,12c13.1-4.1,26.5-7.6,40-10.2c-7,5-14.1,10-21.1,15.1
		c-6.8,4.9,1,15.2,7.8,10.4c12.7-9.1,25.4-18.1,38.1-27.2c1.1-0.8,1.8-1.7,2.2-2.7c9.9-1.2,19.8-2.1,29.7-2.6
		c-9.9,18.3-23,34.6-39,48.1c-6.4,5.4,1.4,15.8,7.8,10.4c19.3-16.3,34.9-36.3,46-59c8-0.1,16,0.1,24,0.5c3.4,0.2,5.6-1.8,6.6-4.3
		c31.4,24.9,60.7,52.5,87.2,82.5c9.1,10.3,18,21.3,24.9,33.3c-21.8-1.8-44,1.9-63.9,11.3c-1.2-0.9-2.7-1.4-4.7-1.1
		c-22.3,3.7-44.8,0.1-64.8-10.3c-7.4-3.9-12.4,8.2-5,12c18.1,9.4,38.4,13.7,58.6,12.6c-20.9,9.2-41.3,19.3-61.4,30.2
		c-12.8-1.3-25.6-2.6-38.4-3.9c-8.3-0.8-10,12.1-1.6,12.9c6.8,0.7,13.5,1.4,20.3,2.1c-8.5,4.9-16.9,10-25.1,15.2
		c-7.1,4.5,0.8,14.8,7.8,10.4c13.1-8.2,26.4-16,39.9-23.4c1.9-0.2,3.3-1.1,4.3-2.3c4.1-2.2,8.2-4.4,12.3-6.5
		c-4.8,7-9.5,14.1-14.3,21.1c-4.7,6.9,5.5,15,10.2,8c8.2-12.1,16.4-24.2,24.6-36.3c0.8-1.2,1.2-2.5,1.2-3.7
		c8.2-3.9,16.4-7.7,24.7-11.4c-7.9,17.6-11.2,36.8-9.5,56.3c0.7,8.3,13.6,6.6,12.9-1.7c-1.9-21.4,3.2-43.2,14.7-61.4
		c1.6-2.6,1.3-5.4-0.1-7.4c20-9,42.4-12.3,64.1-9c2.3,5.6,4.1,11.5,5.2,17.5c0.5,2.7,2.1,4.3,4.1,5.2c1.6,42.6,1.3,85.2,4.2,127.7
		c1.2,17.9,3.2,35.9,6.3,53.6c-0.1,0-0.3-0.1-0.4-0.1c-20.3-3.7-41-7.6-61.5-12.3c-0.8-1.6-2.4-2.9-4.8-3.1
		c-3.7-0.4-7.5-0.6-11.3-0.8c-48-12.3-94.3-30.7-131.1-64.9c-6.1-5.7-14.1,4.6-8,10.2c28.6,26.5,63.1,43.9,99.6,56.3
		c-19.1,2.5-37.9,7.6-55.8,15c-7.7,3.2-2.8,15.3,4.9,12c28.2-11.8,58.6-17.2,89-15.8c8.7,2.2,17.4,4.3,26.1,6.1
		c17,3.7,34.1,6.9,51.3,10c1.8,0.3,3.3,0,4.4-0.8c3.7,17.5,8.7,34.7,15.5,51.3c15.8,38.4,41.2,74,76.8,96.2c4.8,3,11,3,14.7-1.8
		c3.2-4.1,3.1-11.7-1.8-14.7c-64.9-40.3-86.6-118.7-92.5-190.4c-1.8-22.2-2.6-44.5-3.1-66.8c15.5-5.6,30.6-12.1,45.2-19.5
		c1.8,0.8,4,0.7,5.8-0.1c-0.4,2.1,0.1,4.4,2.1,6.1c7.6,6.9,16,12.9,24.8,18c-0.3,0.6-0.4,1.2-0.5,1.8c-13.2,14.7-6.1,36.6,6.4,49.2
		c6.4,6.5,14.6,13.3,23,17.1c6.8,3,17,3.1,19.7-5.4c2.4-7.7-8.8-12.7-11.8-5.7c-0.8-0.2-2.4-0.7-2.4-0.7c-2.5-1-4.8-2.9-7.1-4.5
		c-5.2-3.6-10.4-7.5-14.5-12.3c-7.2-8.4-11.1-21.4-2.6-30.3c1-1,1.5-2.1,1.6-3.1c5.2,2.4,10.6,4.5,16.1,6.4
		c-0.8,2.3-0.5,5.1,1.9,7.1c11.4,10,22.8,20.1,34.1,30.1c6.3,5.5,14.3-4.7,8-10.2c-8.3-7.3-16.6-14.7-24.9-22
		c12.4,2.5,25.1,3.5,37.7,2.9c-0.4,2.6,0.7,5.3,3.8,6.6l22.6,9.4c7.7,3.2,12.7-8.8,5-12l-13.8-5.8c3.4-0.5,6.7-1.2,10-1.9
		c13.6-3.1,26.7-8,38.9-14.8C1694.8,585.9,1689.9,573.9,1682.6,578z"/>
</g>
<g id="Layer_17">
	
		<linearGradient id="SVGID_47_" gradientUnits="userSpaceOnUse" x1="1733.7388" y1="670.4245" x2="1613.4526" y2="1012.9879" gradientTransform="matrix(0.7685 -1.1765 1.0762 0.703 -776.1293 2012.3759)">
		<stop  offset="0" style="stop-color:#E30260"/>
		<stop  offset="0.1912" style="stop-color:#C70257"/>
		<stop  offset="0.6002" style="stop-color:#81023F"/>
		<stop  offset="0.94" style="stop-color:#43022A"/>
	</linearGradient>
	<path class="st52" d="M1407.1,846.5c-36.6-32.1-217.5-188.1-181.3-326.6c6.8-26.1,23.6-45.6,14.2-69c-18.4-45.9-108.1-45.4-107-55
		c0.6-5.6,39.9-8.4,104-3c57.6,4.9,104.7,13.8,137,21c26.7,6.4,70.5,20.8,109,57c67.5,63.5,72.8,150.6,78.6,244.8
		c4.4,72.1,9.6,173.4-33.5,194.6C1498,925.4,1458.9,891.9,1407.1,846.5z"/>
</g>
<g id="Layer_9">
	
		<linearGradient id="SVGID_48_" gradientUnits="userSpaceOnUse" x1="1553.9032" y1="742.1561" x2="1433.6171" y2="1084.7196" gradientTransform="matrix(0.8465 -1.2959 1.2372 0.8082 -1085.5504 2096.4219)">
		<stop  offset="0" style="stop-color:#E30260"/>
		<stop  offset="0.1912" style="stop-color:#C70257"/>
		<stop  offset="0.6002" style="stop-color:#81023F"/>
		<stop  offset="0.94" style="stop-color:#43022A"/>
	</linearGradient>
	<path class="st53" d="M1303.8,1134.6c-42.3-36.7-251-214.7-213-368.4c7.2-29,25.8-50.3,14.6-76.7c-21.9-51.6-123.7-53.1-122.7-63.7
		c0.6-6.3,45.1-8.5,118-1.1c65.5,6.7,119.2,17.7,156,26.5c30.5,7.7,80.5,24.8,125,66c78,72.3,86,169.7,94.6,274.9
		c6.6,80.5,14.7,193.7-33.7,216.5C1408.7,1224.5,1363.5,1186.3,1303.8,1134.6z"/>
</g>
<g id="Layer_16">
	<linearGradient id="SVGID_49_" gradientUnits="userSpaceOnUse" x1="1406.0553" y1="695.4053" x2="1582.7345" y2="884.4237">
		<stop  offset="1.589981e-03" style="stop-color:#FF9574"/>
		<stop  offset="0.3855" style="stop-color:#FA7A71"/>
		<stop  offset="0.9771" style="stop-color:#F0486B"/>
	</linearGradient>
	<path class="st54" d="M1607.2,869.3c2-41.2,1.1-138.6-61-221.1c-51.3-68.1-134.1-112.7-154-93.8c-24.1,23,47.3,137.4,25.5,153.4
		c-13.3,9.7-45.2-29-61-18.6c-17.5,11.5-2.5,74.7,17.7,123.6c22.6,54.6,91.9,188.7,159,172.7
		C1581.1,974.1,1601.9,892.9,1607.2,869.3z"/>
	<path class="st4" d="M2503,759"/>
</g>
<g id="Layer_14">
</g>
<g id="Layer_10">
</g>
<g id="Layer_8">
	<linearGradient id="SVGID_50_" gradientUnits="userSpaceOnUse" x1="1644.2891" y1="839.8711" x2="1530.4929" y2="1163.9514">
		<stop  offset="0.1048" style="stop-color:#E30260"/>
		<stop  offset="0.2772" style="stop-color:#C70257"/>
		<stop  offset="0.6459" style="stop-color:#81023F"/>
		<stop  offset="0.9522" style="stop-color:#43022A"/>
	</linearGradient>
	<path class="st55" d="M1473,1044c2.1-15.9,33.5-243.4,124-257c16.9-2.5,33.5,2.7,51-10c26.8-19.5,25.6-59.5,32-59
		c6.9,0.6,0.1,46.7,23,96c11.7,25.2,19.7,26.5,27,42c31,65.7-50.1,173.7-119,233c-21.7,18.7-95.8,82.4-129,61
		C1461.4,1136.7,1466.1,1097,1473,1044z"/>
</g>
<g id="Layer_6" class="st0">
</g>
</svg>
