<svg xmlns="http://www.w3.org/2000/svg" xmlns:xlink="http://www.w3.org/1999/xlink" viewBox="0 0 1920 1080"><defs><style>.cls-1{fill:#4a0031;}.cls-2{fill:#ff9574;}.cls-3{fill:url(#linear-gradient);}.cls-4{fill:url(#linear-gradient-2);}.cls-5{fill:url(#linear-gradient-3);}.cls-6{fill:url(#linear-gradient-4);}.cls-7{fill:url(#linear-gradient-5);}.cls-8{fill:url(#radial-gradient);}.cls-9{fill:url(#radial-gradient-2);}.cls-10{fill:url(#radial-gradient-3);}.cls-11{fill:url(#radial-gradient-4);}.cls-12{fill:url(#radial-gradient-5);}.cls-13{fill:url(#radial-gradient-6);}.cls-14{fill:url(#radial-gradient-7);}.cls-15{fill:url(#radial-gradient-8);}.cls-16{fill:url(#radial-gradient-9);}.cls-17{fill:url(#radial-gradient-10);}.cls-18{fill:url(#radial-gradient-11);}.cls-19{fill:url(#radial-gradient-12);}.cls-20{fill:url(#radial-gradient-13);}.cls-21{fill:url(#radial-gradient-14);}.cls-22{fill:url(#radial-gradient-15);}.cls-23{fill:url(#radial-gradient-16);}.cls-24{fill:url(#radial-gradient-17);}.cls-25{fill:#efff15;}.cls-26{fill:url(#linear-gradient-6);}.cls-27{fill:url(#radial-gradient-18);}.cls-28{fill:url(#radial-gradient-19);}.cls-29{fill:url(#radial-gradient-20);}.cls-30{fill:url(#radial-gradient-21);}.cls-31{fill:url(#radial-gradient-22);}.cls-32{fill:url(#radial-gradient-23);}.cls-33{fill:url(#radial-gradient-24);}.cls-34{fill:url(#radial-gradient-25);}.cls-35{fill:url(#radial-gradient-26);}.cls-36{fill:url(#radial-gradient-27);}.cls-37{fill:url(#radial-gradient-28);}.cls-38{fill:url(#radial-gradient-29);}.cls-39{fill:url(#radial-gradient-30);}.cls-40{fill:url(#radial-gradient-31);}.cls-41{fill:url(#radial-gradient-32);}.cls-42{fill:url(#radial-gradient-33);}.cls-43{fill:url(#radial-gradient-34);}.cls-44{fill:url(#linear-gradient-7);}.cls-45{fill:url(#linear-gradient-8);}.cls-46{fill:url(#linear-gradient-9);}.cls-47{fill:url(#linear-gradient-10);}.cls-48{fill:url(#linear-gradient-11);}</style><linearGradient id="linear-gradient" x1="762" y1="713.4" x2="1433.5" y2="713.4" gradientUnits="userSpaceOnUse"><stop offset="0" stop-color="#e36a67"/><stop offset="0.77" stop-color="#ed4f6a"/><stop offset="0.94" stop-color="#f0486b"/></linearGradient><linearGradient id="linear-gradient-2" x1="1266" y1="661.4" x2="1937.5" y2="661.4" gradientTransform="matrix(0.36, 0.76, -0.9, 0.43, 1645.46, -798.36)" xlink:href="#linear-gradient"/><linearGradient id="linear-gradient-3" x1="1927.77" y1="858.35" x2="1807.48" y2="1200.92" gradientTransform="matrix(1.4, -0.09, 0.08, 1.28, -1094.84, -526.13)" gradientUnits="userSpaceOnUse"><stop offset="0" stop-color="#e30260"/><stop offset="0.19" stop-color="#c70257"/><stop offset="0.6" stop-color="#81023f"/><stop offset="0.94" stop-color="#43022a"/></linearGradient><linearGradient id="linear-gradient-4" x1="759.97" y1="770.78" x2="1431.47" y2="770.78" gradientTransform="matrix(0.83, 0.18, -0.21, 0.98, 548.54, -572.14)" xlink:href="#linear-gradient"/><linearGradient id="linear-gradient-5" x1="1051.46" y1="-70.22" x2="1418.84" y2="-70.22" gradientTransform="translate(600.39 -289.59) rotate(71.86)" xlink:href="#linear-gradient"/><radialGradient id="radial-gradient" cx="1154.18" cy="24.09" r="37.76" gradientTransform="translate(600.39 -289.59) rotate(71.86)" gradientUnits="userSpaceOnUse"><stop offset="0" stop-color="#e95d00"/><stop offset="0.45" stop-color="#e94200"/><stop offset="0.94" stop-color="#e91f00"/></radialGradient><radialGradient id="radial-gradient-2" cx="1242.29" cy="-13.66" r="37.76" xlink:href="#radial-gradient"/><radialGradient id="radial-gradient-3" cx="1317.8" cy="-13.66" r="37.76" xlink:href="#radial-gradient"/><radialGradient id="radial-gradient-4" cx="1403.81" cy="-13.66" r="37.76" xlink:href="#radial-gradient"/><radialGradient id="radial-gradient-5" cx="791.2" cy="-417.04" r="37.76" gradientTransform="translate(733.47 -31.01) rotate(108.47)" xlink:href="#radial-gradient"/><radialGradient id="radial-gradient-6" cx="1288.43" cy="47.17" r="37.76" xlink:href="#radial-gradient"/><radialGradient id="radial-gradient-7" cx="1280.04" cy="-51.42" r="37.76" xlink:href="#radial-gradient"/><radialGradient id="radial-gradient-8" cx="1366.05" cy="47.17" r="37.76" xlink:href="#radial-gradient"/><radialGradient id="radial-gradient-9" cx="1223.41" cy="47.17" r="37.76" xlink:href="#radial-gradient"/><radialGradient id="radial-gradient-10" cx="1317.8" cy="137.37" r="37.76" xlink:href="#radial-gradient"/><radialGradient id="radial-gradient-11" cx="968.77" cy="1208.47" r="37.76" gradientTransform="translate(46.17 -354.51) scale(1 1.17)" xlink:href="#radial-gradient"/><radialGradient id="radial-gradient-12" cx="1099.64" cy="84.93" r="37.76" xlink:href="#radial-gradient"/><radialGradient id="radial-gradient-13" cx="1208.72" cy="128.98" r="37.76" xlink:href="#radial-gradient"/><radialGradient id="radial-gradient-14" cx="1393.32" cy="99.61" r="37.76" xlink:href="#radial-gradient"/><radialGradient id="radial-gradient-15" cx="1235.99" cy="89.12" r="37.76" xlink:href="#radial-gradient"/><radialGradient id="radial-gradient-16" cx="1332.49" cy="91.22" r="37.76" xlink:href="#radial-gradient"/><radialGradient id="radial-gradient-17" cx="1261.16" cy="137.37" r="37.76" xlink:href="#radial-gradient"/><linearGradient id="linear-gradient-6" x1="-120.45" y1="163.24" x2="246.92" y2="163.24" gradientTransform="translate(1645.34 395.84) rotate(-127.4)" xlink:href="#linear-gradient"/><radialGradient id="radial-gradient-18" cx="-17.73" cy="257.55" r="37.76" gradientTransform="translate(1645.34 395.84) rotate(-127.4)" xlink:href="#radial-gradient"/><radialGradient id="radial-gradient-19" cx="70.37" cy="219.8" r="37.76" gradientTransform="translate(1645.34 395.84) rotate(-127.4)" xlink:href="#radial-gradient"/><radialGradient id="radial-gradient-20" cx="145.89" cy="219.8" r="37.76" gradientTransform="translate(1645.34 395.84) rotate(-127.4)" xlink:href="#radial-gradient"/><radialGradient id="radial-gradient-21" cx="231.89" cy="219.8" r="37.76" gradientTransform="translate(1645.34 395.84) rotate(-127.4)" xlink:href="#radial-gradient"/><radialGradient id="radial-gradient-22" cx="-10.21" cy="469.32" r="37.76" gradientTransform="translate(1434.41 195.62) rotate(-90.79)" xlink:href="#radial-gradient"/><radialGradient id="radial-gradient-23" cx="116.52" cy="280.63" r="37.76" gradientTransform="translate(1645.34 395.84) rotate(-127.4)" xlink:href="#radial-gradient"/><radialGradient id="radial-gradient-24" cx="108.13" cy="182.04" r="37.76" gradientTransform="translate(1645.34 395.84) rotate(-127.4)" xlink:href="#radial-gradient"/><radialGradient id="radial-gradient-25" cx="194.13" cy="280.63" r="37.76" gradientTransform="translate(1645.34 395.84) rotate(-127.4)" xlink:href="#radial-gradient"/><radialGradient id="radial-gradient-26" cx="51.49" cy="280.63" r="37.76" gradientTransform="translate(1645.34 395.84) rotate(-127.4)" xlink:href="#radial-gradient"/><radialGradient id="radial-gradient-27" cx="145.89" cy="370.83" r="37.76" gradientTransform="translate(1645.34 395.84) rotate(-127.4)" xlink:href="#radial-gradient"/><radialGradient id="radial-gradient-28" cx="430.03" cy="296.13" r="37.76" gradientTransform="translate(2136.72 395.46) rotate(180) scale(1 1.17)" xlink:href="#radial-gradient"/><radialGradient id="radial-gradient-29" cx="-72.27" cy="318.39" r="37.76" gradientTransform="translate(1645.34 395.84) rotate(-127.4)" xlink:href="#radial-gradient"/><radialGradient id="radial-gradient-30" cx="36.81" cy="362.44" r="37.76" gradientTransform="translate(1645.34 395.84) rotate(-127.4)" xlink:href="#radial-gradient"/><radialGradient id="radial-gradient-31" cx="221.4" cy="333.07" r="37.76" gradientTransform="translate(1645.34 395.84) rotate(-127.4)" xlink:href="#radial-gradient"/><radialGradient id="radial-gradient-32" cx="64.08" cy="322.58" r="37.76" gradientTransform="translate(1645.34 395.84) rotate(-127.4)" xlink:href="#radial-gradient"/><radialGradient id="radial-gradient-33" cx="160.57" cy="324.68" r="37.76" gradientTransform="translate(1645.34 395.84) rotate(-127.4)" xlink:href="#radial-gradient"/><radialGradient id="radial-gradient-34" cx="89.25" cy="370.83" r="37.76" gradientTransform="translate(1645.34 395.84) rotate(-127.4)" xlink:href="#radial-gradient"/><linearGradient id="linear-gradient-7" x1="1435.06" y1="296.41" x2="1611.73" y2="485.42" gradientUnits="userSpaceOnUse"><stop offset="0" stop-color="#ff9574"/><stop offset="0.39" stop-color="#fa7a71"/><stop offset="0.98" stop-color="#f0486b"/></linearGradient><linearGradient id="linear-gradient-8" x1="1733.74" y1="670.42" x2="1613.45" y2="1012.99" gradientTransform="matrix(0.77, -1.18, 1.08, 0.7, -776.13, 2012.38)" xlink:href="#linear-gradient-3"/><linearGradient id="linear-gradient-9" x1="1553.9" y1="742.16" x2="1433.62" y2="1084.72" gradientTransform="matrix(0.85, -1.3, 1.24, 0.81, -1085.55, 2096.42)" xlink:href="#linear-gradient-3"/><linearGradient id="linear-gradient-10" x1="1406.06" y1="695.41" x2="1582.73" y2="884.42" xlink:href="#linear-gradient-7"/><linearGradient id="linear-gradient-11" x1="1644.29" y1="839.87" x2="1530.49" y2="1163.95" gradientUnits="userSpaceOnUse"><stop offset="0.1" stop-color="#e30260"/><stop offset="0.28" stop-color="#c70257"/><stop offset="0.65" stop-color="#81023f"/><stop offset="0.95" stop-color="#43022a"/></linearGradient></defs><title>aaaa</title><g id="Layer_24" data-name="Layer 24"><path class="cls-1" d="M1106-71C1047.39-48.56,966.67-6.14,918,76c-69.85,117.89-35.78,253.65,41,492,134.87,418.69,202.3,628,266,685,246.94,220.82,724.65,234.83,1002-5,385.35-333.22,304.41-1087.69-142-1370C1810.46-295.62,1426.25-272.61,1106-71Z"/></g><g id="Layer_15" data-name="Layer 15"><path class="cls-2" d="M1603.69,1251.37c76.63-104.08,145.45-106.32,214.48-168.39,122.14-109.83,170.92-340.43,124.56-386.87-49.38-49.45-245.14,71.46-343.46,257.34-94.24,178.16-90.16,399.34-65.6,407.59C1545.71,1365.08,1556.25,1315.8,1603.69,1251.37Z"/></g><g id="Layer_11" data-name="Layer 11"><path class="cls-3" d="M1335.77,965.68A98.24,98.24,0,0,1,1309,927c-1.32-3.5-8.12-22.15-6-39.74,3.88-32.46,38-43.56,65.55-72.57,42.7-45,77.08-114.06,60.86-132.26-15.26-17.12-83.66,1.46-118.21,46.82-37,48.62-17.21,104.39-39.8,111.19-20.69,6.23-60.44-33.59-64.37-76.08-2.2-23.64,8.41-29.7,24.58-74.91,26.24-73.4,22.46-125.05,21.06-139.28-.7-7.2-6.27-64.19-21.06-65.55-16.48-1.51-40.93,66.35-50.33,126.41-10.27,65.56,3,99.12-14,107.69-18.27,9.19-59.81-15.74-71.4-50.33-12.27-36.63,17.38-59.16,38.63-133.44,13.91-48.63,25.68-124.64,8.19-132.26-16.69-7.27-73.45,47.65-83.1,114.71-7.88,54.73,20.17,85.91,3.51,100.66-16.06,14.21-49.65.5-57.73-2.83-22.79-9.41-54.16-32.42-51.12-54.53,2.35-17.14,22.81-15,41-43.3,16.63-25.92,16.5-54.25,16.39-59.7-.43-21.23-7.26-23.76-7-44.48.34-30.38,15.29-48.94,12.87-50.33-3.47-2-37,33-57.35,86.62-16.52,43.48-15.45,75.73-23.41,76.08-9.4.41-6-44.73-38.63-86.61,0,0-32.34-41.4-90.12-51.51-26.95-4.71-33.69,2.87-35.12,4.69-6.45,8.18-1.73,21.7,1.51,30.63,13.72,37.82,45.49,59.66,55.85,66.51,47.12,31.2,89.9,35.43,89,41-1,5.89-48-7-99.49,12.88-28.48,11-60.69,33-57.35,45.64,3.3,12.43,43.76,18.86,78.42,8.2,41.21-12.68,51-42.37,72.57-37.46,19,4.32,16.22,28.32,43.31,55,32.66,32.19,73.57,33.64,72.57,39.8-1.64,10-101.36-22.57-162.7,24.58-33.49,25.74-55.23,75.05-39.79,93.64,13.87,16.7,58.7,1.45,107.68-15.22h0c94.1-40.33,111.15-63.27,134.6-57.35,26.47,6.67,50.18,47.36,41,72.57-12.62,34.54-78.8,13.94-161.53,64.37-8.66,5.28-83.2,51.31-74.91,74.91,10.54,30,160.59,40.53,232.93-32.77,19.63-19.9,32.09-44.5,57.35-45.65,29.29-1.33,63.44,29.43,60.86,53.84-2.62,24.83-41.78,29.41-118.21,71.4-49.3,27.08-112.82,62-107.69,81.93,5.84,22.69,104,40.16,165-3.51,35.32-25.28,45.84-62.22,74.91-60.86,26.36,1.23,37.72,32.53,60.86,29.26C1317.08,1003,1328.76,982.3,1335.77,965.68Z"/><path class="cls-4" d="M1481.34,997.89A99.6,99.6,0,0,1,1506.7,961c2.69-2.51,17.11-15.65,33.78-21.53,30.77-10.86,53.12,10.54,89.26,19.21,56.13,13.47,131,10.36,141.58-9.79,10-19-31.45-63.36-84.93-70.47-57.32-7.61-100.64,31.32-114.93,16.93-13.08-13.16,8.63-60.53,45.65-81.64,20.61-11.75,29.91-6.22,76.63-13.11,75.86-11.2,121.22-36.09,133.6-43.22,6.26-3.61,55.81-32.15,51.71-44-4.57-13.24-74.76-3-132.49,15.36-63,20.07-88.6,44.5-102.48,35.13-14.9-10-7.3-52.44,19.82-76,28.73-25,59.78-11.91,134.63-27.31,49-10.07,122-33.45,122.62-50.07.56-15.86-69.56-35.88-133.71-14.69-52.35,17.28-70.46,52-89.8,45.56-18.64-6.23-18.34-37.75-18.23-45.35.3-21.44,9.83-55.23,30.92-62.33,16.35-5.5,21.8,11.05,53.93,12.88,29.43,1.68,55-10.49,59.91-12.89,19-9.38,18.89-15.68,37.71-24.32,27.61-12.69,49.79-9.16,50.17-11.6.55-3.5-43.2-14.22-99-7-45.29,5.89-74.08,20.44-77.27,14.51-3.75-7,38.29-23.68,64.46-66.44,0,0,25.8-42.37,14.14-90.87-5.44-22.62-14.73-24.54-16.88-24.86-9.73-1.44-20.27,7.92-27.18,14.2-29.27,26.61-37.59,60.21-40.06,71.05-11.26,49.33.32,83.85-5,85.48-5.7,1.74-10.93-39.73-47.48-70.6-20.23-17.09-51.74-32.35-62-24.42-10.06,7.82-1.31,41.5,20.83,63.47,26.31,26.11,56.68,20.92,60,39.54,2.94,16.36-19.77,24.47-34.17,56.56-17.36,38.69-3.94,70.59-9.87,72.45-9.67,3-16.08-87.13-80.83-114-35.35-14.65-87.78-10.27-99,9.46-10.12,17.72,19.82,45.51,52.54,75.87h0c70.37,54.79,97.27,58.06,100.36,78.51,3.49,23.08-24.78,58.55-50.9,62.24-35.81,5.07-41-54.32-116.41-96.1-7.9-4.38-76.38-41.78-94.75-25.38-23.33,20.83,21.16,140.07,113.53,164.17,25.07,6.54,51.81,5.59,62,24.42,11.75,21.83-3.78,61-26.79,69.48-23.41,8.57-41.66-19.42-107.17-60-42.25-26.17-96.7-59.88-112.9-47.45-18.43,14.13,1.13,96.66,62.6,124.72,35.59,16.24,72.8,8.55,82,31.36,8.38,20.68-15.84,42.71-4.55,59C1440.85,999.49,1463.78,999.61,1481.34,997.89Z"/></g><g id="Layer_22" data-name="Layer 22"><path class="cls-5" d="M1436,743.4c3.69-48.59,19.89-286.88,152.33-341,25-10.23,50.6-8.5,63.68-30.08,25.62-42.26-28.55-113.69-20.25-118.59,4.88-2.88,30.67,26.85,64.83,81.38a1016.43,1016.43,0,0,1,65.45,122.17c11,25.2,25.67,68.91,19.85,121.39-10.22,92.09-76.75,148.7-148.61,209.85-55,46.79-132.89,111.73-175.78,90.07C1427.53,863.4,1430.8,812,1436,743.4Z"/></g><g id="Layer_20" data-name="Layer 20"><path class="cls-6" d="M1430.27,669a99.84,99.84,0,0,1-13.79-42.64c-.34-3.66-2-23.1,3.56-39.9,10.16-31,40.76-35.66,69.68-59,44.92-36.25,88.11-97.43,78.62-118.14-8.93-19.5-69.39-13.75-107.64,24.29-41,40.77-36.6,98.84-56.71,101.39-18.42,2.33-42.7-43.77-36.83-86,3.26-23.5,13.32-27.49,36.36-68.71,37.42-66.94,45.37-118.07,47.27-132.23,1-7.16,8.59-63.83-3.33-67.84-13.28-4.46-48,57.39-68.67,114.35-22.54,62.16-18.8,97.34-34.7,102.62-17,5.67-46-26.2-48.15-62.1-2.28-38,27-54.63,60.51-123.32,21.92-45,47.94-117.09,35.14-127.7-12.22-10.13-70.87,33.22-93.22,97-18.25,52-1.77,87.57-18.7,99-16.3,11-41.1-8.51-47.05-13.23-16.8-13.32-37.76-41.49-30.52-62.53,5.62-16.31,22.06-10.52,43.12-34.87,19.28-22.29,25.25-50,26.33-55.33,4.2-20.82-.89-24.53,3.74-44.72,6.8-29.61,23.13-45,21.43-46.82-2.44-2.57-37.63,25.55-65.93,74.2-23,39.47-29,71.16-35.65,70.06-7.85-1.29,4.6-44.78-13.31-91.6,0,0-17.82-46.29-63.37-66.64-21.24-9.5-28.42-3.31-30-1.8-7.08,6.82-6.09,20.89-5.33,30.2,3.22,39.42,24.76,66.51,31.84,75.09,32.22,39,66.63,50.91,64.66,56.14-2.1,5.57-38.14-15.59-84.9-5.46-25.89,5.6-57.2,21.26-57.15,34.18.06,12.74,32.08,26.36,63,22.23,36.75-4.92,51.16-32.15,68-23.43,14.75,7.66,7.32,30.6,24,61.59,20.06,37.36,53.52,46.19,51.38,52-3.5,9.51-78.84-40.42-139.6-5.49-33.18,19.07-61.71,63.28-53,84.24,7.87,18.83,48.16,12.06,92.17,4.67h0c86.34-22.33,105.34-41.64,123.43-31.61,20.42,11.31,31.27,55.35,18.26,78.3-17.83,31.46-68-.66-147.17,33.59-8.29,3.59-79.7,35-77.92,59.58,2.27,31.2,123.89,68.71,199.34,10.23,20.48-15.87,36-37.65,57.15-34.19,24.46,4,46.06,40.25,38.7,63.63-7.49,23.77-40.81,21.15-112.92,48.3-46.51,17.51-106.44,40.07-106.48,60.5-.05,23.22,77.28,58.08,137,26.49,34.58-18.28,51.19-52.46,74.9-45.86,21.5,6,24.17,38.61,44,39.62C1406.85,702,1420.92,683.91,1430.27,669Z"/></g><g id="Layer_13" data-name="Layer 13"><path class="cls-7" d="M1160.45,816.5c4.5,18.26-5.28,27.58-14.94,68.92-8.7,37.22-7.2,41.52-14.29,70.9a576.91,576.91,0,0,1-26.29,81.46c-37.55,12.54-45.8,15.15-45.84,15s35-6.7,45.26-30.29c1.45-3.34,4.74-10.93,1.41-15.91-9.27-13.84-61.59,7.38-62.38,5-.55-1.64,25.45-7.32,48.56-27,5.08-4.32,18.89-16.29,28-35.68,12.54-26.58,2.37-37.51,11-80.87,5.78-29,14.63-45.73,10.86-47.71-4.47-2.35-21.21,19-47.32,44.2a65.08,65.08,0,0,1-11.22,9.17c-10.21,6.45-18.76,6.74-44,24.38-21.61,15.11-35,28.66-62.55,38.16-1,.34-15.61,5.34-16.6,3.23-.83-1.75,8.26-7.59,30-23.06,19.27-13.73,25-18.31,24-21.11-1.58-4.32-17.06,1.91-33.14-6.8-7.85-4.25-14.36-11.26-13.2-13.33,1.78-3.16,19.36,8.74,41.08,10.82,23.73,2.28,54-7,73.78-30.8,17.5-21.07,30.9-57.82,16.32-78.2-9.59-13.39-21.36-5.91-70.87-20.92-34.83-10.56-52.2-21.29-61.63-12.92-8.8,7.83.93,22.47-9.44,31.8-11.86,10.65-35.3,3.71-47.09-2.23-7.65-3.85-16.23-10.22-15.19-12.68,2.1-5,40.34,13.64,51.07.92,4.19-5,3.55-14,.1-19.9-11.76-20.18-59.81-10.75-60.29-15.56-.22-2.24,9.93-6.6,21.93-7.19,18.53-.91,29.67,6.27,45.71,11.51,18.09,5.91,25.34,3.4,50.39,5.56,24.83,2.15,75.33,6.52,117.89,36.42C1138.22,783.58,1155.3,795.58,1160.45,816.5Z"/></g><g id="Layer_12" data-name="Layer 12"><circle class="cls-8" cx="936.91" cy="814.71" r="37.76"/><circle class="cls-9" cx="1000.23" cy="886.67" r="37.76"/><circle class="cls-10" cx="1023.75" cy="958.43" r="37.76"/><circle class="cls-11" cx="1050.53" cy="1040.16" r="37.76"/><circle class="cls-12" cx="878.35" cy="851.56" r="37.76"/><circle class="cls-13" cx="956.79" cy="949.47" r="37.76"/><circle class="cls-14" cx="1047.87" cy="910.79" r="37.76"/><circle class="cls-15" cx="980.96" cy="1023.22" r="37.76"/><circle class="cls-16" cx="936.54" cy="887.67" r="37.76"/><circle class="cls-17" cx="880.22" cy="1005.46" r="37.76"/><ellipse class="cls-18" cx="1014.94" cy="1058.29" rx="37.76" ry="44.14" transform="translate(-47.18 47.36) rotate(-2.61)"/><circle class="cls-19" cx="862.12" cy="781.82" r="37.76"/><circle class="cls-20" cx="854.23" cy="899.2" r="37.76"/><circle class="cls-21" cx="939.62" cy="1065.47" r="37.76"/><circle class="cls-22" cx="900.59" cy="912.7" r="37.76"/><circle class="cls-23" cx="928.65" cy="1005.05" r="37.76"/><circle class="cls-24" cx="862.59" cy="951.64" r="37.76"/><path class="cls-25" d="M1099.92,663a1.5,1.5,0,0,0,0-3,1.5,1.5,0,0,0,0,3Z"/><path class="cls-25" d="M1211.37,763a1.5,1.5,0,0,0,0-3,1.5,1.5,0,0,0,0,3Z"/><path class="cls-26" d="M1649.08,325.51c-10.27-15.75-4.11-27.77-8.62-70-4.07-38-6.9-41.57-9.9-71.65a577.53,577.53,0,0,1-2.06-85.57c31.31-24.23,38.24-29.42,38.33-29.31s-30.86,17.87-32.74,43.52c-.27,3.63-.88,11.88,3.92,15.49,13.31,10,55.71-27.29,57.24-25.29,1,1.37-21.62,15.31-37,41.46-3.38,5.76-12.46,21.61-14.71,42.93-3.07,29.23,10.13,36.19,16.27,80,4.1,29.25,1.28,48,5.49,48.62,5,.74,13.76-24.93,30.09-57.34A65.7,65.7,0,0,1,1703,246c7.51-9.46,15.49-12.55,33.5-37.54,15.42-21.39,23.63-38.61,46.47-56.65.8-.64,13-10.19,14.6-8.53,1.36,1.38-5.29,9.89-20.68,31.66-13.66,19.31-17.57,25.53-15.69,27.84,2.92,3.56,15.48-7.43,33.53-4.51,8.82,1.42,17.27,5.89,16.86,8.23-.64,3.57-21.16-1.86-42.35,3.33-23.16,5.68-48.68,24.44-59.5,53.42-9.57,25.66-10.1,64.77,10.39,79.2,13.47,9.49,22.12-1.46,73.81-3.63,36.37-1.52,56.31,2.89,62.44-8.13,5.73-10.3-8.29-20.9-1.57-33.13,7.67-14,32.1-15.14,45.19-13.43,8.49,1.11,18.69,4.29,18.52,7-.34,5.4-42.59.43-48.52,16-2.31,6.07,1.26,14.36,6.47,18.82,17.76,15.17,60-9.58,62-5.2.94,2-7.2,9.5-18.33,14-17.19,7-30.07,3.87-47,4.21-19,.39-25,5.16-49.4,11.37-24.15,6.17-73.27,18.7-123.31,4.51C1680.93,349.26,1660.85,343.56,1649.08,325.51Z"/><circle class="cls-27" cx="1860.7" cy="253.47" r="37.76"/><circle class="cls-28" cx="1777.19" cy="206.42" r="37.76"/><circle class="cls-29" cx="1731.32" cy="146.43" r="37.76"/><circle class="cls-30" cx="1679.08" cy="78.12" r="37.76"/><circle class="cls-31" cx="1903.83" cy="199.37" r="37.76"/><circle class="cls-32" cx="1797.48" cy="132.81" r="37.76"/><circle class="cls-33" cx="1724.26" cy="199.36" r="37.76"/><circle class="cls-34" cx="1750.34" cy="71.16" r="37.76"/><circle class="cls-35" cx="1836.98" cy="184.47" r="37.76"/><circle class="cls-36" cx="1851.3" cy="54.69" r="37.76"/><ellipse class="cls-37" cx="1706.69" cy="49.26" rx="37.76" ry="44.14" transform="translate(104.51 639.37) rotate(-21.87)"/><circle class="cls-38" cx="1942.15" cy="259.84" r="37.76"/><circle class="cls-39" cx="1910.89" cy="146.44" r="37.76"/><circle class="cls-40" cx="1775.43" cy="17.64" r="37.76"/><circle class="cls-41" cx="1862.66" cy="148.99" r="37.76"/><circle class="cls-42" cx="1805.72" cy="71.06" r="37.76"/><circle class="cls-43" cx="1885.7" cy="99.68" r="37.76"/></g><g id="Layer_23" data-name="Layer 23"><path class="cls-44" d="M1636.21,470.3c2-41.22,1.12-138.61-61-221.13-51.26-68.08-134.14-112.71-154-93.81-24.11,23,47.34,137.43,25.55,153.37-13.29,9.73-45.23-29-61-18.61-17.49,11.45-2.48,74.68,17.74,123.59,22.58,54.6,91.89,188.68,159,172.74C1610.15,575.1,1630.86,493.92,1636.21,470.3Z"/></g><g id="Layer_17" data-name="Layer 17"><path class="cls-45" d="M1407.13,846.54c-36.64-32.12-217.49-188.12-181.3-326.56,6.84-26.15,23.57-45.57,14.17-69-18.42-45.86-108.07-45.42-107-55,.63-5.63,39.88-8.41,104-3a1015.8,1015.8,0,0,1,137,21c26.73,6.36,70.52,20.84,109,57,67.51,63.45,72.85,150.64,78.61,244.82,4.41,72.07,9.59,173.36-33.48,194.65C1498,925.36,1458.86,891.89,1407.13,846.54Z"/></g><g id="Layer_9" data-name="Layer 9"><path class="cls-46" d="M1303.77,1134.57c-42.31-36.65-251-214.71-213-368.39,7.19-29,25.76-50.34,14.57-76.67-21.92-51.58-123.68-53.06-122.68-63.73.59-6.27,45.09-8.5,118-1a1193.17,1193.17,0,0,1,156,26.45c30.48,7.69,80.52,24.8,125,66,78,72.29,86,169.7,94.64,274.93,6.59,80.52,14.69,193.65-33.73,216.47C1408.67,1224.53,1363.49,1186.32,1303.77,1134.57Z"/></g><g id="Layer_16" data-name="Layer 16"><path class="cls-47" d="M1607.21,869.3c2-41.22,1.12-138.61-61-221.13-51.26-68.08-134.14-112.71-154-93.81-24.11,23,47.34,137.43,25.55,153.37-13.29,9.73-45.23-29-61-18.61-17.49,11.45-2.48,74.68,17.74,123.59,22.58,54.6,91.89,188.68,159,172.74C1581.15,974.1,1601.86,892.92,1607.21,869.3Z"/></g><g id="Layer_8" data-name="Layer 8"><path class="cls-48" d="M1473,1044c2.07-15.93,33.45-243.44,124-257,16.88-2.53,33.53,2.72,51-10,26.78-19.5,25.64-59.52,32-59,6.88.56.12,46.71,23,96,11.71,25.23,19.68,26.49,27,42,31,65.65-50.11,173.68-119,233-21.73,18.71-95.75,82.44-129,61C1461.4,1136.72,1466.11,1097,1473,1044Z"/></g></svg>