<?xml version="1.0" encoding="utf-8"?>
<!-- Generator: Adobe Illustrator 23.0.1, SVG Export Plug-In . SVG Version: 6.00 Build 0)  -->
<svg version="1.1" xmlns="http://www.w3.org/2000/svg" xmlns:xlink="http://www.w3.org/1999/xlink" x="0px" y="0px"
	 viewBox="0 0 1920 1080" style="enable-background:new 0 0 1920 1080;" xml:space="preserve">
<style type="text/css">
	.st0{fill:#190A2E;}
	.st1{fill:#D3297D;}
	.st2{fill:#1E1143;}
	.st3{fill:#221550;}
	.st4{fill:url(#SVGID_1_);}
	.st5{fill:url(#SVGID_2_);}
	.st6{fill:url(#SVGID_3_);}
	.st7{fill:url(#SVGID_4_);}
	.st8{fill:url(#SVGID_5_);}
	.st9{fill:url(#SVGID_6_);}
	.st10{fill:url(#SVGID_7_);}
	.st11{fill:#C61966;}
	.st12{fill:#230E4A;}
	.st13{fill:#2B125A;}
	.st14{fill:url(#SVGID_8_);}
	.st15{fill:#FF1FFF;}
	.st16{fill:url(#SVGID_9_);}
	.st17{fill:url(#SVGID_10_);}
	.st18{fill:url(#SVGID_11_);}
	.st19{fill:url(#SVGID_12_);}
	.st20{fill:url(#SVGID_13_);}
	.st21{fill:url(#SVGID_14_);}
	.st22{fill:url(#SVGID_15_);}
	.st23{fill:url(#SVGID_16_);}
	.st24{fill:url(#SVGID_17_);}
	.st25{fill:url(#SVGID_18_);}
	.st26{fill:#B6DB51;}
	.st27{fill:#5F4F72;}
	.st28{fill:url(#SVGID_19_);}
	.st29{fill:#ED9672;}
	.st30{fill:url(#SVGID_20_);}
	.st31{fill:url(#SVGID_21_);}
	.st32{fill:url(#SVGID_22_);}
	.st33{fill:url(#SVGID_23_);}
	.st34{fill:url(#SVGID_24_);}
	.st35{fill:url(#SVGID_25_);}
	.st36{fill:url(#SVGID_26_);}
	.st37{fill:#4F42C5;}
	.st38{fill:#7447CA;}
	.st39{fill:url(#SVGID_27_);}
	.st40{fill:#F9DB6E;}
</style>
<g id="Layer_4">
	<rect x="-71" y="-98" class="st0" width="2177" height="1307"/>
	<circle class="st1" cx="1041.5" cy="33.5" r="16.5"/>
</g>
<g id="Layer_1">
</g>
<g id="Layer_5">
	<path class="st2" d="M1491-126c-60.9,111.2,229.3,339.2,165,444c-30.7,50.1-115.9,28.5-129,74c-15.8,54.5,103.6,95.7,160,226
		c6,13.9,61.3,145.7,9,227c-88.3,137.4-467.8,105.2-558-58c-61.1-110.7,50.8-209.1-21-325c-69.6-112.5-261.4-159.5-346-98
		c-48.9,35.6-41.1,92.4-92,110c-52.7,18.3-122.8-21.2-163-67c-99.2-113.1-8.5-256.9-76-319C347.8,3.1,5.5,112.7-35,290
		c-53.5,234.2,415.7,602.7,662,515c103.8-37,155.4-150.4,226-129c64.4,19.6,52.8,123.5,108,227c112.6,211.2,425.7,275,625,267
		c175.2-7,475.3-78,502-227c31.4-175.1-337.3-332.4-288-539c14.5-60.8,48.2-54.6,71-132c48.2-163.4-39.5-402-200-441
		C1614-182.9,1519.6-178.3,1491-126z"/>
	<path class="st3" d="M1578.9-54.6c-51.8,94.5,194.9,288.4,140.3,377.5c-26.1,42.6-98.5,24.3-109.7,62.9
		c-12.9,44.5,57.4,92.3,136,192.1c69.2,87.8,140.7,178.7,125.5,243.1c-38.1,160.9-639.8,246.4-765,46c-71-113.6,39.5-271.8-67-381
		c-34.5-35.4-96-69.3-156-60c-87.9,13.6-101,110.3-184,122c-69.5,9.8-157.5-44.2-177-111c-37.7-128.9,192.2-261.9,163.4-309.6
		c-30.5-50.4-348.6-2.6-403.8,171.7C222.7,485.1,489.3,732.6,649,705c100.6-17.4,131.1-139.2,202-127c78.9,13.5,60.7,167.7,160,296
		c176.5,228.1,575,181.8,648.6,173.2c44.8-5.2,401.2-50.5,426.8-193c26.7-148.8-286.7-282.6-244.8-458.2
		c12.3-51.7,41-46.4,60.4-112.2c40.9-138.9-33.6-341.8-170-374.9C1683.4-102.9,1603.2-99,1578.9-54.6z"/>
	<path class="st3" d="M947,1209"/>
	<path class="st2" d="M833,939c0.4,12.4-4.3,30.4-17,37c-30.9,16.1-100.3-39.9-93-67c4.7-17.6,43.6-29.3,73-17
		C797.6,892.7,832,907.6,833,939z"/>
	<path class="st2" d="M1234,232c-29.8,12.9-29.9,129.3,16,147c25.7,9.9,65.9-11.3,76-40C1344.3,287.2,1262,219.9,1234,232z"/>
	<path class="st2" d="M888,113c-21.2,48.2-17.7,88.1,0,98c15.9,8.9,47.2-4.4,55-25C951.9,162.5,932.2,124.7,888,113z"/>
	<path class="st2" d="M-172,820c273.7-93.7,622.9,185.8,683,506c39.6,210.9-37.5,486.3-220,567c-271.7,120.1-743.6-206.3-757-585
		C-472.8,1115.5-362.1,885.1-172,820z"/>
	<path class="st2" d="M894,2291"/>
	<linearGradient id="SVGID_1_" gradientUnits="userSpaceOnUse" x1="589.1596" y1="1001.3517" x2="707.8087" y2="1001.3517">
		<stop  offset="0" style="stop-color:#7060EC"/>
		<stop  offset="1" style="stop-color:#5A42C4"/>
	</linearGradient>
	<path class="st4" d="M602,972c-4.1,5.9-17.7,27.3-11,48c11.1,34.2,73.1,51.5,101,24c21.6-21.3,23-69.4-8-90
		C659.2,937.5,622,944.1,602,972z"/>
	<linearGradient id="SVGID_2_" gradientUnits="userSpaceOnUse" x1="666" y1="1280" x2="666" y2="1280">
		<stop  offset="0" style="stop-color:#7060EC"/>
		<stop  offset="1" style="stop-color:#5A42C4"/>
	</linearGradient>
	<path class="st5" d="M666,1280"/>
</g>
<g id="Layer_3">
	<linearGradient id="SVGID_3_" gradientUnits="userSpaceOnUse" x1="-199.0971" y1="922.9999" x2="535.0961" y2="922.9999">
		<stop  offset="0" style="stop-color:#FF137E"/>
		<stop  offset="1" style="stop-color:#89002B"/>
	</linearGradient>
	<path class="st6" d="M504.2,775.8c3.4,7.7,6.4,15.4,9.2,23.2c4.5,12.5,8.3,25.2,11.4,37.9c0.9,3.8,1.8,7.7,2.6,11.5
		c2.1,10.2,3.8,20.4,5.1,30.7c4.3,35.6,3.3,71.2-2.7,105.8c-0.7,4.1-1.5,8.2-2.3,12.3c-23.3,112.5-99,212.4-212.2,262
		c-142.1,62.2-302.2,27.3-406-75.8l-3.8-3.8c-18.2-18.6-34.6-39.4-48.8-62.2c-8.5-13.7-16.2-28.1-23-43.1c-0.6-1.3-1.2-2.7-1.8-4
		c-1.4-3.1-2.7-6.2-3.9-9.3c-3.7-9.1-7-18.4-10-27.6c-12.4-39.1-17.8-79.2-16.9-118.5c0.4-18.6,2.3-37,5.5-55.2
		C-172.9,742.7-96.1,638,20.8,586.8c141.9-62.1,301.8-27.4,405.6,75.4c7.4,7.3,14.5,15,21.3,23C470.3,711.9,489.5,742.2,504.2,775.8
		z"/>
	<g id="Layer_7">
		<linearGradient id="SVGID_4_" gradientUnits="userSpaceOnUse" x1="-199.0004" y1="791.314" x2="447.7081" y2="791.314">
			<stop  offset="0" style="stop-color:#FF5DAA"/>
			<stop  offset="0.9984" style="stop-color:#950334"/>
		</linearGradient>
		<path class="st7" d="M447.7,685.3c-28,28.5-65,61.9-105.2,91.3c-6.3,4.6-12.7,9.1-19.1,13.5C182.7,886,38.1,911.8-47.9,918.3l0,0
			c-31.5,2.4-55.2,2.2-67.9,1.9c-24.1-0.5-54.6-2.4-83.1-5.5c0.4-18.6,2.3-37,5.5-55.2c148-28.5,437.7-71.9,619.9-197.4
			C433.8,669.6,440.9,677.2,447.7,685.3z"/>
		<linearGradient id="SVGID_5_" gradientUnits="userSpaceOnUse" x1="-182.0603" y1="924.4518" x2="524.7968" y2="924.4518">
			<stop  offset="0" style="stop-color:#FF5DAA"/>
			<stop  offset="0.9984" style="stop-color:#950334"/>
		</linearGradient>
		<path class="st8" d="M513.4,799c4.5,12.5,8.3,25.2,11.4,37.9c-115.3,29.4-467.1,65.2-676.4,209.8c-5,3.5-12.4,8.7-20.5,14.3
			c-3.7-9.1-7-18.4-10-27.6c28.9-30.5,69.9-68.5,115-101.5c6.3-4.6,12.7-9.1,19.1-13.5l0,0c140.7-96,285.3-121.7,371.3-128.3
			c31.5-2.4,55.2-2.2,67.9-1.9C426.9,789,476.7,792.6,513.4,799z"/>
		<linearGradient id="SVGID_6_" gradientUnits="userSpaceOnUse" x1="-166.3917" y1="986.7817" x2="532.4592" y2="986.7817">
			<stop  offset="0" style="stop-color:#FF5DAA"/>
			<stop  offset="0.9984" style="stop-color:#950334"/>
		</linearGradient>
		<path class="st9" d="M527.4,848.3c2.1,10.2,3.8,20.4,5.1,30.7c-29,30.7-70.3,69.1-115.9,102.4C218.6,1126,7.2,1126.1-41.7,1125.1
			c-29.4-0.7-68.3-3.3-101.6-7.7c-8.5-13.7-16.2-28.1-23-43.1c123.5-29,463.4-66.6,667.5-207.6C507.3,862.3,517,855.4,527.4,848.3z"
			/>
		<linearGradient id="SVGID_7_" gradientUnits="userSpaceOnUse" x1="-94.5675" y1="1084.1309" x2="529.7941" y2="1084.1309">
			<stop  offset="0" style="stop-color:#FF5DAA"/>
			<stop  offset="0.9984" style="stop-color:#950334"/>
		</linearGradient>
		<path class="st10" d="M-94.6,1179.5c12.6-2.8,27-5.6,43-8.7c139.9-26.7,398.8-66.8,579.1-173.7l2.3-12.3l-581.4,186l-39.2,12.5
			L-94.6,1179.5z"/>
		<path class="st11" d="M-331,1096"/>
		<path class="st12" d="M781,1213c22.2-85.1,154.1-132.5,254-129c210.1,7.3,389,243.4,343,362c-33.6,86.8-182.5,97.2-196,98
			C968.9,1556.5,747.2,1342.7,781,1213z"/>
		<path class="st13" d="M799.3,1249.1c21.5-85.1,149.5-132.4,246.3-129c203.8,7.3,377.2,243.3,332.6,361.9
			c-32.6,86.7-176.9,97.2-190.1,98C981.5,1592.4,766.6,1378.7,799.3,1249.1z"/>
		<linearGradient id="SVGID_8_" gradientUnits="userSpaceOnUse" x1="1437.9518" y1="729" x2="1508" y2="729">
			<stop  offset="0" style="stop-color:#FBAC7C"/>
			<stop  offset="0.2528" style="stop-color:#E722F0"/>
			<stop  offset="0.7392" style="stop-color:#221550"/>
			<stop  offset="0.905" style="stop-color:#221550"/>
		</linearGradient>
		<path class="st14" d="M1438.3,765.3c-2.9-10.8,11.3-19.3,42.1-56.4c7.2-8.7,23-28.1,27.3-25.7c0,0,0.1,0,0.1,0.1
			c3.2,3.3-46.4,81.3-56.3,90c-2,1.7-3.9,1.7-3.9,1.7h0C1440.9,771.7,1439,767.9,1438.3,765.3z"/>
		<ellipse class="st15" cx="1447.2" cy="763.1" rx="10.2" ry="11.9"/>
	</g>
	<g id="Layer_8">
		<linearGradient id="SVGID_9_" gradientUnits="userSpaceOnUse" x1="1270.8762" y1="434.7568" x2="1547.5642" y2="434.7568">
			<stop  offset="0" style="stop-color:#6AC5FF"/>
			<stop  offset="1" style="stop-color:#0255C5"/>
		</linearGradient>
		<path class="st16" d="M1535.9,379.3c1.3,2.9,2.4,5.8,3.5,8.7c1.7,4.7,3.1,9.5,4.3,14.3c0.4,1.4,0.7,2.9,1,4.3
			c0.8,3.8,1.4,7.7,1.9,11.6c1.6,13.4,1.2,26.9-1,39.9c-0.3,1.6-0.6,3.1-0.9,4.6c-8.8,42.4-37.3,80-80,98.7
			c-53.6,23.4-113.9,10.3-153-28.6l-1.4-1.4c-6.9-7-13-14.9-18.4-23.4c-3.2-5.2-6.1-10.6-8.7-16.3c-0.2-0.5-0.5-1-0.7-1.5
			c-0.5-1.2-1-2.3-1.5-3.5c-1.4-3.4-2.7-6.9-3.8-10.4c-4.7-14.8-6.7-29.8-6.4-44.7c0.2-7,0.9-13.9,2.1-20.8
			c7.8-44,36.7-83.5,80.8-102.8c53.5-23.4,113.7-10.3,152.8,28.4c2.8,2.8,5.5,5.7,8,8.7C1523.1,355.2,1530.4,366.6,1535.9,379.3z"/>
		<linearGradient id="SVGID_10_" gradientUnits="userSpaceOnUse" x1="1270.9127" y1="385.1296" x2="1514.6312" y2="385.1296">
			<stop  offset="0" style="stop-color:#99D3F1"/>
			<stop  offset="1" style="stop-color:#0255C5"/>
		</linearGradient>
		<path class="st17" d="M1514.6,345.2c-10.6,10.8-24.5,23.3-39.7,34.4c-2.4,1.7-4.8,3.4-7.2,5.1c-53,36.2-107.5,45.9-139.9,48.3l0,0
			c-11.9,0.9-20.8,0.8-25.6,0.7c-9.1-0.2-20.6-0.9-31.3-2.1c0.2-7,0.9-13.9,2.1-20.8c55.8-10.7,164.9-27.1,233.6-74.4
			C1509.4,339.2,1512.1,342.1,1514.6,345.2z"/>
		
			<linearGradient id="SVGID_11_" gradientUnits="userSpaceOnUse" x1="1277.2968" y1="432.8657" x2="1542.4426" y2="432.8657" gradientTransform="matrix(0.9824 7.712893e-03 7.712893e-03 0.9966 18.8103 -8.2368)">
			<stop  offset="0" style="stop-color:#99D3F1"/>
			<stop  offset="1" style="stop-color:#0255C5"/>
		</linearGradient>
		<path class="st18" d="M1536.8,398.7c1.5-6.4-2.6-12.9-6.1-17.4c-45.6,49-86,63.8-115.4,67.9c-31.1,4.3-78.7,0.4-126.7,32.2
			c-3.2,2.1-5.8,4-7.6,5.3c-1.4-3.4-2.7-6.9-3.8-10.4c8.3-5.6,20.8-13.4,36.9-21c23.7-11.2,48.8-19,112.7-29
			C1499,415,1533.2,414.5,1536.8,398.7z"/>
		<linearGradient id="SVGID_12_" gradientUnits="userSpaceOnUse" x1="1283.2017" y1="457.3116" x2="1546.5706" y2="457.3116">
			<stop  offset="0" style="stop-color:#99D3F1"/>
			<stop  offset="1" style="stop-color:#0255C5"/>
		</linearGradient>
		<path class="st19" d="M1544.7,406.6c0.8,3.8,1.4,7.7,1.9,11.6c-5.5,5.8-12.1,12.3-19.5,18.9c0,0-12.1,10.8-24.2,19.7
			c-33.6,24.6-109.7,38.6-118.9,40.2c-23.3,4.2-54.6,8.7-92.1,11c-3.2-5.2-6.1-10.6-8.7-16.3c37.2-4.3,82.6-12.6,132.8-28.7
			C1468.1,446.2,1511.2,425.5,1544.7,406.6z"/>
		<linearGradient id="SVGID_13_" gradientUnits="userSpaceOnUse" x1="1299" y1="501.5381" x2="1545.5662" y2="501.5381">
			<stop  offset="0" style="stop-color:#99D3F1"/>
			<stop  offset="1" style="stop-color:#0255C5"/>
		</linearGradient>
		<path class="st20" d="M1310.3,531.4c10.5,6.1,26.8,13.6,46.7,13.6c32.9,0,41.2-20.2,83-28c32.4-6,40.8,3.6,62-6
			c23.1-10.5,35.8-32.3,42.7-48.3c0.3-1.5,0.6-3.1,0.9-4.6c-41,31-79,44.5-102.6,50.9c-31.4,8.5-58.5,10.1-75,11
			c-27.8,1.5-51.4,0-69-2C1302.8,522.5,1306.5,527,1310.3,531.4z"/>
	</g>
	<g id="Layer_11">
	</g>
	<g id="Layer_9">
	</g>
</g>
<g id="Layer_12">
	<linearGradient id="SVGID_14_" gradientUnits="userSpaceOnUse" x1="1057.7878" y1="163.3752" x2="1176.7467" y2="163.3752">
		<stop  offset="0" style="stop-color:#7060EC"/>
		<stop  offset="1" style="stop-color:#5A42C4"/>
	</linearGradient>
	<path class="st21" d="M1115,110c-38.7,2.5-65.3,48.4-55,76c11.7,31.6,73,42.3,101,16c11.9-11.1,18-29.2,15-46
		C1171.1,128.2,1142.2,108.2,1115,110z"/>
	<linearGradient id="SVGID_15_" gradientUnits="userSpaceOnUse" x1="710.4539" y1="236.5258" x2="784.1968" y2="236.5258">
		<stop  offset="0" style="stop-color:#9F62E2"/>
		<stop  offset="1" style="stop-color:#8243C0"/>
	</linearGradient>
	<path class="st22" d="M728,216c-9.1,14.4-23.4,40.1-15,50c11.6,13.7,67.4-1.3,71-28c1.9-14.1-10.2-34.4-28-36
		C740.4,200.6,729.1,214.5,728,216z"/>
	<linearGradient id="SVGID_16_" gradientUnits="userSpaceOnUse" x1="1236.9712" y1="718.858" x2="1347.681" y2="718.858">
		<stop  offset="0" style="stop-color:#9F62E2"/>
		<stop  offset="1" style="stop-color:#8243C0"/>
	</linearGradient>
	<path class="st23" d="M1274,680c-21.7,6.8-36.3,24.7-37,44c-0.7,17.7,10.4,36.5,25,41c36.1,11,96.5-64.7,84-86
		C1341.7,671.7,1326.3,666.5,1274,680z"/>
	<linearGradient id="SVGID_17_" gradientUnits="userSpaceOnUse" x1="606" y1="1470" x2="606" y2="1470">
		<stop  offset="0" style="stop-color:#9F62E2"/>
		<stop  offset="1" style="stop-color:#8243C0"/>
	</linearGradient>
	<path class="st24" d="M606,1470"/>
	<g>
		<g>
			<linearGradient id="SVGID_18_" gradientUnits="userSpaceOnUse" x1="894.3431" y1="935.3657" x2="897.2411" y2="935.3657">
				<stop  offset="0" style="stop-color:#FFD19A"/>
				<stop  offset="1" style="stop-color:#FF7D59"/>
			</linearGradient>
			<path class="st25" d="M895.8,936.9c1.9,0,1.9-3,0-3C893.9,933.9,893.9,936.9,895.8,936.9L895.8,936.9z"/>
		</g>
	</g>
	<g>
		<g>
			<path class="st26" d="M1151.6,339.4c1.9,0,1.9-3,0-3C1149.7,336.4,1149.7,339.4,1151.6,339.4L1151.6,339.4z"/>
		</g>
	</g>
	<g>
		<g>
			<path class="st26" d="M1444.2,189.2c5.8,0,5.8-9,0-9C1438.4,180.2,1438.4,189.2,1444.2,189.2L1444.2,189.2z"/>
		</g>
	</g>
	<g>
		<g>
			<path class="st26" d="M960.1,209.1c5.8,0,5.8-9,0-9C954.3,200.1,954.3,209.1,960.1,209.1L960.1,209.1z"/>
		</g>
	</g>
	<g>
		<g>
			<path class="st26" d="M693.6,334.8c5.8,0,5.8-9,0-9C687.8,325.8,687.8,334.8,693.6,334.8L693.6,334.8z"/>
		</g>
	</g>
	<g>
		<g>
			<path class="st26" d="M1488.6,656.5c3.9,0,3.9-6,0-6C1484.8,650.5,1484.8,656.5,1488.6,656.5L1488.6,656.5z"/>
		</g>
	</g>
	<g>
		<g>
			<path class="st26" d="M644.6,860.2c3.9,0,3.9-6,0-6C640.7,854.2,640.7,860.2,644.6,860.2L644.6,860.2z"/>
		</g>
	</g>
	<g>
		<g>
			<path class="st26" d="M790.1,1054.7c9.7,0,9.7-15,0-15C780.4,1039.7,780.4,1054.7,790.1,1054.7L790.1,1054.7z"/>
		</g>
	</g>
	<g>
		<g>
			<path class="st26" d="M776.3,573.7c9.7,0,9.7-15,0-15C766.7,558.7,766.6,573.7,776.3,573.7L776.3,573.7z"/>
		</g>
	</g>
	<g>
		<g>
			<path class="st26" d="M1113.3,899c8.4,0,8.4-13,0-13C1105,886,1104.9,899,1113.3,899L1113.3,899z"/>
		</g>
	</g>
	<g>
		<g>
			<path class="st26" d="M454.6,474.6c8.4,0,8.4-13,0-13C446.2,461.6,446.2,474.6,454.6,474.6L454.6,474.6z"/>
		</g>
	</g>
	<g>
		<g>
			<path class="st26" d="M1728.4,122.7c0.8,0.8,1.5,1.5,2.3,2.3c1.2,1.2,2.9,1.9,4.6,1.9c1.6,0,3.5-0.7,4.6-1.9
				c1.1-1.2,2-2.9,1.9-4.6c-0.1-1.7-0.7-3.4-1.9-4.6c-0.8-0.8-1.5-1.5-2.3-2.3c-1.2-1.2-2.9-1.9-4.6-1.9c-1.6,0-3.5,0.7-4.6,1.9
				c-1.1,1.2-2,2.9-1.9,4.6C1726.6,119.8,1727.1,121.4,1728.4,122.7L1728.4,122.7z"/>
		</g>
	</g>
	<g>
		<g>
			<path class="st26" d="M1675.5,465.5c6.4,0,6.4-10,0-10C1669.1,455.5,1669.1,465.5,1675.5,465.5L1675.5,465.5z"/>
		</g>
	</g>
	<g>
		<g>
			<path class="st26" d="M1457.2,877.9c1.9,0,1.9-3,0-3C1455.3,874.9,1455.3,877.9,1457.2,877.9L1457.2,877.9z"/>
		</g>
	</g>
	<g>
		<g>
			<path class="st1" d="M1291.8,144.9c1.9,0,1.9-3,0-3C1289.9,141.9,1289.9,144.9,1291.8,144.9L1291.8,144.9z"/>
		</g>
	</g>
	<g>
		<g>
			<path class="st1" d="M1696.2,391.8c12.2,0,12.2-19,0-19C1684,372.8,1684,391.8,1696.2,391.8L1696.2,391.8z"/>
		</g>
	</g>
	<g>
		<g>
			<path class="st1" d="M1016,739.3c12.9,0,12.9-20,0-20C1003.2,719.3,1003.2,739.3,1016,739.3L1016,739.3z"/>
		</g>
	</g>
	<g>
		<g>
			<path class="st1" d="M549.6,1049.5c12.9,0,12.9-20,0-20C536.7,1029.5,536.7,1049.5,549.6,1049.5L549.6,1049.5z"/>
		</g>
	</g>
	<g>
		<g>
			<path class="st1" d="M577.2,942.6c9.4,0,18.4-8.3,18-18c-0.4-9.8-7.9-18-18-18c-9.4,0-18.4,8.3-18,18
				C559.6,934.4,567.1,942.6,577.2,942.6L577.2,942.6z"/>
		</g>
	</g>
	<g>
		<g>
			<path class="st1" d="M540.4,686c12.2,0,12.2-19,0-19C528.2,667,528.1,686,540.4,686L540.4,686z"/>
		</g>
	</g>
	<g>
		<g>
			<path class="st1" d="M416.3,327.4c3.2,0,3.2-5,0-5C413.1,322.4,413.1,327.4,416.3,327.4L416.3,327.4z"/>
		</g>
	</g>
	<g>
		<g>
			<path class="st1" d="M1209.1,1037.4c3.2,0,3.2-5,0-5C1205.9,1032.4,1205.8,1037.4,1209.1,1037.4L1209.1,1037.4z"/>
		</g>
	</g>
	<g>
		<g>
			<path class="st1" d="M1255,600.8c3.2,0,3.2-5,0-5C1251.8,595.8,1251.8,600.8,1255,600.8L1255,600.8z"/>
		</g>
	</g>
	<g>
		<g>
			<path class="st1" d="M901.2,474.5c3.2,0,3.2-5,0-5C897.9,469.5,897.9,474.5,901.2,474.5L901.2,474.5z"/>
		</g>
	</g>
	<g>
		<g>
			<path class="st0" d="M1117.2,497.4c3.2,0,3.2-5,0-5C1113.9,492.4,1113.9,497.4,1117.2,497.4L1117.2,497.4z"/>
		</g>
	</g>
	<g>
		<g>
			<path class="st0" d="M1034.4,631.6c10.3,0,10.3-16,0-16C1024.1,615.6,1024.1,631.6,1034.4,631.6L1034.4,631.6z"/>
		</g>
	</g>
	<g>
		<g>
			<path class="st0" d="M632.3,650.8c8.4,0,8.4-13,0-13C623.9,637.8,623.9,650.8,632.3,650.8L632.3,650.8z"/>
		</g>
	</g>
	<g>
		<g>
			<path class="st0" d="M1742.2,240.5c9.7,0,9.7-15,0-15C1732.5,225.5,1732.5,240.5,1742.2,240.5L1742.2,240.5z"/>
		</g>
	</g>
	<g>
		<g>
			<path class="st0" d="M1562.9,1.5c9.7,0,9.7-15,0-15C1553.3-13.5,1553.3,1.5,1562.9,1.5L1562.9,1.5z"/>
		</g>
	</g>
	<g>
		<g>
			<path class="st0" d="M1319.4,49.1c5.8,0,5.8-9,0-9C1313.6,40.1,1313.6,49.1,1319.4,49.1L1319.4,49.1z"/>
		</g>
	</g>
	<g>
		<g>
			<path class="st0" d="M1066.6,1007.3c5.8,0,5.8-9,0-9C1060.8,998.3,1060.8,1007.3,1066.6,1007.3L1066.6,1007.3z"/>
		</g>
	</g>
	<g>
		<g>
			<path class="st0" d="M956.3,555.6c8.9,0,17.4-7.8,17-17c-0.4-9.2-7.5-17-17-17c-8.9,0-17.4,7.8-17,17
				C939.7,547.8,946.8,555.6,956.3,555.6L956.3,555.6z"/>
		</g>
	</g>
	<g>
		<g>
			<path class="st0" d="M1714.6,59.3c8.9,0,17.4-7.8,17-17c-0.4-9.2-7.5-17-17-17c-8.9,0-17.4,7.8-17,17
				C1698,51.5,1705.1,59.3,1714.6,59.3L1714.6,59.3z"/>
		</g>
	</g>
	<g>
		<g>
			<path class="st27" d="M1372.2,227.8c5.1,0,5.2-8,0-8C1367.1,219.8,1367.1,227.8,1372.2,227.8L1372.2,227.8z"/>
		</g>
	</g>
	<g>
		<g>
			<path class="st27" d="M1236.6,97.9c0.6,0,0.6-1,0-1C1236,96.9,1236,97.9,1236.6,97.9L1236.6,97.9z"/>
		</g>
	</g>
	<g>
		<g>
			<path class="st27" d="M1108,38.2c0.6,0,0.6-1,0-1C1107.3,37.2,1107.3,38.2,1108,38.2L1108,38.2z"/>
		</g>
	</g>
	<g>
		<g>
			<path class="st27" d="M1209.1,74.9c0.6,0,0.6-1,0-1C1208.4,73.9,1208.4,74.9,1209.1,74.9L1209.1,74.9z"/>
		</g>
	</g>
	<g>
		<g>
			<path class="st27" d="M1167.7,25.9c2.6,0,2.6-4,0-4C1165.1,21.9,1165.1,25.9,1167.7,25.9L1167.7,25.9z"/>
		</g>
	</g>
	<g>
		<g>
			<path class="st27" d="M1213.7,97.1c2.6,0,2.6-4,0-4C1211.1,93.1,1211.1,97.1,1213.7,97.1L1213.7,97.1z"/>
		</g>
	</g>
	<g>
		<g>
			<path class="st27" d="M1436.6,103.2c4.5,0,4.5-7,0-7C1432.1,96.2,1432,103.2,1436.6,103.2L1436.6,103.2z"/>
		</g>
	</g>
</g>
<g id="Layer_13">
	<linearGradient id="SVGID_19_" gradientUnits="userSpaceOnUse" x1="795.9075" y1="666.7618" x2="936.2996" y2="666.7618">
		<stop  offset="0" style="stop-color:#FBAC7C"/>
		<stop  offset="0.2528" style="stop-color:#FD7C5A"/>
		<stop  offset="1" style="stop-color:#190A2E"/>
	</linearGradient>
	<path class="st28" d="M796.6,729.3c-5.8-18.6,22.6-33.2,84.4-97.2c14.5-15,46.1-48.4,54.8-44.3c0.1,0,0.1,0.1,0.2,0.1
		c6.4,5.6-92.9,140.1-112.9,155.1c-3.9,2.9-7.9,2.9-7.9,2.9h0C801.9,740.3,798,733.7,796.6,729.3z"/>
	<circle class="st29" cx="814.5" cy="725.5" r="20.5"/>
	<linearGradient id="SVGID_20_" gradientUnits="userSpaceOnUse" x1="479.9518" y1="619" x2="550" y2="619">
		<stop  offset="0" style="stop-color:#FBAC7C"/>
		<stop  offset="0.2528" style="stop-color:#E722F0"/>
		<stop  offset="0.7392" style="stop-color:#221550"/>
		<stop  offset="0.905" style="stop-color:#221550"/>
	</linearGradient>
	<path class="st30" d="M480.3,655.3c-2.9-10.8,11.3-19.3,42.1-56.4c7.2-8.7,23-28.1,27.3-25.7c0,0,0.1,0,0.1,0.1
		c3.2,3.3-46.4,81.3-56.3,90c-2,1.7-3.9,1.7-3.9,1.7h0C482.9,661.7,481,657.9,480.3,655.3z"/>
	<ellipse class="st15" cx="489.2" cy="653.1" rx="10.2" ry="11.9"/>
	<linearGradient id="SVGID_21_" gradientUnits="userSpaceOnUse" x1="901.9518" y1="54" x2="972" y2="54">
		<stop  offset="0" style="stop-color:#FBAC7C"/>
		<stop  offset="0.2528" style="stop-color:#E722F0"/>
		<stop  offset="0.7392" style="stop-color:#221550"/>
		<stop  offset="0.905" style="stop-color:#221550"/>
	</linearGradient>
	<path class="st31" d="M902.3,90.3c-2.9-10.8,11.3-19.3,42.1-56.4c7.2-8.7,23-28.1,27.3-25.7c0,0,0.1,0,0.1,0.1
		c3.2,3.3-46.4,81.3-56.3,90c-2,1.7-3.9,1.7-3.9,1.7h0C904.9,96.7,903,92.9,902.3,90.3z"/>
	<ellipse class="st15" cx="911.2" cy="88.1" rx="10.2" ry="11.9"/>
</g>
<g id="Layer_6">
	
		<linearGradient id="SVGID_22_" gradientUnits="userSpaceOnUse" x1="1086.7598" y1="1115.3177" x2="1363.4478" y2="1115.3177" gradientTransform="matrix(0.7069 1.753245e-03 1.753245e-03 0.7102 460.894 152.6912)">
		<stop  offset="0" style="stop-color:#FBAC7C"/>
		<stop  offset="1" style="stop-color:#FE6E50"/>
	</linearGradient>
	<path class="st32" d="M1418.4,907.7c0.9,2.1,1.7,4.1,2.5,6.2c1.2,3.4,2.2,6.7,3.1,10.1c0.3,1,0.5,2.1,0.7,3.1
		c0.6,2.7,1,5.5,1.4,8.2c1.2,9.5,0.9,19.1-0.6,28.3c-0.2,1.1-0.4,2.2-0.6,3.3c-6.1,30.1-26.2,56.8-56.4,70
		c-37.8,16.6-80.5,7.1-108.2-20.6l-1-1c-4.9-5-9.3-10.6-13-16.7c-2.3-3.7-4.3-7.5-6.2-11.6c-0.2-0.4-0.3-0.7-0.5-1.1
		c-0.4-0.8-0.7-1.7-1-2.5c-1-2.4-1.9-4.9-2.7-7.4c-3.3-10.5-4.8-21.2-4.6-31.7c0.1-5,0.6-9.9,1.4-14.8c5.4-31.3,25.8-59.2,56.9-72.9
		c37.8-16.5,80.4-7.1,108.1,20.4c2,2,3.9,4,5.7,6.2C1409.3,890.6,1414.4,898.7,1418.4,907.7z"/>
	
		<linearGradient id="SVGID_23_" gradientUnits="userSpaceOnUse" x1="1086.7961" y1="1065.6907" x2="1330.5146" y2="1065.6907" gradientTransform="matrix(0.7069 1.753245e-03 1.753245e-03 0.7102 460.894 152.6912)">
		<stop  offset="0" style="stop-color:#FFD19A"/>
		<stop  offset="1" style="stop-color:#FF7D59"/>
	</linearGradient>
	<path class="st33" d="M1403.3,883.5c-7.4,7.6-17.3,16.5-28,24.4c-1.7,1.2-3.4,2.4-5.1,3.6c-37.4,25.6-75.9,32.4-98.8,34.1l0,0
		c-8.4,0.6-14.7,0.5-18.1,0.5c-6.4-0.2-14.5-0.7-22.2-1.5c0.1-5,0.6-9.9,1.4-14.8c39.4-7.5,116.6-18.9,165-52.4
		C1399.5,879.2,1401.4,881.3,1403.3,883.5z"/>
	
		<linearGradient id="SVGID_24_" gradientUnits="userSpaceOnUse" x1="1100.7974" y1="1106.1379" x2="1365.9431" y2="1106.1379" gradientTransform="matrix(0.6725 1.682094e-02 1.682094e-02 0.7036 481.0513 143.8646)">
		<stop  offset="0" style="stop-color:#FFD19A"/>
		<stop  offset="1" style="stop-color:#FF7D59"/>
	</linearGradient>
	<path class="st34" d="M1417.4,919.4c0.9-4.5-1.9-9.1-4.4-12.3c-30.6,34.1-58.2,44.1-78.2,46.6c-21.2,2.7-53.9-0.6-86.3,21.3
		c-2.2,1.5-3.9,2.8-5.1,3.7c-1-2.4-1.9-4.9-2.7-7.4c5.6-3.9,14.1-9.2,25-14.4c16.1-7.6,33.2-12.8,76.8-19.2
		C1391.7,930.5,1415.1,930.5,1417.4,919.4z"/>
	
		<linearGradient id="SVGID_25_" gradientUnits="userSpaceOnUse" x1="1107.5167" y1="1160.3818" x2="1370.8856" y2="1160.3818" gradientTransform="matrix(0.6446 2.902921e-02 2.902921e-02 0.6982 503.9104 133.855)">
		<stop  offset="0" style="stop-color:#FFD19A"/>
		<stop  offset="1" style="stop-color:#FF7D59"/>
	</linearGradient>
	<path class="st35" d="M1418.6,948.4c0.6,2.7,1.2,5.4,1.6,8.1c-3.3,3.9-7.4,8.2-12,12.6c0,0-7.5,7.2-15,13
		c-21,16.2-69.6,23.8-75.5,24.6c-14.9,2.2-35,4.5-59.1,5c-2.2-3.7-4.2-7.6-6.1-11.6c23.9-1.9,52.9-6.4,84.8-16.2
		C1370.4,973.8,1397.6,960.6,1418.6,948.4z"/>
	<linearGradient id="SVGID_26_" gradientUnits="userSpaceOnUse" x1="1072.9518" y1="1033" x2="1143" y2="1033">
		<stop  offset="0" style="stop-color:#FBAC7C"/>
		<stop  offset="0.2528" style="stop-color:#E722F0"/>
		<stop  offset="0.7392" style="stop-color:#221550"/>
		<stop  offset="0.905" style="stop-color:#221550"/>
	</linearGradient>
	<path class="st36" d="M1073.3,1069.3c-2.9-10.8,11.3-19.3,42.1-56.4c7.2-8.7,23-28.1,27.3-25.7c0,0,0.1,0,0.1,0.1
		c3.2,3.3-46.4,81.3-56.3,90c-2,1.7-3.9,1.7-3.9,1.7h0C1075.9,1075.7,1074,1071.9,1073.3,1069.3z"/>
	<ellipse class="st15" cx="1082.2" cy="1067.1" rx="10.2" ry="11.9"/>
</g>
<g id="Layer_10">
</g>
<g id="Layer_2">
	<path class="st37" d="M673.5-297.5c114.8,143.2,133.2,384.5,32,476c-98.2,88.7-246-20.5-351,78c-82.6,77.5-17.9,170.1-117,338
		c-24.6,41.6-105.4,178.6-212,177c-86.1-1.3-148.3-92.3-172-127c-173.7-254.3-185.9-846,174-1036
		C218.9-492.6,523.7-484.4,673.5-297.5z"/>
	<path class="st38" d="M1981,132c-71.3-11.9-189.4,118.3-200,241c-9.3,107,67.4,160.4,35,229c-39.4,83.4-167.8,36.5-237,127
		c-69.4,90.8,23.1,186.2-41,320c-60.7,126.7-186.5,130.5-184,186c4.4,97.1,397.8,260.1,620,124C2337.9,1136.1,2159.7,162,1981,132z"
		/>
</g>
<g id="Layer_14">
	<linearGradient id="SVGID_27_" gradientUnits="userSpaceOnUse" x1="273.6192" y1="337.916" x2="370.9709" y2="337.916">
		<stop  offset="0" style="stop-color:#6AC5FF"/>
		<stop  offset="1" style="stop-color:#0255C5"/>
	</linearGradient>
	<path class="st39" d="M366.9,318.4c0.4,1,0.9,2,1.2,3.1c0.6,1.7,1.1,3.3,1.5,5c0.1,0.5,0.2,1,0.3,1.5c0.3,1.4,0.5,2.7,0.7,4.1
		c0.6,4.7,0.4,9.4-0.4,14c-0.1,0.5-0.2,1.1-0.3,1.6c-3.1,14.9-13.1,28.2-28.1,34.7c-18.8,8.3-40.1,3.6-53.8-10.1l-0.5-0.5
		c-2.4-2.5-4.6-5.2-6.5-8.2c-1.1-1.8-2.2-3.7-3.1-5.7c-0.1-0.2-0.2-0.4-0.2-0.5c-0.2-0.4-0.4-0.8-0.5-1.2c-0.5-1.2-0.9-2.4-1.3-3.7
		c-1.6-5.2-2.4-10.5-2.2-15.7c0.1-2.5,0.3-4.9,0.7-7.3c2.7-15.5,12.9-29.4,28.4-36.2c18.8-8.2,40-3.6,53.8,10c1,1,1.9,2,2.8,3.1
		C362.4,309.9,364.9,313.9,366.9,318.4z"/>
	<path class="st40" d="M1632,694.8c0.3,0.6,0.5,1.3,0.8,1.9c0.4,1.1,0.7,2.1,1,3.2c0.1,0.3,0.2,0.6,0.2,1c0.2,0.9,0.3,1.7,0.4,2.6
		c0.4,3,0.3,6-0.2,8.9c-0.1,0.3-0.1,0.7-0.2,1c-2,9.4-8.3,17.8-17.8,22c-11.9,5.2-25.3,2.3-34-6.4l-0.3-0.3
		c-1.5-1.6-2.9-3.3-4.1-5.2c-0.7-1.1-1.4-2.4-1.9-3.6c-0.1-0.1-0.1-0.2-0.2-0.3c-0.1-0.3-0.2-0.5-0.3-0.8c-0.3-0.8-0.6-1.5-0.8-2.3
		c-1-3.3-1.5-6.6-1.4-9.9c0-1.6,0.2-3.1,0.5-4.6c1.7-9.8,8.2-18.6,18-22.9c11.9-5.2,25.3-2.3,34,6.3c0.6,0.6,1.2,1.3,1.8,1.9
		C1629.2,689.4,1630.8,692,1632,694.8z"/>
</g>
</svg>
