<?xml version="1.0" encoding="utf-8"?>
<!-- Generator: Adobe Illustrator 23.0.1, SVG Export Plug-In . SVG Version: 6.00 Build 0)  -->
<svg version="1.1" xmlns="http://www.w3.org/2000/svg" xmlns:xlink="http://www.w3.org/1999/xlink" x="0px" y="0px"
	 viewBox="0 0 560 288" style="enable-background:new 0 0 560 288;" xml:space="preserve">
<style type="text/css">
	.st0{display:none;}
	.st1{fill:#D75DFF;}
	.st2{fill:#93C9FF;}
</style>
<g id="Layer_1" class="st0">
</g>
<g id="Layer_2">
	<path class="st1" d="M91.7,76.2c0.1-1,5.1,0.3,8.7-2.6c4.5-3.6,3.7-11.3,4.6-11.2c0.8,0-0.5,6.5,3.1,11.2c3.4,4.5,9.4,4.9,9.2,6.1
		c-0.2,1.1-4.6-0.2-7.7,2c-5,3.7-3.1,14.3-3.6,14.3c-0.4,0,1-9.5-4.1-14.8C98,77.2,91.6,77.3,91.7,76.2z"/>
	<path class="st1" d="M318.4,68.1c0.1-0.6,2.5,0.1,4.3-1.4c2.2-2,1.8-6.3,2.3-6.3c0.4,0-0.3,3.7,1.5,6.3c1.7,2.5,4.6,2.8,4.5,3.4
		c-0.1,0.6-2.3-0.1-3.8,1.1c-2.4,2.1-1.5,8-1.8,8c-0.2,0,0.5-5.3-2-8.3C321.5,68.7,318.4,68.7,318.4,68.1z"/>
	<path class="st2" d="M239.6,49.9c0.1-1,5.1,0.3,8.7-2.6c4.5-3.6,3.7-11.3,4.6-11.2c0.8,0-0.5,6.5,3.1,11.2c3.4,4.5,9.4,4.9,9.2,6.1
		c-0.2,1.1-4.6-0.2-7.7,2c-5,3.7-3.1,14.3-3.6,14.3c-0.4,0,1-9.5-4.1-14.8C245.9,51,239.5,51,239.6,49.9z"/>
	<path class="st2" d="M280.5,163.8c0.1-0.3,2.6,0.1,4.3-0.8c2.3-1.1,1.9-3.6,2.3-3.6c0.4,0-0.3,2.1,1.5,3.6c1.7,1.4,4.7,1.6,4.6,2
		c-0.1,0.3-2.3-0.1-3.8,0.7c-2.5,1.2-1.6,4.6-1.8,4.6c-0.2,0,0.5-3-2-4.7C283.6,164.1,280.4,164.1,280.5,163.8z"/>
	<path class="st2" d="M417,74.2c0.1-0.3,2.6,0.1,4.3-0.8c2.3-1.1,1.9-3.6,2.3-3.6c0.4,0-0.3,2.1,1.5,3.6c1.7,1.4,4.7,1.6,4.6,2
		c-0.1,0.3-2.3-0.1-3.8,0.7c-2.5,1.2-1.6,4.6-1.8,4.6c-0.2,0,0.5-3-2-4.7C420.1,74.6,416.9,74.6,417,74.2z"/>
	<path class="st2" d="M147.4,137c0.1-1,5.1,0.3,8.7-2.6c4.5-3.6,3.7-11.3,4.6-11.2c0.8,0-0.5,6.5,3.1,11.2c3.4,4.5,9.4,4.9,9.2,6.1
		c-0.2,1.1-4.6-0.2-7.7,2c-5,3.7-3.1,14.3-3.6,14.3c-0.4,0,1-9.5-4.1-14.8C153.6,138,147.2,138.1,147.4,137z"/>
</g>
</svg>
