<?xml version="1.0" encoding="utf-8"?>
<!-- Generator: Adobe Illustrator 23.0.1, SVG Export Plug-In . SVG Version: 6.00 Build 0)  -->
<svg version="1.1" xmlns="http://www.w3.org/2000/svg" xmlns:xlink="http://www.w3.org/1999/xlink" x="0px" y="0px"
	 viewBox="0 0 60 60" style="enable-background:new 0 0 60 60;" xml:space="preserve">
<style type="text/css">
	.st0{display:none;}
	.st1{display:inline;}
	.st2{fill:#E10011;}
	.st3{fill:#607BEA;}
	.st4{fill:#FFFFFF;stroke:#FFFFFF;stroke-width:3;stroke-miterlimit:10;}
	.st5{fill:#FFFFFF;stroke:#FFFFFF;stroke-width:4;stroke-miterlimit:10;}
	.st6{fill:#F50019;}
</style>
<g id="Layer_1">
	<g class="st0">
		<g class="st1">
			<circle class="st2" cx="30.5" cy="29.5" r="28.5"/>
		</g>
	</g>
	<g id="Layer_2">
		<path class="st3" d="M48,51.1H12c-1.1,0.6-2.7,1.6-4.3,3.3c-2.2,2.3-2.5,4.1-3.6,4.1c-2.1,0.1-4-6.3-4.1-6.6
			c-0.7-2.5-1.5-6.9,0-12.9c0-8.8,0-17.6,0-26.5c0-6.6,5.4-12,12-12h36c6.6,0,12,5.4,12,12v26.5C60,45.7,54.6,51.1,48,51.1z"/>
	</g>
	<g id="Layer_3">
		<path class="st4" d="M19,23.4c-4.3-6.5-2.1-14,4-17.3c5.7-3,13.1-1.4,17.5,1.1c5.9,3.3,8.8,9.5,6.7,15.1
			c-3.1,8.2-14.9,9.6-16.1,9.7c-11.5,1.2-20.3-6.3-20.2-6.5s9.2,6.7,20.2,5.4c1.8-0.2,11.8-1.6,14.8-8.6c2-4.8,0.1-10.7-5.4-14
			c-5.1-3.1-13.2-3.9-18.8,0C16.4,11.9,15.2,18.4,19,23.4z"/>
		<path class="st5" d="M25.7,10.5c-0.4,0-2.4,6.3-2.7,15.1c-0.2,6.8-0.5,17.3,5.4,19.4c1.4,0.5,3.7,0.7,4.3,0c0.8-1-2.1-3.6-2.9-4.3
			C21,32.4,26.5,10.5,25.7,10.5z"/>
	</g>
</g>
<g id="Layer_3_1_">
	<circle class="st6" cx="52.1" cy="7.1" r="7.1"/>
</g>
</svg>
