<?xml version="1.0" encoding="utf-8"?>
<!-- Generator: Adobe Illustrator 23.0.1, SVG Export Plug-In . SVG Version: 6.00 Build 0)  -->
<svg version="1.1" xmlns="http://www.w3.org/2000/svg" xmlns:xlink="http://www.w3.org/1999/xlink" x="0px" y="0px"
	 viewBox="0 0 614.4 288" style="enable-background:new 0 0 614.4 288;" xml:space="preserve">
<style type="text/css">
	.st0{fill:#6442AD;}
</style>
<g id="Layer_1">
	<path class="st0" d="M-71.1,276.1c-1.2-30.3,93.1-88.2,168.6-66c23.3,6.9,82.7,31.7,119.5,31.4c42.3-0.3,43-19.5,95.6-24.5
		c56.8-5.4,62.5,16.3,114.5,11.3c58.9-5.7,68.8-35.3,117-35.2c37.5,0.1,62.6,17.9,101.3,43.4c159.9,105.2,205,111.6,201.3,130.8
		c-7,35.7-177.2,31.5-374.8,25.4c-140-4.3-254.8-12.3-331.4-18.5l0,0c-43.4-10.5-71.6-13.4-91.1-15.9c-15.5-2-24.2-4.4-31-8.1
		c-4.2-2.3-7-4.6-8-5.5C-27.1,314.6-70.3,296.2-71.1,276.1z"/>
</g>
<g id="Layer_2">
</g>
</svg>
