<svg xmlns="http://www.w3.org/2000/svg" xmlns:xlink="http://www.w3.org/1999/xlink" viewBox="0 0 1723.82 1661.84"><defs><style>.cls-1{fill:#4a0031;}.cls-2{fill:#4c0036;}.cls-3{fill:#ff9574;}.cls-4{fill:url(#linear-gradient);}.cls-5{fill:url(#linear-gradient-2);}.cls-6{fill:url(#linear-gradient-3);}.cls-7{fill:url(#linear-gradient-4);}.cls-8{fill:url(#linear-gradient-5);}.cls-9{fill:url(#linear-gradient-6);}.cls-10{fill:url(#radial-gradient);}.cls-11{fill:url(#radial-gradient-2);}.cls-12{fill:url(#radial-gradient-3);}.cls-13{fill:url(#radial-gradient-4);}.cls-14{fill:url(#radial-gradient-5);}.cls-15{fill:url(#radial-gradient-6);}.cls-16{fill:url(#radial-gradient-7);}.cls-17{fill:url(#radial-gradient-8);}.cls-18{fill:url(#radial-gradient-9);}.cls-19{fill:url(#radial-gradient-10);}.cls-20{fill:url(#radial-gradient-11);}.cls-21{fill:url(#radial-gradient-12);}.cls-22{fill:url(#radial-gradient-13);}.cls-23{fill:url(#radial-gradient-14);}.cls-24{fill:url(#radial-gradient-15);}.cls-25{fill:url(#radial-gradient-16);}.cls-26{fill:url(#radial-gradient-17);}.cls-27{fill:#efff15;}.cls-28{fill:url(#linear-gradient-7);}.cls-29{fill:url(#linear-gradient-8);}.cls-30{fill:url(#radial-gradient-18);}.cls-31{fill:url(#radial-gradient-19);}.cls-32{fill:url(#radial-gradient-20);}.cls-33{fill:url(#radial-gradient-21);}.cls-34{fill:url(#radial-gradient-22);}.cls-35{fill:url(#radial-gradient-23);}.cls-36{fill:url(#radial-gradient-24);}.cls-37{fill:url(#radial-gradient-25);}.cls-38{fill:url(#radial-gradient-26);}.cls-39{fill:url(#radial-gradient-27);}.cls-40{fill:url(#radial-gradient-28);}.cls-41{fill:url(#radial-gradient-29);}.cls-42{fill:url(#radial-gradient-30);}.cls-43{fill:url(#radial-gradient-31);}.cls-44{fill:url(#radial-gradient-32);}.cls-45{fill:url(#radial-gradient-33);}.cls-46{fill:url(#radial-gradient-34);}.cls-47{fill:url(#linear-gradient-9);}.cls-48{fill:url(#linear-gradient-10);}.cls-49{fill:url(#linear-gradient-11);}.cls-50{fill:url(#linear-gradient-12);}.cls-51{fill:url(#linear-gradient-13);}.cls-52{fill:url(#linear-gradient-14);}.cls-53{fill:url(#linear-gradient-15);}.cls-54{fill:url(#linear-gradient-16);}</style><linearGradient id="linear-gradient" x1="762" y1="713.4" x2="1433.5" y2="713.4" gradientUnits="userSpaceOnUse"><stop offset="0" stop-color="#e36a67"/><stop offset="0.77" stop-color="#ed4f6a"/><stop offset="0.94" stop-color="#f0486b"/></linearGradient><linearGradient id="linear-gradient-2" x1="1266" y1="661.4" x2="1937.5" y2="661.4" gradientTransform="matrix(0.36, 0.76, -0.9, 0.43, 1645.46, -798.36)" xlink:href="#linear-gradient"/><linearGradient id="linear-gradient-3" x1="1927.77" y1="858.35" x2="1807.48" y2="1200.92" gradientTransform="matrix(1.4, -0.09, 0.08, 1.28, -1094.84, -526.13)" gradientUnits="userSpaceOnUse"><stop offset="0" stop-color="#e30260"/><stop offset="0.19" stop-color="#c70257"/><stop offset="0.6" stop-color="#81023f"/><stop offset="0.94" stop-color="#43022a"/></linearGradient><linearGradient id="linear-gradient-4" x1="759.97" y1="770.78" x2="1431.47" y2="770.78" gradientTransform="matrix(0.83, 0.18, -0.21, 0.98, 548.54, -572.14)" xlink:href="#linear-gradient"/><linearGradient id="linear-gradient-5" x1="1235.15" y1="-70.22" x2="1389.41" y2="-70.22" gradientTransform="translate(600.39 -289.59) rotate(71.86)" xlink:href="#linear-gradient"/><linearGradient id="linear-gradient-6" x1="1739.43" y1="-38.84" x2="1739.43" y2="-38.84" gradientTransform="translate(600.39 -289.59) rotate(71.86)" xlink:href="#linear-gradient-3"/><radialGradient id="radial-gradient" cx="1154.18" cy="24.09" r="37.76" gradientTransform="translate(-149.28 -51.01) rotate(71.86)" gradientUnits="userSpaceOnUse"><stop offset="0" stop-color="#e95d00"/><stop offset="0.45" stop-color="#e94200"/><stop offset="0.94" stop-color="#e91f00"/></radialGradient><radialGradient id="radial-gradient-2" cx="1242.29" cy="-13.66" r="37.76" xlink:href="#radial-gradient"/><radialGradient id="radial-gradient-3" cx="1317.8" cy="-13.66" r="37.76" xlink:href="#radial-gradient"/><radialGradient id="radial-gradient-4" cx="1403.81" cy="-13.66" r="37.76" xlink:href="#radial-gradient"/><radialGradient id="radial-gradient-5" cx="791.2" cy="-417.04" r="37.76" gradientTransform="translate(-16.2 207.57) rotate(108.47)" xlink:href="#radial-gradient"/><radialGradient id="radial-gradient-6" cx="1288.43" cy="47.17" r="37.76" xlink:href="#radial-gradient"/><radialGradient id="radial-gradient-7" cx="1280.04" cy="-51.42" r="37.76" xlink:href="#radial-gradient"/><radialGradient id="radial-gradient-8" cx="1366.05" cy="47.17" r="37.76" xlink:href="#radial-gradient"/><radialGradient id="radial-gradient-9" cx="1223.41" cy="47.17" r="37.76" xlink:href="#radial-gradient"/><radialGradient id="radial-gradient-10" cx="1317.8" cy="137.37" r="37.76" xlink:href="#radial-gradient"/><radialGradient id="radial-gradient-11" cx="968.77" cy="1208.47" r="37.76" gradientTransform="translate(46.17 -354.51) scale(1 1.17)" xlink:href="#radial-gradient"/><radialGradient id="radial-gradient-12" cx="1099.64" cy="84.93" r="37.76" xlink:href="#radial-gradient"/><radialGradient id="radial-gradient-13" cx="1208.72" cy="128.98" r="37.76" xlink:href="#radial-gradient"/><radialGradient id="radial-gradient-14" cx="1393.32" cy="99.61" r="37.76" xlink:href="#radial-gradient"/><radialGradient id="radial-gradient-15" cx="1235.99" cy="89.12" r="37.76" xlink:href="#radial-gradient"/><radialGradient id="radial-gradient-16" cx="1332.49" cy="91.22" r="37.76" xlink:href="#radial-gradient"/><radialGradient id="radial-gradient-17" cx="1261.16" cy="137.37" r="37.76" xlink:href="#radial-gradient"/><linearGradient id="linear-gradient-7" x1="-120.45" y1="163.24" x2="246.92" y2="163.24" gradientTransform="translate(1645.34 395.84) rotate(-127.4)" xlink:href="#linear-gradient"/><linearGradient id="linear-gradient-8" x1="567.52" y1="194.62" x2="567.52" y2="194.62" gradientTransform="translate(1645.34 395.84) rotate(-127.4)" xlink:href="#linear-gradient-3"/><radialGradient id="radial-gradient-18" cx="-17.73" cy="257.55" r="37.76" gradientTransform="translate(895.67 634.41) rotate(-127.4)" xlink:href="#radial-gradient"/><radialGradient id="radial-gradient-19" cx="70.37" cy="219.8" r="37.76" gradientTransform="translate(895.67 634.41) rotate(-127.4)" xlink:href="#radial-gradient"/><radialGradient id="radial-gradient-20" cx="145.89" cy="219.8" r="37.76" gradientTransform="translate(895.67 634.41) rotate(-127.4)" xlink:href="#radial-gradient"/><radialGradient id="radial-gradient-21" cx="231.89" cy="219.8" r="37.76" gradientTransform="translate(895.67 634.41) rotate(-127.4)" xlink:href="#radial-gradient"/><radialGradient id="radial-gradient-22" cx="-10.21" cy="469.32" r="37.76" gradientTransform="translate(684.75 434.2) rotate(-90.79)" xlink:href="#radial-gradient"/><radialGradient id="radial-gradient-23" cx="116.52" cy="280.63" r="37.76" gradientTransform="translate(895.67 634.41) rotate(-127.4)" xlink:href="#radial-gradient"/><radialGradient id="radial-gradient-24" cx="108.13" cy="182.04" r="37.76" gradientTransform="translate(895.67 634.41) rotate(-127.4)" xlink:href="#radial-gradient"/><radialGradient id="radial-gradient-25" cx="194.13" cy="280.63" r="37.76" gradientTransform="translate(895.67 634.41) rotate(-127.4)" xlink:href="#radial-gradient"/><radialGradient id="radial-gradient-26" cx="51.49" cy="280.63" r="37.76" gradientTransform="translate(895.67 634.41) rotate(-127.4)" xlink:href="#radial-gradient"/><radialGradient id="radial-gradient-27" cx="145.89" cy="370.83" r="37.76" gradientTransform="translate(895.67 634.41) rotate(-127.4)" xlink:href="#radial-gradient"/><radialGradient id="radial-gradient-28" cx="430.03" cy="296.13" r="37.76" gradientTransform="translate(2136.72 395.46) rotate(180) scale(1 1.17)" xlink:href="#radial-gradient"/><radialGradient id="radial-gradient-29" cx="-72.27" cy="318.39" r="37.76" gradientTransform="translate(895.67 634.41) rotate(-127.4)" xlink:href="#radial-gradient"/><radialGradient id="radial-gradient-30" cx="36.81" cy="362.44" r="37.76" gradientTransform="translate(895.67 634.41) rotate(-127.4)" xlink:href="#radial-gradient"/><radialGradient id="radial-gradient-31" cx="221.4" cy="333.07" r="37.76" gradientTransform="translate(895.67 634.41) rotate(-127.4)" xlink:href="#radial-gradient"/><radialGradient id="radial-gradient-32" cx="64.08" cy="322.58" r="37.76" gradientTransform="translate(895.67 634.41) rotate(-127.4)" xlink:href="#radial-gradient"/><radialGradient id="radial-gradient-33" cx="160.57" cy="324.68" r="37.76" gradientTransform="translate(895.67 634.41) rotate(-127.4)" xlink:href="#radial-gradient"/><radialGradient id="radial-gradient-34" cx="89.25" cy="370.83" r="37.76" gradientTransform="translate(895.67 634.41) rotate(-127.4)" xlink:href="#radial-gradient"/><linearGradient id="linear-gradient-9" x1="1199.07" y1="243.03" x2="985.76" y2="850.53" gradientTransform="matrix(1, 0, 0, 1, 0, 0)" xlink:href="#linear-gradient-3"/><linearGradient id="linear-gradient-10" x1="1179.23" y1="1181.71" x2="1173.97" y2="1196.67" gradientTransform="matrix(1, 0, 0, 1, 0, 0)" xlink:href="#linear-gradient-3"/><linearGradient id="linear-gradient-11" x1="1435.06" y1="296.41" x2="1611.73" y2="485.42" gradientUnits="userSpaceOnUse"><stop offset="0" stop-color="#ff9574"/><stop offset="0.39" stop-color="#fa7a71"/><stop offset="0.98" stop-color="#f0486b"/></linearGradient><linearGradient id="linear-gradient-12" x1="1548.44" y1="64.88" x2="1335.12" y2="672.38" gradientTransform="translate(247.63 -471.09) rotate(22.65)" xlink:href="#linear-gradient-3"/><linearGradient id="linear-gradient-13" x1="1733.74" y1="670.42" x2="1613.45" y2="1012.99" gradientTransform="matrix(0.77, -1.18, 1.08, 0.7, -776.13, 2012.38)" xlink:href="#linear-gradient-3"/><linearGradient id="linear-gradient-14" x1="1553.9" y1="742.16" x2="1433.62" y2="1084.72" gradientTransform="matrix(0.85, -1.3, 1.24, 0.81, -1085.55, 2096.42)" xlink:href="#linear-gradient-3"/><linearGradient id="linear-gradient-15" x1="1406.06" y1="695.41" x2="1582.73" y2="884.42" xlink:href="#linear-gradient-11"/><linearGradient id="linear-gradient-16" x1="1644.29" y1="839.87" x2="1530.49" y2="1163.95" gradientUnits="userSpaceOnUse"><stop offset="0.1" stop-color="#e30260"/><stop offset="0.28" stop-color="#c70257"/><stop offset="0.65" stop-color="#81023f"/><stop offset="0.95" stop-color="#43022a"/></linearGradient></defs><title>rytrytryt</title><g id="Layer_24" data-name="Layer 24"><path class="cls-1" d="M1106-71C1047.39-48.56,966.67-6.14,918,76c-69.85,117.89-35.78,253.65,41,492,134.87,418.69,202.3,628,266,685,246.94,220.82,724.65,234.83,1002-5,385.35-333.22,304.41-1087.69-142-1370C1810.46-295.62,1426.25-272.61,1106-71Z" transform="translate(-749.67 238.58)"/><path class="cls-2" d="M1005,1766" transform="translate(-749.67 238.58)"/></g><g id="Layer_15" data-name="Layer 15"><path class="cls-3" d="M1603.69,1251.37c76.63-104.08,145.45-106.32,214.48-168.39,122.14-109.83,170.92-340.43,124.56-386.87-49.38-49.45-245.14,71.46-343.46,257.34-94.24,178.16-90.16,399.34-65.6,407.59C1545.71,1365.08,1556.25,1315.8,1603.69,1251.37Z" transform="translate(-749.67 238.58)"/></g><g id="Layer_11" data-name="Layer 11"><path class="cls-4" d="M1335.77,965.68A98.24,98.24,0,0,1,1309,927c-1.32-3.5-8.12-22.15-6-39.74,3.88-32.46,38-43.56,65.55-72.57,42.7-45,77.08-114.06,60.86-132.26-15.26-17.12-83.66,1.46-118.21,46.82-37,48.62-17.21,104.39-39.8,111.19-20.69,6.23-60.44-33.59-64.37-76.08-2.2-23.64,8.41-29.7,24.58-74.91,26.24-73.4,22.46-125.05,21.06-139.28-.7-7.2-6.27-64.19-21.06-65.55-16.48-1.51-40.93,66.35-50.33,126.41-10.27,65.56,3,99.12-14,107.69-18.27,9.19-59.81-15.74-71.4-50.33-12.27-36.63,17.38-59.16,38.63-133.44,13.91-48.63,25.68-124.64,8.19-132.26-16.69-7.27-73.45,47.65-83.1,114.71-7.88,54.73,20.17,85.91,3.51,100.66-16.06,14.21-49.65.5-57.73-2.83-22.79-9.41-54.16-32.42-51.12-54.53,2.35-17.14,22.81-15,41-43.3,16.63-25.92,16.5-54.25,16.39-59.7-.43-21.23-7.26-23.76-7-44.48.34-30.38,15.29-48.94,12.87-50.33-3.47-2-37,33-57.35,86.62-16.52,43.48-15.45,75.73-23.41,76.08-9.4.41-6-44.73-38.63-86.61,0,0-32.34-41.4-90.12-51.51-26.95-4.71-33.69,2.87-35.12,4.69-6.45,8.18-1.73,21.7,1.51,30.63,13.72,37.82,45.49,59.66,55.85,66.51,47.12,31.2,89.9,35.43,89,41-1,5.89-48-7-99.49,12.88-28.48,11-60.69,33-57.35,45.64,3.3,12.43,43.76,18.86,78.42,8.2,41.21-12.68,51-42.37,72.57-37.46,19,4.32,16.22,28.32,43.31,55,32.66,32.19,73.57,33.64,72.57,39.8-1.64,10-101.36-22.57-162.7,24.58-33.49,25.74-55.23,75.05-39.79,93.64,13.87,16.7,58.7,1.45,107.68-15.22h0c94.1-40.33,111.15-63.27,134.6-57.35,26.47,6.67,50.18,47.36,41,72.57-12.62,34.54-78.8,13.94-161.53,64.37-8.66,5.28-83.2,51.31-74.91,74.91,10.54,30,160.59,40.53,232.93-32.77,19.63-19.9,32.09-44.5,57.35-45.65,29.29-1.33,63.44,29.43,60.86,53.84-2.62,24.83-41.78,29.41-118.21,71.4-49.3,27.08-112.82,62-107.69,81.93,5.84,22.69,104,40.16,165-3.51,35.32-25.28,45.84-62.22,74.91-60.86,26.36,1.23,37.72,32.53,60.86,29.26C1317.08,1003,1328.76,982.3,1335.77,965.68Z" transform="translate(-749.67 238.58)"/><path class="cls-5" d="M1481.34,997.89A99.6,99.6,0,0,1,1506.7,961c2.69-2.51,17.11-15.65,33.78-21.53,30.77-10.86,53.12,10.54,89.26,19.21,56.13,13.47,131,10.36,141.58-9.79,10-19-31.45-63.36-84.93-70.47-57.32-7.61-100.64,31.32-114.93,16.93-13.08-13.16,8.63-60.53,45.65-81.64,20.61-11.75,29.91-6.22,76.63-13.11,75.86-11.2,121.22-36.09,133.6-43.22,6.26-3.61,55.81-32.15,51.71-44-4.57-13.24-74.76-3-132.49,15.36-63,20.07-88.6,44.5-102.48,35.13-14.9-10-7.3-52.44,19.82-76,28.73-25,59.78-11.91,134.63-27.31,49-10.07,122-33.45,122.62-50.07.56-15.86-69.56-35.88-133.71-14.69-52.35,17.28-70.46,52-89.8,45.56-18.64-6.23-18.34-37.75-18.23-45.35.3-21.44,9.83-55.23,30.92-62.33,16.35-5.5,21.8,11.05,53.93,12.88,29.43,1.68,55-10.49,59.91-12.89,19-9.38,18.89-15.68,37.71-24.32,27.61-12.69,49.79-9.16,50.17-11.6.55-3.5-43.2-14.22-99-7-45.29,5.89-74.08,20.44-77.27,14.51-3.75-7,38.29-23.68,64.46-66.44,0,0,25.8-42.37,14.14-90.87-5.44-22.62-14.73-24.54-16.88-24.86-9.73-1.44-20.27,7.92-27.18,14.2-29.27,26.61-37.59,60.21-40.06,71.05-11.26,49.33.32,83.85-5,85.48-5.7,1.74-10.93-39.73-47.48-70.6-20.23-17.09-51.74-32.35-62-24.42-10.06,7.82-1.31,41.5,20.83,63.47,26.31,26.11,56.68,20.92,60,39.54,2.94,16.36-19.77,24.47-34.17,56.56-17.36,38.69-3.94,70.59-9.87,72.45-9.67,3-16.08-87.13-80.83-114-35.35-14.65-87.78-10.27-99,9.46-10.12,17.72,19.82,45.51,52.54,75.87h0c70.37,54.79,97.27,58.06,100.36,78.51,3.49,23.08-24.78,58.55-50.9,62.24-35.81,5.07-41-54.32-116.41-96.1-7.9-4.38-76.38-41.78-94.75-25.38-23.33,20.83,21.16,140.07,113.53,164.17,25.07,6.54,51.81,5.59,62,24.42,11.75,21.83-3.78,61-26.79,69.48-23.41,8.57-41.66-19.42-107.17-60-42.25-26.17-96.7-59.88-112.9-47.45-18.43,14.13,1.13,96.66,62.6,124.72,35.59,16.24,72.8,8.55,82,31.36,8.38,20.68-15.84,42.71-4.55,59C1440.85,999.49,1463.78,999.61,1481.34,997.89Z" transform="translate(-749.67 238.58)"/></g><g id="Layer_22" data-name="Layer 22"><path class="cls-6" d="M1436,743.4c3.69-48.59,19.89-286.88,152.33-341,25-10.23,50.6-8.5,63.68-30.08,25.62-42.26-28.55-113.69-20.25-118.59,4.88-2.88,30.67,26.85,64.83,81.38a1016.43,1016.43,0,0,1,65.45,122.17c11,25.2,25.67,68.91,19.85,121.39-10.22,92.09-76.75,148.7-148.61,209.85-55,46.79-132.89,111.73-175.78,90.07C1427.53,863.4,1430.8,812,1436,743.4Z" transform="translate(-749.67 238.58)"/></g><g id="Layer_20" data-name="Layer 20"><path class="cls-7" d="M1430.27,669a99.84,99.84,0,0,1-13.79-42.64c-.34-3.66-2-23.1,3.56-39.9,10.16-31,40.76-35.66,69.68-59,44.92-36.25,88.11-97.43,78.62-118.14-8.93-19.5-69.39-13.75-107.64,24.29-41,40.77-36.6,98.84-56.71,101.39-18.42,2.33-42.7-43.77-36.83-86,3.26-23.5,13.32-27.49,36.36-68.71,37.42-66.94,45.37-118.07,47.27-132.23,1-7.16,8.59-63.83-3.33-67.84-13.28-4.46-48,57.39-68.67,114.35-22.54,62.16-18.8,97.34-34.7,102.62-17,5.67-46-26.2-48.15-62.1-2.28-38,27-54.63,60.51-123.32,21.92-45,47.94-117.09,35.14-127.7-12.22-10.13-70.87,33.22-93.22,97-18.25,52-1.77,87.57-18.7,99-16.3,11-41.1-8.51-47.05-13.23-16.8-13.32-37.76-41.49-30.52-62.53,5.62-16.31,22.06-10.52,43.12-34.87,19.28-22.29,25.25-50,26.33-55.33,4.2-20.82-.89-24.53,3.74-44.72,6.8-29.61,23.13-45,21.43-46.82-2.44-2.57-37.63,25.55-65.93,74.2-23,39.47-29,71.16-35.65,70.06-7.85-1.29,4.6-44.78-13.31-91.6,0,0-17.82-46.29-63.37-66.64-21.24-9.5-28.42-3.31-30-1.8-7.08,6.82-6.09,20.89-5.33,30.2,3.22,39.42,24.76,66.51,31.84,75.09,32.22,39,66.63,50.91,64.66,56.14-2.1,5.57-38.14-15.59-84.9-5.46-25.89,5.6-57.2,21.26-57.15,34.18.06,12.74,32.08,26.36,63,22.23,36.75-4.92,51.16-32.15,68-23.43,14.75,7.66,7.32,30.6,24,61.59,20.06,37.36,53.52,46.19,51.38,52-3.5,9.51-78.84-40.42-139.6-5.49-33.18,19.07-61.71,63.28-53,84.24,7.87,18.83,48.16,12.06,92.17,4.67h0c86.34-22.33,105.34-41.64,123.43-31.61,20.42,11.31,31.27,55.35,18.26,78.3-17.83,31.46-68-.66-147.17,33.59-8.29,3.59-79.7,35-77.92,59.58,2.27,31.2,123.89,68.71,199.34,10.23,20.48-15.87,36-37.65,57.15-34.19,24.46,4,46.06,40.25,38.7,63.63-7.49,23.77-40.81,21.15-112.92,48.3-46.51,17.51-106.44,40.07-106.48,60.5-.05,23.22,77.28,58.08,137,26.49,34.58-18.28,51.19-52.46,74.9-45.86,21.5,6,24.17,38.61,44,39.62C1406.85,702,1420.92,683.91,1430.27,669Z" transform="translate(-749.67 238.58)"/></g><g id="Layer_13" data-name="Layer 13"><path class="cls-8" d="M1160.45,816.5c4.5,18.26-5.28,27.58-14.94,68.92-8.7,37.22-7.2,41.52-14.29,70.9a576.91,576.91,0,0,1-26.29,81.46c-37.55,12.54-45.8,15.15-45.84,15s35-6.7,45.26-30.29c1.45-3.34,4.74-10.93,1.41-15.91-9.27-13.84-61.59,7.38-62.38,5-.55-1.64,25.45-7.32,48.56-27,5.08-4.32,18.89-16.29,28-35.68,12.54-26.58,2.37-37.51,11-80.87,5.78-29,14.63-45.73,10.86-47.71-4.47-2.35-21.21,19-47.32,44.2a65.08,65.08,0,0,1-11.22,9.17c-10.21,6.45-18.76,6.74-44,24.38-21.61,15.11-35,28.66-62.55,38.16-1,.34-15.61,5.34-16.6,3.23-.83-1.75,8.26-7.59,30-23.06,19.27-13.73,25-18.31,24-21.11-1.58-4.32-17.06,1.91-33.14-6.8-7.85-4.25-14.36-11.26-13.2-13.33,1.78-3.16,19.36,8.74,41.08,10.82,23.73,2.28,54-7,73.78-30.8,17.5-21.07,30.9-57.82,16.32-78.2-9.59-13.39-21.36-5.91-70.87-20.92-34.83-10.56-52.2-21.29-61.63-12.92-8.8,7.83.93,22.47-9.44,31.8-11.86,10.65-35.3,3.71-47.09-2.23-7.65-3.85-16.23-10.22-15.19-12.68,2.1-5,40.34,13.64,51.07.92,4.19-5,3.55-14,.1-19.9-11.76-20.18-59.81-10.75-60.29-15.56-.22-2.24,9.93-6.6,21.93-7.19,18.53-.91,29.67,6.27,45.71,11.51,18.09,5.91,25.34,3.4,50.39,5.56,24.83,2.15,75.33,6.52,117.89,36.42C1138.22,783.58,1155.3,795.58,1160.45,816.5Z" transform="translate(-749.67 238.58)"/><path class="cls-9" d="M1179,1351.26" transform="translate(-749.67 238.58)"/></g><g id="Layer_12" data-name="Layer 12"><circle class="cls-10" cx="187.25" cy="1053.28" r="37.76"/><circle class="cls-11" cx="250.56" cy="1125.25" r="37.76"/><circle class="cls-12" cx="274.08" cy="1197.01" r="37.76"/><circle class="cls-13" cx="300.86" cy="1278.74" r="37.76"/><circle class="cls-14" cx="128.69" cy="1090.13" r="37.76"/><circle class="cls-15" cx="207.13" cy="1188.04" r="37.76"/><circle class="cls-16" cx="298.2" cy="1149.37" r="37.76"/><circle class="cls-17" cx="231.3" cy="1261.8" r="37.76"/><circle class="cls-18" cx="186.88" cy="1126.25" r="37.76"/><circle class="cls-19" cx="130.56" cy="1244.04" r="37.76"/><ellipse class="cls-20" cx="1014.94" cy="1058.29" rx="37.76" ry="44.14" transform="translate(-796.85 285.94) rotate(-2.61)"/><circle class="cls-21" cx="112.46" cy="1020.4" r="37.76"/><circle class="cls-22" cx="104.56" cy="1137.77" r="37.76"/><circle class="cls-23" cx="189.95" cy="1304.04" r="37.76"/><circle class="cls-24" cx="150.93" cy="1151.27" r="37.76"/><circle class="cls-25" cx="178.98" cy="1243.62" r="37.76"/><circle class="cls-26" cx="112.92" cy="1190.22" r="37.76"/><path class="cls-27" d="M1099.92,663a1.5,1.5,0,0,0,0-3,1.5,1.5,0,0,0,0,3Z" transform="translate(-749.67 238.58)"/><path class="cls-27" d="M1211.37,763a1.5,1.5,0,0,0,0-3,1.5,1.5,0,0,0,0,3Z" transform="translate(-749.67 238.58)"/><path class="cls-28" d="M1649.08,325.51c-10.27-15.75-4.11-27.77-8.62-70-4.07-38-6.9-41.57-9.9-71.65a577.53,577.53,0,0,1-2.06-85.57c31.31-24.23,38.24-29.42,38.33-29.31s-30.86,17.87-32.74,43.52c-.27,3.63-.88,11.88,3.92,15.49,13.31,10,55.71-27.29,57.24-25.29,1,1.37-21.62,15.31-37,41.46-3.38,5.76-12.46,21.61-14.71,42.93-3.07,29.23,10.13,36.19,16.27,80,4.1,29.25,1.28,48,5.49,48.62,5,.74,13.76-24.93,30.09-57.34A65.7,65.7,0,0,1,1703,246c7.51-9.46,15.49-12.55,33.5-37.54,15.42-21.39,23.63-38.61,46.47-56.65.8-.64,13-10.19,14.6-8.53,1.36,1.38-5.29,9.89-20.68,31.66-13.66,19.31-17.57,25.53-15.69,27.84,2.92,3.56,15.48-7.43,33.53-4.51,8.82,1.42,17.27,5.89,16.86,8.23-.64,3.57-21.16-1.86-42.35,3.33-23.16,5.68-48.68,24.44-59.5,53.42-9.57,25.66-10.1,64.77,10.39,79.2,13.47,9.49,22.12-1.46,73.81-3.63,36.37-1.52,56.31,2.89,62.44-8.13,5.73-10.3-8.29-20.9-1.57-33.13,7.67-14,32.1-15.14,45.19-13.43,8.49,1.11,18.69,4.29,18.52,7-.34,5.4-42.59.43-48.52,16-2.31,6.07,1.26,14.36,6.47,18.82,17.76,15.17,60-9.58,62-5.2.94,2-7.2,9.5-18.33,14-17.19,7-30.07,3.87-47,4.21-19,.39-25,5.16-49.4,11.37-24.15,6.17-73.27,18.7-123.31,4.51C1680.93,349.26,1660.85,343.56,1649.08,325.51Z" transform="translate(-749.67 238.58)"/><path class="cls-29" d="M1455.21-173.2" transform="translate(-749.67 238.58)"/><circle class="cls-30" cx="1111.04" cy="492.05" r="37.76"/><circle class="cls-31" cx="1027.53" cy="445" r="37.76"/><circle class="cls-32" cx="981.65" cy="385.01" r="37.76"/><circle class="cls-33" cx="929.41" cy="316.69" r="37.76"/><circle class="cls-34" cx="1154.16" cy="437.94" r="37.76"/><circle class="cls-35" cx="1047.82" cy="371.39" r="37.76"/><circle class="cls-36" cx="974.6" cy="437.94" r="37.76"/><circle class="cls-37" cx="1000.67" cy="309.73" r="37.76"/><circle class="cls-38" cx="1087.32" cy="423.04" r="37.76"/><circle class="cls-39" cx="1101.63" cy="293.27" r="37.76"/><ellipse class="cls-40" cx="1706.69" cy="49.26" rx="37.76" ry="44.14" transform="translate(-645.16 877.95) rotate(-21.87)"/><circle class="cls-41" cx="1192.49" cy="498.42" r="37.76"/><circle class="cls-42" cx="1161.22" cy="385.01" r="37.76"/><circle class="cls-43" cx="1025.76" cy="256.22" r="37.76"/><circle class="cls-44" cx="1113" cy="387.56" r="37.76"/><circle class="cls-45" cx="1056.05" cy="309.64" r="37.76"/><circle class="cls-46" cx="1136.03" cy="338.26" r="37.76"/></g><g id="Layer_18" data-name="Layer 18"><path class="cls-47" d="M1379,593.53a138.35,138.35,0,0,1-44.33,36.8,78.41,78.41,0,0,1,19.23-31.1c5.93-5.91-3.26-15.11-9.19-9.19a91.78,91.78,0,0,0-24.19,42.32,6.17,6.17,0,0,0,.37,4.36,147.64,147.64,0,0,1-26.52,7.85,71.31,71.31,0,0,1,26.54-44.37c6.57-5.16-2.69-14.31-9.19-9.19a83.05,83.05,0,0,0-30.7,55.53,141.94,141.94,0,0,1-18.67.67,200.57,200.57,0,0,1,13.85-46.49,4.66,4.66,0,0,0,2.68-.25,93.3,93.3,0,0,0,27.2-17.14c6.21-5.63-3-14.8-9.19-9.19a78.07,78.07,0,0,1-12,9q4.37-7.89,9.41-15.41c4.68-7-6.58-13.47-11.23-6.56a215.29,215.29,0,0,0-33.62,85.1,134,134,0,0,1-28.13-6.6,5.49,5.49,0,0,0-5.28.61,418.9,418.9,0,0,0,74.45-139.84,150.67,150.67,0,0,0,67.8-26.26c6.77-4.81.29-16.08-6.56-11.23A143.29,143.29,0,0,1,1331.23,475a41.11,41.11,0,0,1,7.23-15.52c2.15-2.77,2.7-6.49,0-9.19-2.24-2.24-7-2.79-9.19,0a56.15,56.15,0,0,0-10.93,22.76,6.3,6.3,0,0,0,2.33,6.54,134.33,134.33,0,0,1-26.3,7.2q5-18.69,8.23-37.8l.27-1.69c14.32-2.93,26.27-13.81,28.69-28.71,1.33-8.19-11.19-11.71-12.53-3.46-1.31,8-6.63,15.42-14.22,18.4,3-24.72,2.92-49.71-2.79-74.13-1.9-8.14-14.44-4.7-12.53,3.46A178.64,178.64,0,0,1,1294,398a36.71,36.71,0,0,1-3.31-4.73c-4.22-7.22-15.46-.68-11.22,6.56a48.23,48.23,0,0,0,14.34,15.37,263,263,0,0,1-3,28.74A55.14,55.14,0,0,1,1270,418c-2.94-7.74-15.52-4.38-12.53,3.46a69.58,69.58,0,0,0,30.78,36.24c-2.55,12.41-5.8,24.65-9.44,36.54a131.23,131.23,0,0,1-22.33-30.14c3.52.37,7.19-1.69,6.9-6.21L1262.07,438c-.53-8.31-13.53-8.37-13,0q.38,5.81.74,11.62c-.52-1.33-1-2.68-1.49-4-2.72-7.86-15.29-4.48-12.53,3.45a143.34,143.34,0,0,0,38,58.4,6.2,6.2,0,0,0,.56.48,408,408,0,0,1-59.81,113.22c-2,2.71-4.1,5.39-6.21,8q-7.46-13.66-13.68-27.9a201,201,0,0,0,52.56-85.07c2.5-8-10-11.43-12.53-3.46a187,187,0,0,1-10,25.36,28.06,28.06,0,0,1-3.85-18.71c.55-3.49-.89-7-4.54-8-3.07-.89-7.45,1.07-8,4.54a42.34,42.34,0,0,0,9,34,6.88,6.88,0,0,0,.68.73,188.92,188.92,0,0,1-28.7,37.66q-6.52-16.64-11.38-33.9a7.23,7.23,0,0,0-.26-1.52c-.74-2.61-1.46-5.23-2.16-7.84a6.88,6.88,0,0,0,7.84-2.39,84.58,84.58,0,0,0,16-40.16c.47-3.51-3.32-6.47-6.5-6.5-3.89,0-6,3-6.5,6.5a71.59,71.59,0,0,1-13.42,32.53q-5.58-21.89-9.75-44.1a5.83,5.83,0,0,0,3.92-2,39.9,39.9,0,0,0,10.42-21.46c.48-3.48-.84-7-4.54-8-3-.83-7.51,1-8,4.54a29.48,29.48,0,0,1-4.37,12.25c-1.58-9.59-3-19.21-4.14-28.86-.43-3.52-2.69-6.46-6.5-6.5-3.19,0-6.92,3-6.5,6.5q1.56,13,3.6,25.93l-6.13-3.74c-7.16-4.38-13.7,6.86-6.56,11.22l15.24,9.32.33.18q4.64,25.64,11.13,50.9c-12.28-.9-24.11-11-25.52-23.4-.93-8.21-13.94-8.31-13,0a41.26,41.26,0,0,0,41.82,36.28,371.23,371.23,0,0,0,35.13,85.9,410.69,410.69,0,0,1-31,32.43c-6-13.64-12-27.28-18.23-40.82q-5.52-12-11.13-24.06A61.26,61.26,0,0,0,1176.2,613c8.23-1.39,4.74-13.92-3.46-12.54-18.33,3.1-37.54-6.11-47.16-21.85a6.93,6.93,0,0,0-.52-.74q-14.6-30.63-29.75-61a5.71,5.71,0,0,0,2.78-2.9,577.45,577.45,0,0,0,24.64-61.3,6,6,0,0,0,2.23-6.77c.21-.64.41-1.29.61-1.93a7.25,7.25,0,0,0,1.36-1.17,43.36,43.36,0,0,1,24.73-13.82c8.21-1.55,4.73-14.08-3.46-12.53a54.36,54.36,0,0,0-16.21,5.86c1.32-4.79,2.6-9.58,3.79-14.4a6.24,6.24,0,0,0,3.45-1.83q7.65-7.67,15.32-15.32c5.93-5.92-3.26-15.11-9.19-9.19l-4.67,4.66q3.55-17.24,6-34.71c.49-3.5-.86-6.94-4.54-8-3-.87-7.51,1.07-8,4.54q-3.29,23.43-8.57,46.48l-6.53-8.77c-2.1-2.81-5.63-4.24-8.9-2.33-2.77,1.62-4.44,6.06-2.33,8.9l9.16,12.28a7.45,7.45,0,0,0,5.41,3.18q-2.91,11.49-6.28,22.84-7.79-13.19-15.56-26.37c-4.25-7.2-15.5-.67-11.23,6.56l21.54,36.48a550,550,0,0,1-22.25,56.25q-12-23.72-24.24-47.27a6.52,6.52,0,0,1-2.14-1.86q-4-5.42-7.85-10.92a5.38,5.38,0,0,1-.9,0c-7.39-11.27-14.9-22.52-22.76-33.47a438.32,438.32,0,0,0,23.87-49.45c10.84,4.74,22.8.83,32.12-6a216.59,216.59,0,0,0,31-28.49c5.64-6.16-3.53-15.38-9.19-9.19-1,1.1-2,2.2-3.07,3.29a49,49,0,0,1,4.44-12c3.91-7.39-7.31-14-11.22-6.56a63.42,63.42,0,0,0-7.4,27.67,6.06,6.06,0,0,0,1,3.8q-4,3.65-8.18,7.12c-6.59,5.46-16,12.6-24.78,8.27q6.69-17.86,11.81-36.25c15.33-7.59,26.73-20.55,33.2-36.29,1.34-3.28-1.46-7.11-4.54-8-3.72-1.07-6.67,1.31-8,4.54a54.09,54.09,0,0,1-15.94,21.27q4.14-17.85,6.81-36a7.47,7.47,0,0,0,6.28-1.67,30,30,0,0,0,10.92-18.47c.57-3.45-.9-7-4.54-8-3.11-.86-7.42,1.06-8,4.54a20.11,20.11,0,0,1-2.56,7.15q1.79-16.46,2.32-33.05c.27-8.37-12.73-8.36-13,0q-.51,15.71-2.19,31.32a60.59,60.59,0,0,1-1.14-19.05c.79-8.32-12.21-8.27-13,0a70.29,70.29,0,0,0,8.36,40.11,6.1,6.1,0,0,0,2.57,2.61A427.44,427.44,0,0,1,1058.6,309a6.65,6.65,0,0,0-1.54-2.7c-13.12-14.33-14.08-35.29-14.9-53.7-.37-8.33-13.38-8.38-13,0,1,22.18,3,45.74,18.71,62.89,2.84,3.1,6.57,2.33,8.86,0a429.07,429.07,0,0,1-14.54,41.19l-2.52-6.09a7.65,7.65,0,0,0-4.38-4.46,150.17,150.17,0,0,1-18.36-35.69,4.8,4.8,0,0,0,2.36-2.42q2.15-5.07,4.3-10.14c1.21-2.87,3.1-5.93,3.19-9.1.21-6.75-7.46-12.41-12.92-6.81a6.08,6.08,0,0,0-.84,7.78l-.12.3-1.08,2.54c-.9-4.1-1.64-8.22-2.18-12.38-.46-3.5-2.66-6.46-6.5-6.5-3.16,0-7,3-6.5,6.5a165.9,165.9,0,0,0,33.07,80.07l3.18,7.7a8.33,8.33,0,0,0,2.81,3.65q-6.24,13.67-13.44,26.9c-14-18.45-29.4-35.73-47.36-50.48a510.5,510.5,0,0,1-33.11-43.45,7,7,0,0,0,.16-3.77,6.2,6.2,0,0,0-5.75-4.61A516,516,0,0,1,903.88,239,70.3,70.3,0,0,0,919.51,196c.14-8.37-12.86-8.37-13,0a56.69,56.69,0,0,1-8.87,29.68q-5.19-11.58-9.83-23.42a5.86,5.86,0,0,0,3-2.86,58.21,58.21,0,0,0,6.2-18.57c.52-3.47-.86-7-4.54-8-3.06-.84-7.47,1-8,4.54a51.26,51.26,0,0,1-2.37,9.66q-4.12-11.6-7.7-23.41c-2.41-8-15-4.58-12.53,3.46q3,9.83,6.33,19.52a17.19,17.19,0,0,0-7.57-4.43c-3.28-.91-7.22,1.12-8,4.54a6.62,6.62,0,0,0,4.54,8l.53.16a8.28,8.28,0,0,0,1.14.67l.25.24a5.62,5.62,0,0,1,.41.44c1.9,2.8,5.81,4.28,8.87,2.31A7.31,7.31,0,0,0,871.2,195q6.18,16.92,13.48,33.39a42.32,42.32,0,0,1-27-14.25c-5.53-6.3-14.69,2.92-9.19,9.19a53.84,53.84,0,0,0,42.15,18,530.68,530.68,0,0,0,31.09,56.24,139.15,139.15,0,0,1-39-3.16c0-.24-.1-.49-.17-.75A217.3,217.3,0,0,0,859,239.27c-4.35-7.14-15.6-.61-11.23,6.56A203.84,203.84,0,0,1,868,290.31a146.68,146.68,0,0,1-38.57-19.78,5.82,5.82,0,0,0,3.36-5.6,58.48,58.48,0,0,0-9.92-32.19c-4.66-6.9-15.92-.4-11.23,6.56a46.06,46.06,0,0,1,8.08,23.58,138.53,138.53,0,0,1-13.24-13c-5.57-6.27-14.74,3-9.19,9.19a148.75,148.75,0,0,0,18.83,17.74l-.32.1a6.5,6.5,0,0,0,3.45,12.53,17.29,17.29,0,0,0,7.87-4.72,157.64,157.64,0,0,0,40.46,18.94,5,5,0,0,0,.6,1.92c-.49.52-1,1-1.46,1.58-1.54,1.63-3.11,3.24-4.74,4.79q-3,2.92-6.32,5.61a5.29,5.29,0,0,0-2.7-3,192.79,192.79,0,0,1-21.2-11.15c-7.17-4.35-13.71,6.88-6.56,11.23a193.55,193.55,0,0,0,19.88,10.53,122.1,122.1,0,0,1-15.29,8.11c-7.63,3.39-1,14.6,6.56,11.22a123.25,123.25,0,0,0,31.09-19.9c4-3.45,12.43-10.51,14.38-17.27a156.81,156.81,0,0,0,47.87,2.48q13,19.32,27.71,37.48a6.66,6.66,0,0,0,2.78,5.62c1.8,1.34,3.56,2.72,5.3,4.11l1,1.12a6,6,0,0,0,2.76,1.91c37.07,31,62.53,74.19,88.8,114.13a7.07,7.07,0,0,0,1.53,1.67q1.29,2.64,2.54,5.29c11.59,24.59,20.79,50.17,31.08,75.31a5.49,5.49,0,0,1,.36,3.34c.73,1.73,1.43,3.47,2.08,5.24q7.62,15.66,15.09,31.38A181.13,181.13,0,0,0,1081,577c-22.9-12.25-47.12-22.39-71.41-31.5q-7.18-2.68-14.42-5.21a224.51,224.51,0,0,0-13.09-45.08,216.66,216.66,0,0,0,10.3-27.93,6.55,6.55,0,0,0,2.82-1.72l19.8-20c5.89-5.95-3.29-15.15-9.19-9.19l-5.86,5.93a126.81,126.81,0,0,0,2.63-24.9c.06-8.37-12.94-8.38-13,0a112.12,112.12,0,0,1-2.18,21.38,5.43,5.43,0,0,0-2.58,4,200.6,200.6,0,0,1-10,36.4q-5-9.94-10.85-19.37a116.54,116.54,0,0,0,3.92-43.1c-.8-8.25-13.8-8.34-13,0A108.14,108.14,0,0,1,954,445q-5.67-7.71-12-15V401.46c0-8.37-13-8.38-13,0v14.77a231,231,0,0,0-27.36-22.92c-6.82-4.86-13.32,6.4-6.56,11.22A212.57,212.57,0,0,1,929,434.74v.42a6.07,6.07,0,0,0,5.8,6.24q5.7,6.83,10.82,14.07a6.69,6.69,0,0,0-2.47-1.42,91.28,91.28,0,0,1-27.38-14.53c-6.52-5.09-15.78,4.05-9.19,9.19a110.11,110.11,0,0,0,27.5,15.81,6.32,6.32,0,0,0,2.17,1.79l16.68,8.75a6.29,6.29,0,0,0,5.26.4,222.34,222.34,0,0,1,13.62,29.23c-5.45,0-11-2.35-15.88-4.28a179,179,0,0,1-16.56-7.56,189.13,189.13,0,0,1-30.58-19.67c-6.49-5.14-15.75,4-9.19,9.19a203.72,203.72,0,0,0,36.29,23.26c12.38,6.12,26.16,13,40.26,11.61q2.82,9,4.85,18.24a706.27,706.27,0,0,0-80.44-21,6.82,6.82,0,0,1-2.07.39,5.58,5.58,0,0,0-.94-.6,6.3,6.3,0,0,0-4.91-2.33h-4l-1-.24c-.21-.1-.42-.18-.63-.3l-.14,0-.11,0,.06,0-10.06-2.37a6.32,6.32,0,0,0-4.18.35c-6.22-1-12.45-1.94-18.69-2.77-2.25-.29-4.5-.56-6.74-.83A5.91,5.91,0,0,0,848,500a188.44,188.44,0,0,0-7.57-18.48,74.87,74.87,0,0,0-.93-20.89c-1.1-5.94-9.69-3.93-9.73,1.58-1.66-2.62-3.37-5.2-5.17-7.73-5.19-7.27-17.34-.29-12.09,7.07.17.23.33.48.49.72-3.12-.18-6.31,3.2-5.08,6.34a34.86,34.86,0,0,0,8.51,12.88,4.73,4.73,0,0,0,3.65,1.38l9.7,21.21c-5.59-.53-11.18-1-16.78-1.43-2.3-5.75-8.93-12.65-13.65-15.83l-.1-.13a8.3,8.3,0,0,0-6.07-3.48,7.2,7.2,0,0,0-8.19,3.19,17.3,17.3,0,0,0-.55,9.92c.78,1.52,1.55,3.05,2.33,4.58l.19.32-3.63-.12A34.07,34.07,0,0,0,764,499.29a32.52,32.52,0,0,0-4,1,1.88,1.88,0,0,0-1.24,0,12.68,12.68,0,0,0-6.72,6.13,2.73,2.73,0,0,0-1.27,1.52l-1,2.68a2.5,2.5,0,0,0,4.13,2.48c2.05,1.54,5.7,1.9,7.78,2.3,5.88,1.13,13.82,1.95,19.88-.48H782c-2.07,2.22-3.8,5-3.76,7.86a8.1,8.1,0,0,0,.88,3.62c.31,3.71,3.38,6,7,6.38,4.69.43,9.77-1,13-4.13,5.36-1.78,10.25-7.17,13.2-11.15a2.34,2.34,0,0,0,.45-1q6.53.48,13,1.07a7.68,7.68,0,0,0-.57.77q-9.37,14.68-18.74,29.36c-7.37,4.56-.41,16.28,7.36,11.91a82.13,82.13,0,0,0,35.18-39.49q22.93,2.88,45.65,7.29c.69,2.1,3.66,2.42,4.61.91q18.63,3.74,37,8.51-7.82,2.91-15.5,6.16c-3.56-2-9.13-.52-9.93,4.36a400.43,400.43,0,0,0-52.07,28.48,6.89,6.89,0,0,0-6.11-6.12,117.79,117.79,0,0,0-41.61,2.76c-8.12,2-4.68,14.54,3.46,12.54a107.14,107.14,0,0,1,34.49-2.65q-16,11-30.85,23.56c-6.4,5.4,2.84,14.56,9.19,9.19a380.47,380.47,0,0,1,33-24.87l-13.67,22c-4.42,7.13,6.82,13.67,11.23,6.56l24.66-39.73a6.34,6.34,0,0,0,1-3.3Q896.56,568.5,910,562.1a166.68,166.68,0,0,1-17.45,59.46c-3.8,7.43,7.41,14,11.23,6.56A181.84,181.84,0,0,0,923.52,556q11.06-4.72,22.39-8.77a6.53,6.53,0,0,0,4.45-6.53,669.7,669.7,0,0,1,112.25,42.59c12.36,6,24.82,12.75,35.85,21.15a125.8,125.8,0,0,0-54.65,35.09,5.81,5.81,0,0,0-4.73.84,102.93,102.93,0,0,1-63.79,15.42c-8.33-.7-8.29,12.31,0,13a114.35,114.35,0,0,0,59-10.94q-23.6,24.79-45,51.48l-36.92,11.2c-8,2.42-4.58,15,3.46,12.54l19.49-5.91q-8.89,11.69-17.37,23.68c-4.83,6.84,6.43,13.34,11.23,6.56q13.33-18.9,27.78-36.94a5.93,5.93,0,0,0,3.05-3.8q4.39-5.43,8.86-10.78-2.52,12.47-5.05,25c-1.65,8.17,10.88,11.66,12.54,3.46l8.7-43a6.6,6.6,0,0,0-.32-3.84q9-10.14,18.38-20a113.54,113.54,0,0,0,13,55.66c3.88,7.41,15.1.85,11.22-6.56a99.52,99.52,0,0,1-10.09-62.3,6.68,6.68,0,0,0-2.93-6.82,114.62,114.62,0,0,1,55.74-33,88.42,88.42,0,0,1,11.59,14.18,6.73,6.73,0,0,0,5.74,3.21c17.84,38.67,34.08,78.15,53.12,116.25a502.71,502.71,0,0,0,26.46,47l-.44.07c-20.17,4.39-40.76,8.81-61.53,12.35a5.69,5.69,0,0,0-5.63-1c-3.6,1.1-7.16,2.32-10.69,3.6-49.09,7.11-98.82,8-146-9.36-7.86-2.89-11.25,9.66-3.45,12.53,36.59,13.46,75.16,16.19,113.61,13.62A219.8,219.8,0,0,0,1047,862.28c-5.89,6,3.3,15.15,9.19,9.19a207.23,207.23,0,0,1,76-48.88q13.32-2,26.47-4.39c17.13-3.14,34.17-6.78,51.19-10.49a5.74,5.74,0,0,0,3.75-2.43,296,296,0,0,0,34.08,41.37c29.35,29.38,66.51,52.47,108,59.18,5.59.9,11.3-1.45,12.92-7.34,1.37-5-1.71-12-7.34-12.91-75.45-12.2-125.66-76.18-158.69-140.14-10.23-19.79-19.5-40.06-28.57-60.42a412.11,412.11,0,0,0,34.23-35.45,7.33,7.33,0,0,0,5.3-2.28,6.38,6.38,0,0,0,4.3,4.87,144,144,0,0,0,29.84,7,6.09,6.09,0,0,0,.25,1.87c-6.54,18.69,8.48,36.11,24.85,43,8.38,3.5,18.66,6.67,27.81,6.91,7.44.19,16.87-3.67,16.05-12.56-.73-8-13-8.33-13-.7-.85.13-2.53.28-2.43.28-2.74,0-5.59-.86-8.24-1.44-6.16-1.35-12.45-2.89-18.1-5.77-9.88-5-18.5-15.43-14.12-27a5.86,5.86,0,0,0,.3-3.52,154,154,0,0,0,17.32-.34,6.37,6.37,0,0,0,4.47,5.89l43.11,14.67c7.94,2.7,11.35-9.85,3.46-12.54l-31.47-10.71a160.1,160.1,0,0,0,36-11.81,5.94,5.94,0,0,0,6,4.62h24.52c8.36,0,8.37-13,0-13h-15q4.36-2.68,8.53-5.65a145.39,145.39,0,0,0,30.19-28.63C1393.27,596.21,1384.13,587,1379,593.53Z" transform="translate(-749.67 238.58)"/><path class="cls-48" d="M1183.46,1186.92l-4.53-4.66a6.5,6.5,0,0,0-9.19,9.19c1.51,1.56,3,3.11,4.52,4.67a6.51,6.51,0,1,0,9.2-9.2Z" transform="translate(-749.67 238.58)"/></g><g id="Layer_23" data-name="Layer 23"><path class="cls-49" d="M1636.21,470.3c2-41.22,1.12-138.61-61-221.13-51.26-68.08-134.14-112.71-154-93.81-24.11,23,47.34,137.43,25.55,153.37-13.29,9.73-45.23-29-61-18.61-17.49,11.45-2.48,74.68,17.74,123.59,22.58,54.6,91.89,188.68,159,172.74C1610.15,575.1,1630.86,493.92,1636.21,470.3Z" transform="translate(-749.67 238.58)"/></g><g id="Layer_19" data-name="Layer 19"><path class="cls-50" d="M1682.62,578a138.27,138.27,0,0,1-55.09,16.88,78.37,78.37,0,0,1,29.72-21.28c7.75-3.18,2.81-15.2-4.94-12a91.66,91.66,0,0,0-38.62,29.74,6.2,6.2,0,0,0-1.34,4.16,146.12,146.12,0,0,1-27.5-3,71.4,71.4,0,0,1,41.58-30.72c8.06-2.23,3-14.24-4.94-12a83.07,83.07,0,0,0-49.72,39.42,142.17,142.17,0,0,1-17.49-6.57A200.9,200.9,0,0,1,1585,545a4.65,4.65,0,0,0,2.57.8,93.54,93.54,0,0,0,31.71-5.33c7.9-2.81,2.93-14.82-4.94-12a78.15,78.15,0,0,1-14.52,3.64c4.72-3.73,9.59-7.28,14.62-10.59,7-4.62-.88-15-7.83-10.38a215.41,215.41,0,0,0-63.81,65.58,134.31,134.31,0,0,1-23.41-16.92,5.47,5.47,0,0,0-5.11-1.47,419,419,0,0,0,122.56-100.38,150.65,150.65,0,0,0,72.69,1.88c8.1-1.83,6.46-14.73-1.73-12.89a142.55,142.55,0,0,1-23.57,3.29,41.19,41.19,0,0,1,12.65-11.54c3.05-1.73,5-4.94,3.54-8.48-1.2-2.93-5.41-5.28-8.48-3.54a56.26,56.26,0,0,0-18.85,16.79,6.31,6.31,0,0,0-.37,6.94,135.16,135.16,0,0,1-27-3.49q11.83-15.3,22.15-31.71c.31-.49.6-1,.9-1.46,14.34,2.81,29.56-2.62,37.54-15.44,4.38-7-5.82-15.12-10.24-8-4.3,6.91-12,11.68-20.2,11.51,12.25-21.68,21.84-44.76,26-69.49,1.38-8.25-11.52-9.9-12.9-1.64a178.07,178.07,0,0,1-9.41,34.13,35.39,35.39,0,0,1-1.23-5.64c-1.11-8.28-14-6.58-12.88,1.73a48.17,48.17,0,0,0,7.31,19.71,261.16,261.16,0,0,1-13.88,25.35,55.08,55.08,0,0,1-9.16-31.94c.26-8.28-12.64-10-12.9-1.64a69.56,69.56,0,0,0,14.44,45.3c-7.13,10.47-14.84,20.51-22.78,30.09a130.75,130.75,0,0,1-9-36.42c3.1,1.7,7.28,1.21,8.76-3.07l6.48-18.79c2.71-7.87-9.27-12.94-12-5l-3.8,11q.06-2.15.18-4.29c.51-8.3-12.38-10-12.9-1.64A143.55,143.55,0,0,0,1618.66,458a5.68,5.68,0,0,0,.34.65,408.2,408.2,0,0,1-98.81,81.46c-2.91,1.72-5.86,3.38-8.82,5q-1.62-15.48-1.88-31a201,201,0,0,0,81.27-58.26c5.39-6.42-4.87-14.42-10.24-8a185.73,185.73,0,0,1-19,19.54,28,28,0,0,1,3.65-18.74c1.85-3,1.85-6.76-1.11-9.13-2.5-2-7.3-1.88-9.13,1.11a42.31,42.31,0,0,0-4.75,34.84,6.1,6.1,0,0,0,.34.94,188.49,188.49,0,0,1-41,23.69q.39-17.87,2.55-35.66a7.49,7.49,0,0,0,.35-1.5q.49-4.05,1-8.08a6.85,6.85,0,0,0,8.15.82c12.79-7.51,22.77-18.15,30.21-30.91,1.78-3.06-.57-7.25-3.49-8.5-3.58-1.54-6.74.47-8.51,3.5a71.58,71.58,0,0,1-24.91,24.85q3.28-22.35,8-44.45a5.91,5.91,0,0,0,4.39-.36,39.88,39.88,0,0,0,17.89-15.8c1.78-3,1.91-6.76-1.11-9.13-2.48-1.93-7.34-1.93-9.13,1.11a29.35,29.35,0,0,1-8.75,9.62c2.23-9.46,4.64-18.87,7.29-28.23,1-3.4,0-7-3.5-8.5-2.93-1.26-7.54.12-8.5,3.5q-3.56,12.6-6.66,25.32l-4.22-5.82c-4.92-6.8-15.28,1.06-10.38,7.83q5.25,7.23,10.48,14.47l.24.29q-5.6,25.45-9.34,51.26c-11-5.56-18-19.43-14.53-31.42,2.3-7.94-9.67-13-12-5a41.24,41.24,0,0,0,24.61,49.58,371.39,371.39,0,0,0-.66,92.8,408.19,408.19,0,0,1-41.08,18c-.32-14.91-.6-29.81-1.11-44.69q-.45-13.25-1-26.49A61.38,61.38,0,0,0,1488,517.79c8.13,1.89,9.74-11,1.64-12.9-18.11-4.21-32.29-20.1-35.11-38.34a6.11,6.11,0,0,0-.19-.87q-1.68-33.9-4-67.76a5.67,5.67,0,0,0,3.68-1.61,575.12,575.12,0,0,0,46.35-47.08,6,6,0,0,0,4.67-5.38c.44-.51.87-1,1.31-1.55a7.62,7.62,0,0,0,1.7-.55,43.29,43.29,0,0,1,28.14-3.23c8.18,1.72,9.8-11.18,1.64-12.9a54.16,54.16,0,0,0-17.21-.84q4.59-5.85,9-11.82a6.25,6.25,0,0,0,3.89-.37l20-8.23c7.75-3.18,2.81-15.21-5-12l-6.09,2.5q9.92-14.54,18.92-29.71c1.8-3.05,1.88-6.74-1.11-9.13-2.47-2-7.34-1.91-9.13,1.11q-12.06,20.34-25.82,39.59l-2.65-10.61c-.85-3.4-3.55-6.08-7.31-5.58-3.18.43-6.43,3.89-5.58,7.31l3.72,14.86a7.51,7.51,0,0,0,3.78,5q-7.11,9.48-14.6,18.65-2.1-15.17-4.21-30.33c-1.14-8.28-14-6.58-12.88,1.73l5.82,42a549.5,549.5,0,0,1-42.2,43.33q-1.89-26.49-4.15-53a6.41,6.41,0,0,1-1.27-2.54q-1.59-6.53-3-13.09a6.78,6.78,0,0,1-.85-.33c-2.47-13.25-5.07-26.51-8.11-39.65A437.71,437.71,0,0,0,1473,238.05c8.17,8.54,20.72,9.55,32,6.82,13.61-3.31,26.87-8.49,39.55-14.37,7.58-3.51,2.67-15.55-4.94-12-1.36.63-2.73,1.25-4.1,1.85a48.66,48.66,0,0,1,8.73-9.37c6.45-5.32-1.37-15.71-7.83-10.38a63.38,63.38,0,0,0-17.49,22.68,6,6,0,0,0-.49,3.91c-3.41,1.22-6.84,2.37-10.3,3.42-8.18,2.51-19.62,5.47-26-1.9q13-13.92,24.86-28.91c17.08-1.1,32.59-8.67,44.62-20.71,2.5-2.5,1.39-7.12-1.11-9.13-3-2.41-6.66-1.36-9.13,1.11a54,54,0,0,1-22.9,13.49q10.69-14.86,20.15-30.6a7.5,7.5,0,0,0,6.44.88A30,30,0,0,0,1562.17,142c1.86-3,1.86-6.81-1.11-9.13-2.54-2-7.25-1.88-9.13,1.11a20.11,20.11,0,0,1-5.11,5.62q8-14.52,14.87-29.62c3.47-7.62-8.53-12.62-12-5q-6.51,14.31-14.08,28.07a60.08,60.08,0,0,1,6.29-18c3.93-7.37-8.09-12.33-12-5a70.15,70.15,0,0,0-7.74,40.22,6.19,6.19,0,0,0,1.37,3.41,429.53,429.53,0,0,1-27,38.34,6.55,6.55,0,0,0-.38-3.09c-6.58-18.28.6-38,6.93-55.29,2.87-7.84-9.11-12.89-12-5-7.63,20.85-14.83,43.37-6.95,65.25,1.43,3.95,5.16,4.67,8.17,3.42A428,428,0,0,1,1463,229.67l0-6.6a7.66,7.66,0,0,0-2.33-5.8,150,150,0,0,1-3.19-40,4.8,4.8,0,0,0,3.11-1.33l7.87-7.7c2.23-2.19,5.15-4.28,6.46-7.17,2.79-6.15-2.12-14.33-9.31-11.26a6.06,6.06,0,0,0-3.77,6.86l-.23.23-2,1.92c.75-4.12,1.65-8.22,2.75-12.26.93-3.41,0-7-3.49-8.5-2.91-1.25-7.58.11-8.51,3.5a166,166,0,0,0-.32,86.62q0,4.17,0,8.33a8.32,8.32,0,0,0,1.18,4.45q-11,10.22-22.77,19.65c-5.84-22.43-13.36-44.3-24.25-64.82a508.85,508.85,0,0,1-13.83-52.86,6.92,6.92,0,0,0,1.6-3.41,6.18,6.18,0,0,0-3.53-6.47,516.27,516.27,0,0,1-7.79-65.22,70.37,70.37,0,0,0,31-33.72c3.36-7.67-8.64-12.67-12-5a56.69,56.69,0,0,1-19.61,24q-.34-12.69-.06-25.4a5.88,5.88,0,0,0,3.88-1.48,57.84,57.84,0,0,0,12.88-14.75c1.81-3,1.89-6.78-1.11-9.12-2.5-2-7.3-1.92-9.12,1.11a51.52,51.52,0,0,1-5.91,8q.66-12.3,1.91-24.57c.85-8.3-12-10-12.9-1.64-.7,6.82-1.24,13.64-1.67,20.46a17.27,17.27,0,0,0-5.29-7c-2.67-2.1-7.09-1.75-9.12,1.11a6.62,6.62,0,0,0,1.11,9.13l.43.35a8.53,8.53,0,0,0,.78,1.06l.15.31c.08.19.14.38.2.57.68,3.32,3.72,6.19,7.3,5.54a7.32,7.32,0,0,0,4-2.15q-.83,18-.43,36a42.28,42.28,0,0,1-19.42-23.55c-2.68-7.94-14.69-3-12,4.95a53.84,53.84,0,0,0,32,32.86,531,531,0,0,0,7,63.88,139.64,139.64,0,0,1-34.73-17.92c.06-.25.1-.5.14-.76a217.45,217.45,0,0,0-.85-59.32c-1.27-8.26-14.16-6.57-12.89,1.73a204,204,0,0,1,1.58,48.86,146.23,146.23,0,0,1-28-33.11,5.79,5.79,0,0,0,5.25-3.87,58.47,58.47,0,0,0,3.25-33.53c-1.64-8.16-14.54-6.5-12.89,1.73a46.09,46.09,0,0,1-1.63,24.87,137.07,137.07,0,0,1-7.22-17.07c-2.73-7.92-14.74-3-12,4.94a149.07,149.07,0,0,0,10.54,23.63l-.33,0a6.5,6.5,0,1,0-1.64,12.89,17.26,17.26,0,0,0,9.07-1.32,158,158,0,0,0,30,33.06,4.9,4.9,0,0,0-.19,2c-.65.3-1.3.59-2,.9-2,.91-4.12,1.79-6.22,2.6q-3.95,1.52-8,2.73a5.24,5.24,0,0,0-1.32-3.84,195.51,195.51,0,0,1-15.27-18.46c-4.94-6.78-15.3,1.08-10.38,7.84a196.46,196.46,0,0,0,14.29,17.37,121.17,121.17,0,0,1-17.23,1.6c-8.35.19-6.57,13.08,1.73,12.89a123.62,123.62,0,0,0,36.36-6.4c5-1.66,15.52-4.91,19.92-10.4a156.94,156.94,0,0,0,43.22,20.73q4.57,22.85,11.14,45.26a6.66,6.66,0,0,0,.4,6.26q1.71,2.9,3.31,5.84c.15.46.29.93.44,1.39a6,6,0,0,0,1.82,2.83c22.25,42.93,29.12,92.55,38,139.52a7.13,7.13,0,0,0,.77,2.14c.11,1.95.22,3.91.31,5.86,1.22,27.15-.14,54.31-.33,81.47a5.45,5.45,0,0,1-1,3.22q0,2.82-.09,5.64,1,17.37,1.83,34.77a180.48,180.48,0,0,0-19.9-29.36c-16.42-20.12-34.86-38.8-53.78-56.57Q1354.67,386.1,1349,381a224.62,224.62,0,0,0,5.28-46.64,216.43,216.43,0,0,0,20.27-21.82,6.35,6.35,0,0,0,3.26-.5l26-10.85c7.73-3.22,2.79-15.25-4.94-12l-7.7,3.21a126.53,126.53,0,0,0,12-22c3.27-7.7-8.72-12.71-12-5a112.82,112.82,0,0,1-10.25,18.89A5.43,5.43,0,0,0,1377,287a200.42,200.42,0,0,1-23.26,29.73q-.75-11.08-2.55-22.05a116.71,116.71,0,0,0,20.22-38.26c2.44-7.93-9.53-13-12-5a108.38,108.38,0,0,1-11.78,25.78q-2.27-9.3-5.28-18.41l11-26.34c3.22-7.72-8.77-12.74-12-5L1335.65,241a229.77,229.77,0,0,0-16.42-31.69c-4.42-7.12-14.76.78-10.37,7.83a211.74,211.74,0,0,1,19.66,41l-.16.38a6.08,6.08,0,0,0,3,8c1.75,5.65,3.28,11.38,4.57,17.15a6.74,6.74,0,0,0-1.74-2.27,91,91,0,0,1-19.66-23.95c-4.06-7.21-16.13-2.34-12,4.94a110.25,110.25,0,0,0,19.29,25.19,6.43,6.43,0,0,0,1.31,2.48l12,14.5a6.24,6.24,0,0,0,4.7,2.39,223.83,223.83,0,0,1,1.31,32.23c-5-2.13-9.21-6.39-13-10.07a177.52,177.52,0,0,1-12.37-13.36,189.54,189.54,0,0,1-20.64-29.93c-4-7.24-16.08-2.37-12,4.94a204,204,0,0,0,24.53,35.45c9.07,10.42,19.15,22,32.68,26.22q-.87,9.39-2.55,18.71a706.92,706.92,0,0,0-66.15-50.36,6.49,6.49,0,0,1-2.06-.45,6.47,6.47,0,0,0-.63-.91,6.35,6.35,0,0,0-3.64-4l-3.69-1.54-.84-.61c-.16-.17-.32-.33-.47-.52l-.14,0H1260l0,.06-8.37-6.06a6.3,6.3,0,0,0-4-1.29c-5.35-3.32-10.74-6.59-16.18-9.75-2-1.14-3.93-2.25-5.9-3.37a5.9,5.9,0,0,0,3.08-5.16,187.43,187.43,0,0,0,.13-20,74.29,74.29,0,0,0,7.2-19.63c1.27-5.91-7.43-7.36-9.59-2.3-.53-3.05-1.11-6.09-1.8-9.12-2-8.71-15.88-6.94-13.88,1.87.07.28.12.57.18.85-2.81-1.36-7.06.52-7.13,3.9a35,35,0,0,0,2.89,15.17,4.74,4.74,0,0,0,2.84,2.67l.78,23.31c-5-2.64-9.92-5.25-14.93-7.78.09-6.2-3.37-15.12-6.51-19.87l0-.15a8.33,8.33,0,0,0-4.25-5.56,7.21,7.21,0,0,0-8.79-.21,17.14,17.14,0,0,0-4.33,8.94l.39,5.13c0,.12,0,.24,0,.37l-3.3-1.51a34.13,34.13,0,0,0-17.2-9.08,31.88,31.88,0,0,0-4.07-.58,1.81,1.81,0,0,0-1.16-.44,12.65,12.65,0,0,0-8.56,3.06,2.77,2.77,0,0,0-1.76.92l-1.94,2.09a2.52,2.52,0,0,0,0,3,2.57,2.57,0,0,0,2.89.83c1.29,2.21,4.52,3.94,6.29,5.12,5,3.3,12,7.12,18.53,7.21l.44.2c-2.77,1.24-5.44,3.15-6.5,5.8a8.2,8.2,0,0,0-.58,3.68c-1.14,3.54.79,6.89,4,8.57,4.17,2.2,9.4,2.85,13.62,1.21,5.63.42,12.22-2.67,16.48-5.21a2.19,2.19,0,0,0,.78-.72q5.84,3,11.63,6a9.14,9.14,0,0,0-.83.5L1172,315.29c-8.56,1.36-6.65,14.86,2.2,13.82a82.15,82.15,0,0,0,47.68-22.9q20.06,11.51,39.32,24.31c-.18,2.21,2.45,3.65,3.91,2.62q15.75,10.62,30.89,22.11-8.36-.31-16.69-.28c-2.52-3.19-8.22-4-10.83.2a400.21,400.21,0,0,0-59,6.22,6.9,6.9,0,0,0-3.28-8,117.78,117.78,0,0,0-39.47-13.47c-8.26-1.29-9.91,11.6-1.64,12.89a106.81,106.81,0,0,1,32.85,10.85q-19,4-37.53,9.85c-8,2.52-3,14.53,4.94,12a378.44,378.44,0,0,1,40-10.25l-21.1,15.07c-6.83,4.87,1,15.23,7.83,10.37l38.06-27.17a6.1,6.1,0,0,0,2.2-2.65q14.79-1.86,29.68-2.58a166.55,166.55,0,0,1-39,48.15c-6.38,5.39,1.43,15.79,7.83,10.38a181.85,181.85,0,0,0,46-59c8-.07,16,.09,24,.53a6.52,6.52,0,0,0,6.62-4.32,669.31,669.31,0,0,1,87.18,82.54c9.1,10.33,18,21.33,24.94,33.33a125.61,125.61,0,0,0-64,11.34,5.83,5.83,0,0,0-4.68-1.06,102.88,102.88,0,0,1-64.81-10.33c-7.42-3.86-12.39,8.16-5,12a114.45,114.45,0,0,0,58.63,12.61q-31.31,13.8-61.36,30.18L1240,530.83c-8.3-.84-10,12-1.64,12.9l20.27,2q-12.7,7.37-25.15,15.17c-7.1,4.45.8,14.79,7.83,10.38q19.59-12.3,39.88-23.39a6,6,0,0,0,4.27-2.33q6.13-3.32,12.33-6.54l-14.27,21.08c-4.67,6.9,5.54,15,10.24,8l24.58-36.32a6.54,6.54,0,0,0,1.19-3.67q12.24-5.89,24.67-11.39a113.62,113.62,0,0,0-9.49,56.35c.73,8.34,13.61,6.6,12.89-1.73A99.52,99.52,0,0,1,1362.25,510a6.68,6.68,0,0,0-.08-7.41,114.53,114.53,0,0,1,64.14-9,88.73,88.73,0,0,1,5.24,17.54,6.7,6.7,0,0,0,4,5.17c1.57,42.56,1.35,85.25,4.24,127.75a503.62,503.62,0,0,0,6.31,53.58,3,3,0,0,0-.43-.1c-20.3-3.72-41-7.57-61.53-12.3a5.73,5.73,0,0,0-4.81-3.12c-3.75-.37-7.5-.62-11.26-.79-48-12.35-94.26-30.69-131.12-64.88-6.14-5.69-14.11,4.59-8,10.24,28.59,26.52,63.14,43.9,99.6,56.33a219.79,219.79,0,0,0-55.8,15c-7.73,3.23-2.8,15.26,4.94,12a207.15,207.15,0,0,1,89-15.84q13,3.33,26.11,6.15c17,3.69,34.15,6.9,51.28,10a5.79,5.79,0,0,0,4.4-.8A297.25,297.25,0,0,0,1464,761c15.77,38.42,41.17,74,76.85,96.2,4.81,3,11,3,14.74-1.79,3.2-4.09,3.05-11.74-1.79-14.75-64.93-40.32-86.63-118.7-92.48-190.45-1.81-22.2-2.56-44.48-3.09-66.76a411.17,411.17,0,0,0,45.25-19.53,7.36,7.36,0,0,0,5.77-.06,6.4,6.4,0,0,0,2.09,6.15,143.83,143.83,0,0,0,24.84,18,6,6,0,0,0-.49,1.83c-13.23,14.73-6.08,36.58,6.39,49.2,6.39,6.46,14.65,13.34,23,17.09,6.8,3,17,3.11,19.66-5.41,2.41-7.68-8.81-12.7-11.76-5.66-.83-.22-2.45-.72-2.35-.69-2.55-1-4.83-2.93-7.05-4.49-5.17-3.62-10.38-7.47-14.49-12.3-7.17-8.45-11.13-21.36-2.64-30.32a5.87,5.87,0,0,0,1.64-3.13,154,154,0,0,0,16.11,6.36,6.37,6.37,0,0,0,1.85,7.15l34.14,30.14c6.29,5.55,14.26-4.72,8-10.23l-24.92-22a159.45,159.45,0,0,0,37.75,3,6,6,0,0,0,3.79,6.6l22.62,9.44c7.72,3.22,12.74-8.77,5-12l-13.82-5.77q5.05-.8,10-1.93A145.88,145.88,0,0,0,1687.56,590C1694.78,585.94,1689.91,573.88,1682.62,578Z" transform="translate(-749.67 238.58)"/></g><g id="Layer_17" data-name="Layer 17"><path class="cls-51" d="M1407.13,846.54c-36.64-32.12-217.49-188.12-181.3-326.56,6.84-26.15,23.57-45.57,14.17-69-18.42-45.86-108.07-45.42-107-55,.63-5.63,39.88-8.41,104-3a1015.8,1015.8,0,0,1,137,21c26.73,6.36,70.52,20.84,109,57,67.51,63.45,72.85,150.64,78.61,244.82,4.41,72.07,9.59,173.36-33.48,194.65C1498,925.36,1458.86,891.89,1407.13,846.54Z" transform="translate(-749.67 238.58)"/></g><g id="Layer_9" data-name="Layer 9"><path class="cls-52" d="M1303.77,1134.57c-42.31-36.65-251-214.71-213-368.39,7.19-29,25.76-50.34,14.57-76.67-21.92-51.58-123.68-53.06-122.68-63.73.59-6.27,45.09-8.5,118-1a1193.17,1193.17,0,0,1,156,26.45c30.48,7.69,80.52,24.8,125,66,78,72.29,86,169.7,94.64,274.93,6.59,80.52,14.69,193.65-33.73,216.47C1408.67,1224.53,1363.49,1186.32,1303.77,1134.57Z" transform="translate(-749.67 238.58)"/></g><g id="Layer_16" data-name="Layer 16"><path class="cls-53" d="M1607.21,869.3c2-41.22,1.12-138.61-61-221.13-51.26-68.08-134.14-112.71-154-93.81-24.11,23,47.34,137.43,25.55,153.37-13.29,9.73-45.23-29-61-18.61-17.49,11.45-2.48,74.68,17.74,123.59,22.58,54.6,91.89,188.68,159,172.74C1581.15,974.1,1601.86,892.92,1607.21,869.3Z" transform="translate(-749.67 238.58)"/><path class="cls-3" d="M2503,759" transform="translate(-749.67 238.58)"/></g><g id="Layer_8" data-name="Layer 8"><path class="cls-54" d="M1473,1044c2.07-15.93,33.45-243.44,124-257,16.88-2.53,33.53,2.72,51-10,26.78-19.5,25.64-59.52,32-59,6.88.56.12,46.71,23,96,11.71,25.23,19.68,26.49,27,42,31,65.65-50.11,173.68-119,233-21.73,18.71-95.75,82.44-129,61C1461.4,1136.72,1466.11,1097,1473,1044Z" transform="translate(-749.67 238.58)"/></g></svg>