<?xml version="1.0" encoding="utf-8"?>
<!-- Generator: Adobe Illustrator 23.0.1, SVG Export Plug-In . SVG Version: 6.00 Build 0)  -->
<svg version="1.1" xmlns="http://www.w3.org/2000/svg" xmlns:xlink="http://www.w3.org/1999/xlink" x="0px" y="0px"
	 viewBox="0 0 14400 14400" style="enable-background:new 0 0 14400 14400;" xml:space="preserve">
<style type="text/css">
	.st0{fill:#FFFFFF;stroke:#000000;stroke-miterlimit:10;}
</style>
<g id="Layer_1">
</g>
<g id="Layer_2">
	
		<image style="overflow:visible;" width="564" height="1002" xlink:href="../../../../../../../../SASASAS/a0e4d174a946d219d3a9d7e9aaa4380d.jpg"  transform="matrix(4.2061 0 0 4.2061 5783.2026 4780.7437)">
	</image>
	<path class="st0" d="M5596.5,7804.7"/>
</g>
<g id="Layer_5">
	
		<image style="overflow:visible;" width="537" height="960" xlink:href="../../../../../../../../SASASAS/2997ca076ae21f8f8f8d940fe0cbea54.jpg"  transform="matrix(0.1397 -4.9521 4.7662 0.1345 5335.2188 8495.752)">
	</image>
</g>
<g id="Layer_3">
	<path class="st0" d="M8101.2,6678.6c-85.7,64.6-214.2-48.7-351.6,36.8c-80.1,49.8-74.5,112-172.1,152.3
		c-68.7,28.4-137.5,24.9-188.6,22.3c-127.6-6.4-146.1-46.2-195.3-27.6c-104.1,39.4-59,231.3-160.9,278
		c-82.1,37.7-142.6-72.6-284.9-50.6c-97.7,15.2-107,73-206.8,91.9c-134.8,25.5-254.1-54.2-268.9-64.3
		c-182.5-125.6-214.3-440.1-128.7-652.6c121.3-300.8,475.2-390,714.6-450.4c359.5-90.6,1020.1-136.7,1233.1,209.1
		C8186.1,6377.7,8192.3,6610,8101.2,6678.6z"/>
</g>
<g id="Layer_4">
	<path class="st0" d="M6154.9,7361.2c70.5-65.6,125.3-115.3,179.2-101.1c53.7,14.1,52.5,77.3,133.3,165.4
		c72,78.5,175.8,140.7,211.4,114.9c24.4-17.7-5.4-60.8,20.7-101.1c39.6-61.3,180.1-72.7,273.4-16.1c104.4,63.3,81.8,169.4,154,193
		c114,37.3,200.7-217.2,381.4-222.9c175.2-5.5,235.5,229.4,441.2,222.9c117-3.7,153-81.5,222.9-57.4
		c123.5,42.5,199.8,350.9,112.6,507.8c-282.3,508-2445.1,55-2471.9-372.3C5812.1,7679.3,5927.2,7573.1,6154.9,7361.2z"/>
	<path class="st0" d="M5371.3,7060.2"/>
</g>
</svg>
