<svg xmlns="http://www.w3.org/2000/svg" xmlns:xlink="http://www.w3.org/1999/xlink" viewBox="0 0 3452.06 2142.36"><defs><style>.cls-1{fill:#fff;}</style></defs><title>Untitled-3</title><g id="Layer_4" data-name="Layer 4"><image width="537" height="960" transform="translate(487.04 1666.54) rotate(-90) scale(1.98)" xlink:href="../../../../../../../../SASASAS/2997ca076ae21f8f8f8d940fe0cbea54.jpg"/></g><g id="Layer_5" data-name="Layer 5"><path class="cls-1" d="M128,523c35.65-.27,74.34-.41,116-14,145.53-47.47,135.43-189.66,269-232,100.32-31.8,138.23,23.41,234-20C855.21,208,842.15,121.45,931,91c108-37,157.73,80.25,308,75,151.19-5.28,169.54-126.37,326-138,161.63-12,221.93,111.27,315,79,125.93-43.66,216.5-339.12,115-515C1791.31-761,872.14-532.88,655-479,369.55-408.17,78.54-319.67-59-59c-102.23,193.75-113.95,476.25-6,546C-8.85,523.28,112.36,523.12,128,523Z" transform="translate(471.04 601.21)"/><path class="cls-1" d="M-471,727c-3.7-299.58,227.65-546.82,284-525,53.5,20.71-46.82,284.18,70,364,21.56,14.74,79.71,20.16,196,31,143.85,13.41,149.38,6.19,181,21,90.18,42.25,68.2,155.8,153,187,58.39,21.49,82.07-26.07,175-24,110.57,2.47,125.29,70.87,224,88,147.44,25.59,195.21-113,352-104,111.88,6.44,103.24,77.92,269,138,183.42,66.48,354,37,429,24,114.81-19.86,187.13-50.13,232-71,320.27-149,883.17,82.56,887,236,5.22,209.16-1025.11,404-1754,442C114,1592.09-201.65,1279.77-282,1191-324.67,1143.86-468,969.4-471,727Z" transform="translate(471.04 601.21)"/><path class="cls-1" d="M-742,676" transform="translate(471.04 601.21)"/><path class="cls-1" d="M183,793" transform="translate(471.04 601.21)"/><path class="cls-1" d="M-886,652" transform="translate(471.04 601.21)"/><path class="cls-1" d="M-984,404" transform="translate(471.04 601.21)"/></g></svg>